<?xml version="1.0" standalone="no"?>
<!DOCTYPE svg PUBLIC "-//W3C//DTD SVG 20010904//EN"
 "http://www.w3.org/TR/2001/REC-SVG-20010904/DTD/svg10.dtd">
<svg version="1.0" xmlns="http://www.w3.org/2000/svg"
 width="160.000000pt" height="160.000000pt" viewBox="0 0 160.000000 160.000000"
 preserveAspectRatio="xMidYMid meet">
<metadata>
Created by potrace 1.16, written by Peter Selinger 2001-2019
</metadata>
<g transform="translate(0.000000,160.000000) scale(0.100000,-0.100000)"
fill="#000000" stroke="none">
<path d="M0 990 l0 -430 30 0 30 0 0 -130 0 -130 49 0 c46 0 49 -1 55 -32 15
-76 87 -128 176 -128 89 0 161 52 176 128 l6 32 238 0 237 0 7 -32 c15 -76 87
-128 176 -128 89 0 161 52 176 128 l6 31 117 3 116 3 3 69 c2 39 -2 74 -8 80
-6 6 -10 66 -10 151 l0 141 -65 167 c-78 202 -78 203 -118 227 -29 18 -52 20
-244 20 l-213 0 0 130 0 130 -470 0 -470 0 0 -430z m900 0 c0 -253 -4 -390
-10 -390 -5 0 -10 -9 -10 -20 0 -11 5 -20 10 -20 6 0 10 -43 10 -110 l0 -110
-189 0 -189 0 -6 31 c-34 171 -318 171 -352 0 -6 -26 -11 -31 -35 -31 l-29 0
0 110 c0 67 4 110 10 110 6 0 10 9 10 20 0 17 -7 20 -40 20 l-40 0 0 390 0
390 430 0 430 0 0 -390z m320 -30 c0 -147 2 -162 20 -180 12 -12 33 -20 55
-20 24 0 45 -9 68 -30 32 -27 41 -30 106 -30 64 0 71 -2 71 -20 0 -17 -7 -20
-40 -20 -53 0 -80 -27 -80 -80 0 -53 27 -80 80 -80 33 0 40 -3 40 -20 0 -11
-4 -20 -10 -20 -5 0 -10 -9 -10 -20 0 -13 7 -20 20 -20 17 0 20 -7 20 -40 l0
-40 -99 0 -98 0 -7 31 c-34 171 -318 171 -352 0 -6 -26 -11 -31 -35 -31 l-29
0 0 390 0 390 140 0 140 0 0 -160z m157 129 c19 -18 143 -312 143 -340 0 -5
-20 -9 -45 -9 -35 0 -51 6 -78 30 -23 20 -45 30 -66 30 -18 0 -40 9 -51 20
-18 18 -20 33 -20 161 l0 142 47 -7 c27 -3 57 -15 70 -27z m-946 -678 c35 -35
39 -44 39 -91 0 -47 -4 -56 -39 -91 -35 -35 -44 -39 -91 -39 -47 0 -56 4 -91
39 -35 35 -39 44 -39 91 0 47 4 56 39 91 35 35 44 39 91 39 47 0 56 -4 91 -39z
m840 0 c35 -35 39 -44 39 -91 0 -47 -4 -56 -39 -91 -35 -35 -44 -39 -91 -39
-47 0 -56 4 -91 39 -35 35 -39 44 -39 91 0 47 4 56 39 91 35 35 44 39 91 39
47 0 56 -4 91 -39z"/>
<path d="M160 920 c0 -89 0 -90 25 -90 21 0 25 5 25 30 0 28 3 30 35 30 31 0
35 3 35 25 0 22 -4 25 -35 25 -24 0 -35 5 -35 15 0 10 11 15 35 15 28 0 35 4
35 20 0 18 -7 20 -60 20 l-60 0 0 -90z"/>
<path d="M320 920 c0 -89 0 -90 25 -90 21 0 25 5 25 30 0 17 4 30 9 30 5 0 14
-13 21 -30 10 -24 19 -30 41 -30 32 0 37 15 14 47 -13 18 -13 22 0 33 21 17
19 64 -3 83 -13 12 -37 17 -75 17 l-57 0 0 -90z"/>
<path d="M510 920 l0 -90 65 0 c58 0 65 2 65 20 0 17 -7 20 -40 20 -29 0 -40
4 -40 15 0 10 11 15 35 15 28 0 35 4 35 20 0 16 -7 20 -35 20 -24 0 -35 5 -35
15 0 11 11 15 40 15 33 0 40 3 40 20 0 18 -7 20 -65 20 l-65 0 0 -90z"/>
<path d="M680 920 l0 -90 60 0 c53 0 60 2 60 20 0 16 -7 20 -35 20 -24 0 -35
5 -35 15 0 10 11 15 35 15 28 0 35 4 35 20 0 16 -7 20 -35 20 -24 0 -35 5 -35
15 0 10 11 15 35 15 28 0 35 4 35 20 0 18 -7 20 -60 20 l-60 0 0 -90z"/>
<path d="M1012 1048 c-17 -17 -17 -259 0 -276 16 -16 120 -16 136 0 17 17 17
259 0 276 -7 7 -37 12 -68 12 -31 0 -61 -5 -68 -12z m97 -42 c8 -9 11 -46 9
-101 -2 -71 -6 -90 -20 -99 -13 -8 -23 -8 -35 0 -15 9 -19 28 -21 99 -3 91 5
115 38 115 10 0 23 -6 29 -14z"/>
</g>
</svg>
