<?xml version="1.0" standalone="no"?>
<!DOCTYPE svg PUBLIC "-//W3C//DTD SVG 20010904//EN"
 "http://www.w3.org/TR/2001/REC-SVG-20010904/DTD/svg10.dtd">
<svg version="1.0" xmlns="http://www.w3.org/2000/svg"
 width="100.000000pt" height="100.000000pt" viewBox="0 0 100.000000 100.000000"
 preserveAspectRatio="xMidYMid meet">
<metadata>
Created by potrace 1.16, written by Peter Selinger 2001-2019
</metadata>
<g transform="translate(0.000000,100.000000) scale(0.100000,-0.100000)"
fill="#000000" stroke="none">
<path d="M66 854 l-26 -27 0 -327 0 -327 26 -27 27 -26 407 0 407 0 27 26 26
27 0 327 0 327 -26 27 -27 26 -407 0 -407 0 -27 -26z m828 -34 c8 -8 17 -26
21 -40 l6 -25 -421 0 c-231 0 -420 3 -420 7 0 23 23 60 42 68 13 5 182 8 390
7 311 -2 370 -4 382 -17z m0 -120 c8 -8 17 -26 21 -40 l6 -25 -421 0 c-231 0
-420 3 -420 7 0 23 23 60 42 68 13 5 182 8 390 7 311 -2 370 -4 382 -17z m0
-120 c9 -8 18 -30 22 -48 l7 -32 -132 0 c-132 0 -132 0 -157 -27 -91 -103 -90
-103 -134 -103 -44 0 -43 0 -134 103 -25 27 -25 27 -155 27 -142 0 -142 0
-121 55 5 14 20 30 32 35 13 5 182 8 390 7 313 -2 370 -4 382 -17z m-591 -129
c14 -6 39 -30 57 -55 38 -57 74 -76 140 -76 66 0 102 19 140 76 18 25 43 49
57 55 13 5 69 9 124 9 l101 0 -4 -130 c-2 -108 -6 -132 -21 -147 -16 -17 -46
-18 -397 -18 -351 0 -381 1 -397 18 -15 15 -19 39 -21 147 l-4 130 101 0 c55
0 111 -4 124 -9z"/>
</g>
</svg>
