<?xml version="1.0" standalone="no"?>
<!DOCTYPE svg PUBLIC "-//W3C//DTD SVG 20010904//EN"
 "http://www.w3.org/TR/2001/REC-SVG-20010904/DTD/svg10.dtd">
<svg version="1.0" xmlns="http://www.w3.org/2000/svg"
 width="100.000000pt" height="100.000000pt" viewBox="0 0 100.000000 100.000000"
 preserveAspectRatio="xMidYMid meet">
<metadata>
Created by potrace 1.16, written by Peter Selinger 2001-2019
</metadata>
<g transform="translate(0.000000,100.000000) scale(0.100000,-0.100000)"
fill="#000000" stroke="none">
<path d="M335 945 c-60 -30 -148 -64 -194 -77 l-83 -23 5 -115 c3 -70 14 -146
27 -195 29 -108 97 -246 164 -332 65 -83 211 -203 247 -203 21 0 135 88 190
148 152 163 235 363 246 587 l5 110 -83 23 c-46 12 -135 47 -198 77 -151 73
-176 73 -326 0z m294 -44 c56 -26 138 -59 183 -72 l80 -24 -6 -85 c-11 -151
-59 -294 -141 -422 -52 -80 -161 -192 -217 -222 l-36 -19 -50 37 c-185 135
-312 379 -329 626 l-5 85 80 24 c45 13 125 45 179 71 54 27 112 49 129 49 19
1 74 -19 133 -48z"/>
<path d="M285 729 c-10 -15 -6 -352 4 -362 4 -4 102 -6 217 -5 l209 3 0 185 0
185 -212 3 c-145 2 -214 -1 -218 -9z m395 -209 l0 -120 -180 0 -180 0 0 120 0
120 180 0 180 0 0 -120z"/>
</g>
</svg>
