<?xml version="1.0" encoding="UTF-8" standalone="no"?>
<svg
   viewBox="0 0 90.66 116.2"
   version="1.1"
   id="svg38"
   sodipodi:docname="citizen.svg"
   inkscape:version="1.1 (c68e22c387, 2021-05-23)"
   xmlns:inkscape="http://www.inkscape.org/namespaces/inkscape"
   xmlns:sodipodi="http://sodipodi.sourceforge.net/DTD/sodipodi-0.dtd"
   xmlns="http://www.w3.org/2000/svg"
   xmlns:svg="http://www.w3.org/2000/svg">
  <sodipodi:namedview
     id="namedview40"
     pagecolor="#ffffff"
     bordercolor="#666666"
     borderopacity="1.0"
     inkscape:pageshadow="2"
     inkscape:pageopacity="0.0"
     inkscape:pagecheckerboard="0"
     showgrid="false"
     inkscape:zoom="3.7564545"
     inkscape:cx="49.914088"
     inkscape:cy="24.757388"
     inkscape:window-width="1920"
     inkscape:window-height="1094"
     inkscape:window-x="-11"
     inkscape:window-y="-11"
     inkscape:window-maximized="1"
     inkscape:current-layer="svg38" />
  <defs
     id="defs4">
    <style
       id="style2">.cls-1{fill:#d1ecea;}.cls-2{fill:none;stroke:#231f20;stroke-linecap:round;stroke-linejoin:round;stroke-width:1.5px;}</style>
  </defs>
  <path
     class="cls-1"
     d="m 59.77,16.2 c -11.4,0 -21.34,10 -26.7,24.84 A 36.25,36.25 0 0 1 16.48,60.19 C 6.5,65.79 0,75 0,85.3 c 0,17.06 17.66,30.9 39.45,30.9 h 20.32 c 17.06,0 30.89,-22.39 30.89,-50 0,-27.61 -13.83,-50 -30.89,-50 z"
     id="path6"
     style="fill:#247ba0;fill-opacity:0.27000001" />
  <path
     class="cls-2"
     d="m 72,36.51 a 5.51,5.51 0 0 0 -5.68,-2 c -2,0.48 -4,1.43 -3.62,3.28 0.13,0.64 0.4,2.2 0.63,3.65 a 11.23,11.23 0 0 1 -0.58,5.74 L 58.66,57.8 h 8.62 a 35.9,35.9 0 0 1 0.07,-5.44 l 0.6,-4.85 a 12.4,12.4 0 0 1 2.56,-6.12 L 72,39.54 a 2.58,2.58 0 0 0 0,-3 z"
     id="path8" />
  <path
     class="cls-2"
     d="m 18.7,36.51 a 5.51,5.51 0 0 1 5.68,-2 c 2,0.48 4,1.43 3.62,3.28 -0.13,0.64 -0.4,2.2 -0.63,3.65 A 11.23,11.23 0 0 0 28,47.14 L 32,57.8 H 23.38 A 36.81,36.81 0 0 0 23.32,52.36 L 22.71,47.51 A 12.31,12.31 0 0 0 20.15,41.39 L 18.7,39.54 a 2.58,2.58 0 0 1 0,-3 z"
     id="path10" />
  <path
     class="cls-2"
     d="m 18.51,59.14 2.33,27.29 a 2,2 0 0 0 2,1.83 h 45 a 2,2 0 0 0 2,-1.83 L 72.16,59.14 A 1.24,1.24 0 0 0 70.93,57.8 H 19.74 a 1.24,1.24 0 0 0 -1.23,1.34 z"
     id="path12" />
  <path
     class="cls-2"
     d="m 55.09,57.8 c 0,0 1.8,-4.25 -2,-8.66 0,0 -2.51,-4.54 -0.24,-8 a 2.22,2.22 0 0 0 0,-2.41 c -1.25,-2 -3,-5.9 -0.47,-9.17"
     id="path14" />
  <path
     class="cls-2"
     d="m 64.32,35.15 a 25.81,25.81 0 0 0 -1.82,-6.72 12.87,12.87 0 0 1 -1,-4.49 c -0.12,-3.23 -0.21,-7.48 -0.26,-10 a 12.63,12.63 0 0 0 -1.8,-6.46 c -5.61,-9 -22.67,-9 -28.28,0 a 12.63,12.63 0 0 0 -1.8,6.46 c -0.05,2.52 -0.14,6.77 -0.26,10 a 12.76,12.76 0 0 1 -1,4.48 26,26 0 0 0 -1.82,6.72 M 55,24.85 a 10.72,10.72 0 0 1 -1.48,3.31 l -3.44,4.22 a 10.57,10.57 0 0 1 -2.74,1 7.2,7.2 0 0 1 -4,0 10.57,10.57 0 0 1 -2.74,-1 l -3.44,-4.22 a 11.07,11.07 0 0 1 -1.53,-3.48 6,6 0 0 1 0.65,-4.56 c 1.89,-3.34 2.14,-9.64 2.14,-9.64 0.7,-3 6.9,-4.33 6.9,-4.33 0,0 6.2,1.33 6.9,4.33 0,0 0.25,6.3 2.14,9.64 A 6.08,6.08 0 0 1 55,24.85 Z"
     id="path16" />
  <path
     class="cls-2"
     d="m 38.28,29.55 c 2.56,3.27 0.78,7.17 -0.47,9.17 a 2.22,2.22 0 0 0 0,2.41 c 2.27,3.47 -0.24,8 -0.24,8 -3.81,4.41 -2,8.66 -2,8.66"
     id="path18" />
  <path
     class="cls-2"
     d="m 37.58,49.14 a 17.33,17.33 0 0 0 15.5,0"
     id="path20" />
  <path
     class="cls-2"
     d="m 28.24,88.26 a 28.17,28.17 0 0 1 3.37,1.92 c 4.81,3.52 12.54,9 15.53,10"
     id="path22" />
  <path
     class="cls-2"
     d="m 45.32,106.73 c 0,0 -26.16,-4.67 -34.89,-13.06 a 6.67,6.67 0 0 1 -1.23,-8.38 5.72,5.72 0 0 1 4.94,-2.69 8.07,8.07 0 0 1 3.35,0.72 l 3.2,1.41"
     id="path24" />
  <path
     class="cls-2"
     d="m 69.93,85.15 4.67,-2.53 a 5,5 0 0 1 4.85,0.82 7.19,7.19 0 0 1 3,6.26 4.79,4.79 0 0 1 -2.3,3.59 l -14,8.59"
     id="path26" />
  <line
     class="cls-2"
     x1="44.549999"
     y1="98.910004"
     x2="64.18"
     y2="88.260002"
     id="line28" />
  <path
     class="cls-2"
     d="m 47.14,100.16 c 0,0 18.37,-5.77 19,1.72 l -1.43,5.17 a 5,5 0 0 1 -5.09,3.65 40.22,40.22 0 0 1 -14.28,-4 c 3.02,-2.57 1.8,-6.54 1.8,-6.54 z"
     id="path30" />
  <path
     class="cls-2"
     d="m 22.29,100.38 v 0 a 3,3 0 0 0 -0.21,2.3 l 1.15,4.13 a 5,5 0 0 0 5.43,3.62 46.08,46.08 0 0 0 14,-4.24"
     id="path32" />
  <line
     class="cls-2"
     x1="45.330002"
     y1="6.1500001"
     x2="45.330002"
     y2="0.75"
     id="line34" />
</svg>
