<svg id="Layer_1" data-name="Layer 1" xmlns="http://www.w3.org/2000/svg" xmlns:xlink="http://www.w3.org/1999/xlink" viewBox="0 0 766.12 571.06"><defs><style>.cls-1{fill:none;}.cls-2{fill:#21ccb2;}.cls-3{clip-path:url(#clip-path);}.cls-4{fill:#fff;}.cls-5{clip-path:url(#clip-path-3);}.cls-6{fill:url(#linear-gradient);}.cls-7{clip-path:url(#clip-path-4);}.cls-8{clip-path:url(#clip-path-5);}.cls-9{clip-path:url(#clip-path-6);}.cls-10{clip-path:url(#clip-path-7);}.cls-11{fill:#247ba0;}</style><clipPath id="clip-path"><rect class="cls-1" x="310.07" y="183.92" width="165" height="165"/></clipPath><clipPath id="clip-path-3"><path class="cls-1" d="M392.45,184a82.43,82.43,0,0,0-42.88,152.8c17.4-51.58,50.61-86.24,50.61-86.24C352,281.21,337.86,328,337.86,328s-30.2-56.77,15-84.55c41-25.25,90.47-19.45,90.47-19.45s-19.57,10.51-18.12,48.2-14.14,50.13-14.14,50.13a76.85,76.85,0,0,1-61.35,14.37A82.38,82.38,0,1,0,392.45,184Z"/></clipPath><linearGradient id="linear-gradient" x1="-267.47" y1="679.39" x2="-105.89" y2="586.12" gradientTransform="translate(618.06 -497.86) scale(1.21)" gradientUnits="userSpaceOnUse"><stop offset="0" stop-color="#4ab8a9"/><stop offset="0.13" stop-color="#4ab8a9"/><stop offset="0.16" stop-color="#4ab8a9"/><stop offset="0.19" stop-color="#49b7a8"/><stop offset="0.22" stop-color="#48b6a7"/><stop offset="0.25" stop-color="#47b6a7"/><stop offset="0.28" stop-color="#46b5a6"/><stop offset="0.3" stop-color="#45b4a5"/><stop offset="0.3" stop-color="#45b4a5"/><stop offset="0.31" stop-color="#44b3a4"/><stop offset="0.32" stop-color="#44b2a3"/><stop offset="0.33" stop-color="#43b2a3"/><stop offset="0.34" stop-color="#42b1a2"/><stop offset="0.34" stop-color="#42b1a1"/><stop offset="0.35" stop-color="#41b0a1"/><stop offset="0.36" stop-color="#41b0a0"/><stop offset="0.37" stop-color="#40afa0"/><stop offset="0.37" stop-color="#40af9f"/><stop offset="0.38" stop-color="#3fae9f"/><stop offset="0.38" stop-color="#3fae9e"/><stop offset="0.39" stop-color="#3ead9e"/><stop offset="0.4" stop-color="#3ead9d"/><stop offset="0.41" stop-color="#3dac9c"/><stop offset="0.41" stop-color="#3dac9c"/><stop offset="0.42" stop-color="#3cab9b"/><stop offset="0.43" stop-color="#3baa9b"/><stop offset="0.44" stop-color="#3baa9a"/><stop offset="0.45" stop-color="#3aa999"/><stop offset="0.45" stop-color="#3aa999"/><stop offset="0.46" stop-color="#39a898"/><stop offset="0.47" stop-color="#39a797"/><stop offset="0.48" stop-color="#38a797"/><stop offset="0.48" stop-color="#37a696"/><stop offset="0.49" stop-color="#36a595"/><stop offset="0.5" stop-color="#35a494"/><stop offset="0.51" stop-color="#34a393"/><stop offset="0.52" stop-color="#33a392"/><stop offset="0.52" stop-color="#32a292"/><stop offset="0.53" stop-color="#31a191"/><stop offset="0.54" stop-color="#30a090"/><stop offset="0.55" stop-color="#2f9f8f"/><stop offset="0.55" stop-color="#2e9e8e"/><stop offset="0.56" stop-color="#2d9d8d"/><stop offset="0.57" stop-color="#2c9d8c"/><stop offset="0.58" stop-color="#2b9c8c"/><stop offset="0.59" stop-color="#2b9b8b"/><stop offset="0.59" stop-color="#2a9a8a"/><stop offset="0.6" stop-color="#299989"/><stop offset="0.61" stop-color="#289888"/><stop offset="0.62" stop-color="#279787"/><stop offset="0.63" stop-color="#269786"/><stop offset="0.63" stop-color="#259686"/><stop offset="0.63" stop-color="#249585"/><stop offset="0.64" stop-color="#239484"/><stop offset="0.65" stop-color="#239484"/><stop offset="0.66" stop-color="#229383"/><stop offset="0.66" stop-color="#219282"/><stop offset="0.66" stop-color="#209282"/><stop offset="0.67" stop-color="#209181"/><stop offset="0.67" stop-color="#1f9180"/><stop offset="0.68" stop-color="#1f9080"/><stop offset="0.68" stop-color="#1e8f7f"/><stop offset="0.68" stop-color="#1d8f7f"/><stop offset="0.69" stop-color="#1d8e7e"/><stop offset="0.69" stop-color="#1c8e7d"/><stop offset="0.7" stop-color="#1b8d7d"/><stop offset="0.7" stop-color="#1b8d7c"/><stop offset="0.7" stop-color="#1a8c7b"/><stop offset="0.71" stop-color="#198b7b"/><stop offset="0.71" stop-color="#198b7a"/><stop offset="0.71" stop-color="#188a7a"/><stop offset="0.72" stop-color="#188a79"/><stop offset="0.72" stop-color="#178978"/><stop offset="0.73" stop-color="#168878"/><stop offset="0.73" stop-color="#168877"/><stop offset="0.73" stop-color="#158777"/><stop offset="0.74" stop-color="#148776"/><stop offset="0.74" stop-color="#148675"/><stop offset="0.75" stop-color="#138675"/><stop offset="0.75" stop-color="#138574"/><stop offset="0.75" stop-color="#128473"/><stop offset="0.76" stop-color="#118473"/><stop offset="0.76" stop-color="#118372"/><stop offset="0.77" stop-color="#108372"/><stop offset="0.77" stop-color="#0f8271"/><stop offset="0.77" stop-color="#0f8270"/><stop offset="0.78" stop-color="#0e8170"/><stop offset="0.78" stop-color="#0e806f"/><stop offset="0.79" stop-color="#0d806f"/><stop offset="0.79" stop-color="#0c7f6e"/><stop offset="0.79" stop-color="#0c7f6d"/><stop offset="0.8" stop-color="#0b7e6d"/><stop offset="0.8" stop-color="#0a7e6c"/><stop offset="0.8" stop-color="#0a7d6b"/><stop offset="0.81" stop-color="#097c6b"/><stop offset="0.81" stop-color="#087c6a"/><stop offset="0.82" stop-color="#087b6a"/><stop offset="0.82" stop-color="#077b69"/><stop offset="0.82" stop-color="#077a68"/><stop offset="0.83" stop-color="#067a68"/><stop offset="0.83" stop-color="#057967"/><stop offset="0.84" stop-color="#057867"/><stop offset="0.84" stop-color="#047866"/><stop offset="0.84" stop-color="#037765"/><stop offset="0.85" stop-color="#037765"/><stop offset="0.85" stop-color="#027664"/><stop offset="0.86" stop-color="#027663"/><stop offset="0.86" stop-color="#017563"/><stop offset="0.88" stop-color="#007462"/><stop offset="1" stop-color="#007462"/></linearGradient><clipPath id="clip-path-4"><rect class="cls-1" x="493.39" y="109.32" width="40" height="39.91"/></clipPath><clipPath id="clip-path-5"><rect class="cls-1" x="238.39" y="113.82" width="40" height="39.41"/></clipPath><clipPath id="clip-path-6"><rect class="cls-1" x="531.39" y="242.88" width="40" height="39.36"/></clipPath><clipPath id="clip-path-7"><rect class="cls-1" x="323.39" y="376.76" width="40" height="39.48"/></clipPath></defs><path class="cls-2" d="M392.18,532a266.07,266.07,0,0,1-266-266,266,266,0,0,1,532,0,266.07,266.07,0,0,1-266,266Zm0-516.09A250.06,250.06,0,0,0,215.36,442.84,250.06,250.06,0,1,0,569,89.2,248.56,248.56,0,0,0,392.18,16Z"/><g class="cls-3"><path class="cls-4" d="M474.83,266.36c0,1.35,0,2.69-.1,4s-.16,2.69-.29,4-.3,2.68-.5,4-.42,2.66-.69,4-.56,2.64-.89,3.95-.68,2.6-1.07,3.89-.82,2.57-1.27,3.84-.94,2.53-1.46,3.77-1.06,2.48-1.63,3.7-1.19,2.42-1.82,3.61-1.3,2.36-2,3.52S461.7,311,461,312.12s-1.52,2.23-2.33,3.31-1.63,2.15-2.49,3.19-1.73,2.06-2.64,3.06-1.83,2-2.78,2.93-1.93,1.88-2.93,2.79-2,1.78-3.07,2.64-2.1,1.68-3.18,2.49-2.19,1.58-3.31,2.33S436,336.32,434.8,337s-2.32,1.36-3.51,2-2.4,1.24-3.61,1.82-2.45,1.12-3.7,1.64-2.5,1-3.77,1.45-2.55.88-3.84,1.27-2.59.75-3.9,1.08-2.62.62-3.94.89-2.65.49-4,.69-2.67.36-4,.49-2.69.23-4,.3-2.7.1-4.05.1-2.69,0-4-.1-2.69-.17-4-.3-2.68-.3-4-.49-2.66-.43-4-.69-2.63-.56-3.94-.89-2.61-.69-3.9-1.08-2.57-.81-3.84-1.27-2.52-.94-3.77-1.45-2.48-1.06-3.7-1.64-2.42-1.19-3.61-1.82-2.36-1.3-3.52-2-2.29-1.41-3.41-2.16-2.23-1.53-3.31-2.33-2.15-1.64-3.18-2.49-2.07-1.74-3.07-2.64-2-1.84-2.93-2.79-1.88-1.93-2.79-2.93-1.78-2-2.64-3.06-1.68-2.1-2.48-3.19-1.58-2.18-2.33-3.31-1.47-2.25-2.16-3.41-1.36-2.33-2-3.52-1.24-2.39-1.82-3.61-1.12-2.45-1.63-3.7-1-2.5-1.46-3.77-.87-2.55-1.27-3.84-.75-2.59-1.08-3.89-.62-2.63-.88-3.95-.5-2.65-.69-4-.36-2.68-.5-4-.23-2.68-.29-4-.11-2.69-.11-4,0-2.7.11-4,.16-2.7.29-4,.3-2.68.5-4,.42-2.66.69-4,.55-2.64.88-3.95.69-2.61,1.08-3.89.82-2.57,1.27-3.84.94-2.53,1.46-3.78,1.06-2.47,1.63-3.69,1.19-2.43,1.82-3.61,1.3-2.37,2-3.52,1.41-2.3,2.16-3.42,1.52-2.22,2.33-3.3,1.63-2.15,2.48-3.19,1.74-2.06,2.64-3.06,1.84-2,2.79-2.93,1.93-1.88,2.93-2.79,2-1.78,3.07-2.64,2.1-1.68,3.18-2.49,2.19-1.58,3.31-2.33,2.26-1.47,3.41-2.16,2.33-1.36,3.52-2,2.4-1.25,3.61-1.82,2.45-1.12,3.7-1.64,2.5-1,3.77-1.45,2.55-.88,3.84-1.27,2.59-.75,3.9-1.08,2.62-.63,3.94-.89,2.66-.49,4-.69,2.67-.36,4-.49,2.69-.24,4-.3,2.7-.1,4-.1,2.7,0,4.05.1,2.69.16,4,.3,2.68.29,4,.49,2.66.43,4,.69,2.63.56,3.94.89,2.61.69,3.9,1.08,2.57.81,3.84,1.27,2.52.93,3.77,1.45,2.48,1.06,3.7,1.64,2.42,1.18,3.61,1.82,2.36,1.3,3.51,2,2.3,1.41,3.42,2.16,2.23,1.53,3.31,2.33,2.14,1.63,3.18,2.49,2.07,1.73,3.07,2.64,2,1.84,2.93,2.79,1.88,1.93,2.78,2.93,1.79,2,2.64,3.06,1.69,2.1,2.49,3.19,1.58,2.18,2.33,3.3,1.47,2.26,2.16,3.42,1.36,2.33,2,3.52,1.24,2.39,1.82,3.61,1.12,2.45,1.63,3.69,1,2.51,1.46,3.78.87,2.55,1.27,3.84.75,2.59,1.07,3.89.63,2.62.89,3.95.5,2.65.69,4,.36,2.67.5,4,.23,2.68.29,4S474.83,265,474.83,266.36Z"/></g><g class="cls-3"><g class="cls-5"><path class="cls-6" d="M310.07,348.92V184h165V348.92Z"/></g></g><path class="cls-2" d="M521.14,174.42a27.71,27.71,0,0,0,13-5.9,8.46,8.46,0,0,1,2.55-1.52,8.31,8.31,0,0,1,2.92-.55,20.92,20.92,0,0,0-1.36-2.72,21.25,21.25,0,0,0-1.74-2.48,19.77,19.77,0,0,0-2.09-2.2,20.74,20.74,0,0,0-5-3.38,21.4,21.4,0,0,0-2.82-1.1,20.11,20.11,0,0,0-3-.67,20.38,20.38,0,0,0-3-.24H506a20.3,20.3,0,0,0-3.73.34,21.38,21.38,0,0,0-3.6,1,20.93,20.93,0,0,0-3.36,1.65,20.38,20.38,0,0,0-3,2.23,20.61,20.61,0,0,0-2.55,2.73,20.86,20.86,0,0,0-3.42,6.62,19.94,19.94,0,0,0-.76,3.67l-1.86,15.4a5.66,5.66,0,0,0,.12,2.12,5.25,5.25,0,0,0,.35,1,5.62,5.62,0,0,0,.53.92,5.28,5.28,0,0,0,.69.81,5.87,5.87,0,0,0,.83.66,5,5,0,0,0,.94.5,6,6,0,0,0,1,.32,124.73,124.73,0,0,0,25.13,2.4c1.2,0,2.4,0,3.49-.11a51.74,51.74,0,0,1-2.84-11.9,9.1,9.1,0,0,1,0-1.65,8.19,8.19,0,0,1,.29-1.63,9.2,9.2,0,0,1,.58-1.54,8.83,8.83,0,0,1,.87-1.4,8.63,8.63,0,0,1,1.11-1.23,8.5,8.5,0,0,1,1.31-1,8.38,8.38,0,0,1,1.47-.73A9,9,0,0,1,521.14,174.42Z"/><g class="cls-7"><path class="cls-2" d="M532.61,129.08c0,.63,0,1.27-.09,1.9a17.4,17.4,0,0,1-.28,1.9c-.12.62-.28,1.23-.46,1.84s-.4,1.21-.64,1.8-.52,1.16-.82,1.73a19.39,19.39,0,0,1-3.4,4.58,17.27,17.27,0,0,1-1.42,1.28,19,19,0,0,1-1.53,1.14c-.53.35-1.07.68-1.63,1s-1.14.57-1.73.82-1.19.45-1.8.64a16.66,16.66,0,0,1-1.85.46,16.87,16.87,0,0,1-1.89.28,18.2,18.2,0,0,1-3.81,0,17,17,0,0,1-1.88-.28,16.83,16.83,0,0,1-1.86-.46c-.61-.19-1.2-.4-1.79-.64s-1.17-.52-1.73-.82-1.11-.63-1.64-1-1-.73-1.53-1.14a19.73,19.73,0,0,1-2.69-2.69,17,17,0,0,1-1.14-1.54,16.75,16.75,0,0,1-1-1.63c-.3-.57-.57-1.14-.82-1.73s-.46-1.19-.64-1.8-.34-1.22-.47-1.84-.21-1.26-.27-1.9a17.28,17.28,0,0,1-.1-1.9,17.46,17.46,0,0,1,.1-1.91c.06-.63.15-1.26.27-1.88s.29-1.25.47-1.86.4-1.2.64-1.79.52-1.17.82-1.73a18.2,18.2,0,0,1,1-1.64,18.39,18.39,0,0,1,1.14-1.53,19.73,19.73,0,0,1,2.69-2.69,18.39,18.39,0,0,1,1.53-1.14,18.2,18.2,0,0,1,1.64-1c.56-.3,1.14-.57,1.73-.82s1.18-.46,1.79-.64,1.23-.34,1.86-.47,1.25-.21,1.88-.27a18.2,18.2,0,0,1,3.81,0q1,.09,1.89.27c.63.13,1.24.29,1.85.47s1.21.4,1.8.64,1.16.52,1.73.82a18,18,0,0,1,1.63,1,16.86,16.86,0,0,1,1.53,1.14,17.27,17.27,0,0,1,1.42,1.28,18.93,18.93,0,0,1,1.28,1.41c.41.49.78,1,1.14,1.53s.68,1.08,1,1.64.57,1.14.82,1.73.45,1.18.64,1.79.34,1.23.46,1.86a17,17,0,0,1,.28,1.88C532.58,127.81,532.61,128.44,532.61,129.08Z"/></g><path class="cls-2" d="M557.2,181a35.93,35.93,0,0,1-16.06-7.32,2.16,2.16,0,0,0-.69-.43,2.15,2.15,0,0,0-2.26.43A33.79,33.79,0,0,1,522.13,181a2.34,2.34,0,0,0-.75.35,2.5,2.5,0,0,0-.58.59,2.31,2.31,0,0,0-.34.75,2.27,2.27,0,0,0-.08.82c2.18,19,14.31,27.42,18.14,29.6a2.1,2.1,0,0,0,1.14.33,2.14,2.14,0,0,0,1.15-.33c3.82-2.18,16-10.7,18.14-29.6a2.08,2.08,0,0,0,0-.86,1.9,1.9,0,0,0-.33-.79,2.18,2.18,0,0,0-.62-.59A2.1,2.1,0,0,0,557.2,181Zm-9.84,9.28-7.43,7.54a2.23,2.23,0,0,1-.69.49,2.16,2.16,0,0,1-.83.17,2.21,2.21,0,0,1-.84-.17,2.12,2.12,0,0,1-.69-.49l-4.7-4.7a2.16,2.16,0,0,1-.87-1.59,2.21,2.21,0,0,1,.13-.92,2,2,0,0,1,.51-.78,2.13,2.13,0,0,1,.78-.5,2,2,0,0,1,.91-.13,2.33,2.33,0,0,1,.9.25,2.41,2.41,0,0,1,.7.61l3.17,3.17,6-6a2.16,2.16,0,0,1,.7-.49,2.26,2.26,0,0,1,1.67,0,2.23,2.23,0,0,1,.69.49,2.06,2.06,0,0,1,.44.72,2.16,2.16,0,0,1,.13.83,1.93,1.93,0,0,1-.19.82A2.12,2.12,0,0,1,547.36,190.26Z"/><path class="cls-2" d="M266.79,178.92a27.71,27.71,0,0,0,13-5.9,8.46,8.46,0,0,1,2.55-1.52,8.3,8.3,0,0,1,2.91-.55,19.72,19.72,0,0,0-1.36-2.72,20.11,20.11,0,0,0-1.74-2.48,19.68,19.68,0,0,0-2.08-2.2,20.5,20.5,0,0,0-2.39-1.87,20.8,20.8,0,0,0-2.63-1.51,22.09,22.09,0,0,0-2.83-1.1,20,20,0,0,0-3-.67,20.41,20.41,0,0,0-3-.24H251.6a20.19,20.19,0,0,0-3.72.34,20.42,20.42,0,0,0-7,2.66,19.78,19.78,0,0,0-3,2.23,19.37,19.37,0,0,0-2.55,2.73,20.42,20.42,0,0,0-2,3.16,21.27,21.27,0,0,0-1.41,3.46,20.8,20.8,0,0,0-.76,3.67l-1.85,15.4a5.4,5.4,0,0,0,.11,2.12,6,6,0,0,0,.35,1,6.46,6.46,0,0,0,.53.92,6.7,6.7,0,0,0,.69.81,6,6,0,0,0,.84.66,4.7,4.7,0,0,0,.94.5,6,6,0,0,0,1,.32,124.56,124.56,0,0,0,25.12,2.4c1.2,0,2.41,0,3.5-.11a51.23,51.23,0,0,1-2.84-11.9,9.12,9.12,0,0,1,0-1.65,9.94,9.94,0,0,1,.29-1.63,9.24,9.24,0,0,1,.59-1.54,8.77,8.77,0,0,1,.86-1.4,8.63,8.63,0,0,1,1.11-1.23,9,9,0,0,1,1.31-1,8.84,8.84,0,0,1,1.48-.73A8.74,8.74,0,0,1,266.79,178.92Z"/><g class="cls-8"><path class="cls-2" d="M278.26,133.58c0,.63,0,1.27-.09,1.9s-.16,1.27-.28,1.9-.28,1.23-.47,1.84-.4,1.21-.64,1.8a17,17,0,0,1-.82,1.73,16.75,16.75,0,0,1-1,1.63,19.62,19.62,0,0,1-5.36,5.37c-.53.35-1.08.68-1.64,1s-1.14.57-1.73.82-1.18.45-1.79.64a17.23,17.23,0,0,1-1.85.46,17.59,17.59,0,0,1-1.89.28,18.2,18.2,0,0,1-3.81,0,16.87,16.87,0,0,1-1.89-.28,16.66,16.66,0,0,1-1.85-.46c-.61-.19-1.21-.4-1.8-.64s-1.16-.52-1.73-.82-1.1-.63-1.63-1a19,19,0,0,1-1.53-1.14,17.27,17.27,0,0,1-1.42-1.28,18.93,18.93,0,0,1-1.28-1.41c-.4-.49-.78-1-1.14-1.54a19,19,0,0,1-1-1.63c-.3-.57-.57-1.14-.81-1.73s-.46-1.19-.65-1.8-.34-1.22-.46-1.84-.22-1.26-.28-1.9-.09-1.27-.09-1.9,0-1.27.09-1.91.16-1.26.28-1.88.28-1.25.46-1.86.4-1.2.65-1.79a18.15,18.15,0,0,1,.81-1.73c.3-.56.63-1.11,1-1.64s.74-1,1.14-1.53a18.93,18.93,0,0,1,1.28-1.41,17.27,17.27,0,0,1,1.42-1.28,16.86,16.86,0,0,1,1.53-1.14c.53-.36,1.08-.68,1.63-1s1.14-.57,1.73-.82,1.19-.46,1.8-.64,1.22-.34,1.85-.47,1.25-.21,1.89-.27a18.2,18.2,0,0,1,3.81,0q.94.09,1.89.27c.62.13,1.24.29,1.85.47a18.1,18.1,0,0,1,1.79.64c.59.25,1.17.52,1.73.82a18.2,18.2,0,0,1,1.64,1,16.86,16.86,0,0,1,1.53,1.14,20.59,20.59,0,0,1,2.7,2.69c.4.49.78,1,1.13,1.53a18.2,18.2,0,0,1,1,1.64,16.07,16.07,0,0,1,.82,1.73c.24.59.46,1.18.64,1.79s.34,1.23.47,1.86.22,1.25.28,1.88S278.26,132.94,278.26,133.58Z"/></g><path class="cls-2" d="M302.84,185.48a36.06,36.06,0,0,1-16.06-7.32,2.12,2.12,0,0,0-.68-.43,2.17,2.17,0,0,0-.79-.15,2.13,2.13,0,0,0-.79.15,2.16,2.16,0,0,0-.69.43,33.68,33.68,0,0,1-7.54,4.73,34.13,34.13,0,0,1-8.52,2.59,2.29,2.29,0,0,0-.74.35,2.44,2.44,0,0,0-.93,1.34,2.52,2.52,0,0,0-.08.82c2.19,19,14.32,27.42,18.14,29.6a2.15,2.15,0,0,0,2.29,0c3.83-2.18,16-10.7,18.14-29.6a2.08,2.08,0,0,0,0-.86,2,2,0,0,0-.33-.79,2.22,2.22,0,0,0-.63-.59A2.1,2.1,0,0,0,302.84,185.48ZM293,194.76l-7.43,7.54a2.16,2.16,0,0,1-.7.49,2.11,2.11,0,0,1-1.66,0,2.16,2.16,0,0,1-.7-.49l-4.7-4.7a2.29,2.29,0,0,1-.61-.7A2.34,2.34,0,0,1,277,196a2.22,2.22,0,0,1,.14-.92,2,2,0,0,1,.5-.78,2.13,2.13,0,0,1,.78-.5,2.06,2.06,0,0,1,.92-.13,2.11,2.11,0,0,1,1.59.86l3.17,3.17,6-6a2.16,2.16,0,0,1,.7-.49,2.23,2.23,0,0,1,1.66,0,2.16,2.16,0,0,1,.7.49,2,2,0,0,1,.43.72,2,2,0,0,1,.14.83,2.18,2.18,0,0,1-.68,1.51Z"/><path class="cls-2" d="M490.31,421.25a27.17,27.17,0,0,0,6.89-2.09,27.76,27.76,0,0,0,6.11-3.8,8.44,8.44,0,0,1,5.46-2.08,19.61,19.61,0,0,0-1.36-2.71,20.36,20.36,0,0,0-1.73-2.48,20.78,20.78,0,0,0-2.09-2.21A21.63,21.63,0,0,0,501.2,404a22,22,0,0,0-2.63-1.5,20.58,20.58,0,0,0-2.82-1.1,20.14,20.14,0,0,0-3-.68,20.37,20.37,0,0,0-3-.23H475.12a20.19,20.19,0,0,0-3.72.34,19.43,19.43,0,0,0-3.6,1,19.71,19.71,0,0,0-3.36,1.64,20.56,20.56,0,0,0-3,2.23,20,20,0,0,0-2.55,2.74,20.81,20.81,0,0,0-2,3.15,21.38,21.38,0,0,0-1.41,3.47,20.85,20.85,0,0,0-.75,3.66l-1.86,15.41a5.38,5.38,0,0,0,0,1.06,6.29,6.29,0,0,0,.15,1.06,7,7,0,0,0,.35,1,7.17,7.17,0,0,0,.53.93,6.57,6.57,0,0,0,.7.8,5.94,5.94,0,0,0,.83.67,6.5,6.5,0,0,0,.94.5,6,6,0,0,0,1,.31,124,124,0,0,0,25.13,2.41c1.2,0,2.4,0,3.49-.11a51.43,51.43,0,0,1-2.84-11.91,8.27,8.27,0,0,1,0-1.65,8.1,8.1,0,0,1,.29-1.62,8.78,8.78,0,0,1,.58-1.55,9.56,9.56,0,0,1,.86-1.4,9,9,0,0,1,2.43-2.22,8.75,8.75,0,0,1,1.47-.73A9.91,9.91,0,0,1,490.31,421.25Z"/><path class="cls-2" d="M501.78,375.91c0,.64,0,1.28-.09,1.91s-.16,1.26-.28,1.89-.28,1.24-.46,1.85-.4,1.21-.65,1.8a18,18,0,0,1-.81,1.72,18.31,18.31,0,0,1-1,1.64,18.86,18.86,0,0,1-1.13,1.53c-.41.49-.83,1-1.28,1.41s-.93.88-1.42,1.29a18.86,18.86,0,0,1-1.53,1.13,17,17,0,0,1-1.64,1,18,18,0,0,1-1.72.81c-.59.24-1.19.46-1.8.64s-1.23.34-1.85.47-1.25.22-1.89.28-1.27.09-1.9.09-1.28,0-1.91-.09-1.26-.16-1.89-.28-1.24-.28-1.85-.47-1.21-.4-1.8-.64a18,18,0,0,1-1.72-.81,18.31,18.31,0,0,1-1.64-1A18.86,18.86,0,0,1,470,391a21.52,21.52,0,0,1-2.7-2.7,18.86,18.86,0,0,1-1.13-1.53,18.31,18.31,0,0,1-1-1.64c-.29-.56-.57-1.13-.81-1.72a16.76,16.76,0,0,1-.64-1.8c-.19-.61-.34-1.23-.47-1.85s-.21-1.26-.28-1.89-.09-1.27-.09-1.91,0-1.27.09-1.9.16-1.26.28-1.89.28-1.24.47-1.85a16.76,16.76,0,0,1,.64-1.8c.24-.59.52-1.16.81-1.72a17,17,0,0,1,1-1.64,18.86,18.86,0,0,1,1.13-1.53c.41-.49.83-1,1.29-1.42s.92-.87,1.41-1.28a18.86,18.86,0,0,1,1.53-1.13,18.31,18.31,0,0,1,1.64-1,18,18,0,0,1,1.72-.81c.59-.25,1.19-.46,1.8-.65s1.23-.34,1.85-.46a17.59,17.59,0,0,1,1.89-.28c.63-.06,1.27-.09,1.91-.09s1.27,0,1.9.09a17.22,17.22,0,0,1,1.89.28c.62.12,1.24.28,1.85.46s1.21.4,1.8.65a18,18,0,0,1,1.72.81,17,17,0,0,1,1.64,1,18.86,18.86,0,0,1,1.53,1.13c.49.41,1,.83,1.42,1.28s.87.93,1.28,1.42a18.86,18.86,0,0,1,1.13,1.53,17,17,0,0,1,1,1.64,18,18,0,0,1,.81,1.72c.25.59.46,1.19.65,1.8s.34,1.23.46,1.85.21,1.26.28,1.89S501.78,375.28,501.78,375.91Z"/><path class="cls-2" d="M526.36,427.81a36.06,36.06,0,0,1-16.06-7.32,1.85,1.85,0,0,0-.68-.42,2,2,0,0,0-.79-.15,1.92,1.92,0,0,0-.79.15,1.85,1.85,0,0,0-.68.42,33.77,33.77,0,0,1-16.07,7.32,2.42,2.42,0,0,0-.74.36,2.28,2.28,0,0,0-.58.58,2.57,2.57,0,0,0-.35.75,2.27,2.27,0,0,0-.07.82c2.18,19,14.31,27.43,18.13,29.61a2.23,2.23,0,0,0,2.3,0c3.82-2.18,15.95-10.71,18.13-29.61a1.92,1.92,0,0,0,0-.86,2,2,0,0,0-.33-.78,2.05,2.05,0,0,0-.62-.59A2,2,0,0,0,526.36,427.81Zm-9.83,9.29-7.43,7.54a2.12,2.12,0,0,1-2.36.48,2.24,2.24,0,0,1-.7-.48l-4.7-4.7a2.17,2.17,0,0,1-.6-.71,2.09,2.09,0,0,1-.26-.89,2,2,0,0,1,.13-.91,2.26,2.26,0,0,1,.5-.79,2.31,2.31,0,0,1,.78-.5,2.24,2.24,0,0,1,.92-.13,2.09,2.09,0,0,1,.89.26,2.18,2.18,0,0,1,.71.61l3.16,3.17,6-6a2,2,0,0,1,.7-.49,2.12,2.12,0,0,1,.83-.17,2.21,2.21,0,0,1,.84.17,2.07,2.07,0,0,1,.69.49,2.22,2.22,0,0,1,.44.72,2.13,2.13,0,0,1,.13.83,2.09,2.09,0,0,1-.19.82A2.23,2.23,0,0,1,516.53,437.1Z"/><path class="cls-2" d="M250.29,329.08a27.71,27.71,0,0,0,13-5.9,8.58,8.58,0,0,1,5.46-2.08,19.61,19.61,0,0,0-1.36-2.71,19.38,19.38,0,0,0-1.74-2.48,19.68,19.68,0,0,0-2.08-2.2,19.48,19.48,0,0,0-2.39-1.87,20.19,20.19,0,0,0-5.46-2.61,21.37,21.37,0,0,0-2.95-.68,20.4,20.4,0,0,0-3-.23H235.1a20.19,20.19,0,0,0-3.72.34,20.42,20.42,0,0,0-7,2.66,19.78,19.78,0,0,0-3,2.23,19.37,19.37,0,0,0-2.55,2.73,20.81,20.81,0,0,0-2,3.15,21.75,21.75,0,0,0-1.41,3.47,20.8,20.8,0,0,0-.76,3.67L212.82,342a5.4,5.4,0,0,0,.11,2.12,5.93,5.93,0,0,0,.35,1,6.05,6.05,0,0,0,.53.93,5.92,5.92,0,0,0,.69.8,5.37,5.37,0,0,0,.84.67,4.7,4.7,0,0,0,.94.5,5.22,5.22,0,0,0,1,.31,123.85,123.85,0,0,0,25.12,2.41c1.2,0,2.41,0,3.5-.11a51.31,51.31,0,0,1-2.84-11.91,9.1,9.1,0,0,1,0-1.65,9.82,9.82,0,0,1,.29-1.62,9.58,9.58,0,0,1,.59-1.54,8.43,8.43,0,0,1,.86-1.41,8.55,8.55,0,0,1,1.11-1.22,9,9,0,0,1,1.31-1,9.74,9.74,0,0,1,1.48-.74A8.71,8.71,0,0,1,250.29,329.08Z"/><path class="cls-2" d="M261.76,283.74c0,.64,0,1.27-.09,1.9s-.16,1.27-.28,1.89-.28,1.24-.47,1.85-.4,1.21-.64,1.8a17,17,0,0,1-.82,1.73c-.3.55-.62,1.1-1,1.63a18.86,18.86,0,0,1-1.13,1.53,17.38,17.38,0,0,1-1.29,1.42,19.71,19.71,0,0,1-2.94,2.42c-.53.35-1.08.68-1.64,1a21.3,21.3,0,0,1-3.52,1.46c-.61.18-1.23.34-1.85.46s-1.26.22-1.89.28-1.27.09-1.91.09-1.27,0-1.9-.09-1.27-.16-1.89-.28-1.24-.28-1.85-.46-1.21-.4-1.8-.65-1.16-.51-1.73-.81-1.1-.63-1.63-1a19,19,0,0,1-1.53-1.14,18.46,18.46,0,0,1-2.7-2.7q-.6-.74-1.14-1.53c-.35-.53-.68-1.08-1-1.63s-.57-1.14-.81-1.73-.46-1.19-.65-1.8-.34-1.22-.46-1.85-.22-1.25-.28-1.89-.09-1.26-.09-1.9,0-1.28.09-1.91.16-1.26.28-1.88.28-1.25.46-1.86a21.3,21.3,0,0,1,1.46-3.52c.3-.56.63-1.11,1-1.64s.74-1,1.14-1.53.83-1,1.28-1.42.92-.87,1.42-1.28a18.86,18.86,0,0,1,1.53-1.13c.53-.36,1.08-.68,1.63-1s1.14-.57,1.73-.82,1.19-.46,1.8-.64,1.22-.34,1.85-.47,1.25-.21,1.89-.28,1.27-.09,1.9-.09,1.28,0,1.91.09,1.26.16,1.89.28,1.24.28,1.85.47a18.1,18.1,0,0,1,1.79.64c.59.25,1.17.52,1.73.82a18.2,18.2,0,0,1,1.64,1,18.86,18.86,0,0,1,1.53,1.13c.49.41,1,.84,1.41,1.28s.88.93,1.29,1.42a18.86,18.86,0,0,1,1.13,1.53,18.2,18.2,0,0,1,1,1.64,16.07,16.07,0,0,1,.82,1.73,18.1,18.1,0,0,1,.64,1.79c.19.61.34,1.23.47,1.86s.22,1.25.28,1.88S261.76,283.1,261.76,283.74Z"/><path class="cls-2" d="M286.34,335.63a36.06,36.06,0,0,1-16.06-7.32,2.27,2.27,0,0,0-.68-.42,2.17,2.17,0,0,0-.79-.15,2.13,2.13,0,0,0-.79.15,2.32,2.32,0,0,0-.69.42,33.68,33.68,0,0,1-16.06,7.32,2.54,2.54,0,0,0-.74.36,2.32,2.32,0,0,0-.58.59,2.19,2.19,0,0,0-.35.74,2.54,2.54,0,0,0-.08.82c2.19,19,14.32,27.43,18.14,29.61a2.15,2.15,0,0,0,2.29,0c3.83-2.18,16-10.7,18.14-29.61a2.05,2.05,0,0,0-.31-1.64,2.09,2.09,0,0,0-.63-.59A2.11,2.11,0,0,0,286.34,335.63Zm-9.83,9.29-7.43,7.54a2.16,2.16,0,0,1-.7.49,2.11,2.11,0,0,1-1.66,0,2.16,2.16,0,0,1-.7-.49l-4.7-4.7a2.29,2.29,0,0,1-.61-.7,2.34,2.34,0,0,1-.26-.89,2.19,2.19,0,0,1,.14-.92,2,2,0,0,1,.5-.78,2,2,0,0,1,.78-.51,2.39,2.39,0,0,1,.92-.13,2.16,2.16,0,0,1,1.59.87l3.17,3.17,6-6a2,2,0,0,1,.7-.48,2,2,0,0,1,1.66,0,2,2,0,0,1,.7.48,2,2,0,0,1,.43.72,2,2,0,0,1,.14.83,2.29,2.29,0,0,1-.19.82A2.41,2.41,0,0,1,276.51,344.92Z"/><path class="cls-2" d="M393.4,116.07a27.71,27.71,0,0,0,13-5.9,8.26,8.26,0,0,1,2.55-1.52,8.55,8.55,0,0,1,2.92-.56,21.44,21.44,0,0,0-1.36-2.71,20.43,20.43,0,0,0-1.74-2.48,20.73,20.73,0,0,0-2.09-2.2,21.6,21.6,0,0,0-2.38-1.88,23,23,0,0,0-2.64-1.5,22,22,0,0,0-2.82-1.1,21.47,21.47,0,0,0-3-.67,20.38,20.38,0,0,0-3-.24H378.22a21.12,21.12,0,0,0-3.73.34,20.48,20.48,0,0,0-3.6,1,20.93,20.93,0,0,0-3.36,1.65,20.38,20.38,0,0,0-3,2.23,20.4,20.4,0,0,0-6,9.35,20,20,0,0,0-.76,3.66L355.93,129a5.38,5.38,0,0,0,0,1.06,6.29,6.29,0,0,0,.15,1.06,7.09,7.09,0,0,0,.35,1,5.68,5.68,0,0,0,.54.92,5.28,5.28,0,0,0,.69.81,5.23,5.23,0,0,0,.83.66,5.65,5.65,0,0,0,.94.5,6,6,0,0,0,1,.32,124.66,124.66,0,0,0,25.13,2.4c1.2,0,2.4,0,3.49-.11a51.31,51.31,0,0,1-2.84-11.91,9,9,0,0,1,0-1.64,8.82,8.82,0,0,1,.28-1.63,9.58,9.58,0,0,1,.59-1.54,10.22,10.22,0,0,1,.86-1.41,10.71,10.71,0,0,1,1.11-1.22,9.09,9.09,0,0,1,1.32-1,8.14,8.14,0,0,1,1.48-.73A8.64,8.64,0,0,1,393.4,116.07Z"/><path class="cls-2" d="M404.88,70.73c0,.64,0,1.27-.1,1.91s-.16,1.26-.28,1.88-.28,1.25-.46,1.86-.4,1.2-.65,1.79a16.91,16.91,0,0,1-.81,1.72c-.3.57-.63,1.11-1,1.64s-.74,1-1.14,1.54-.83,1-1.28,1.41a18.93,18.93,0,0,1-1.41,1.28c-.5.4-1,.78-1.54,1.14s-1.07.68-1.64,1-1.13.57-1.72.82-1.19.45-1.8.64-1.22.34-1.85.46a16.87,16.87,0,0,1-1.89.28c-.63.06-1.27.1-1.9.1s-1.27,0-1.91-.1a17.59,17.59,0,0,1-1.89-.28c-.62-.12-1.24-.28-1.85-.46s-1.21-.4-1.8-.64-1.16-.52-1.72-.82-1.11-.63-1.64-1-1-.74-1.53-1.14a17.13,17.13,0,0,1-1.41-1.28q-.68-.67-1.29-1.41c-.4-.5-.78-1-1.13-1.54a20.36,20.36,0,0,1-1.8-3.36c-.24-.59-.46-1.19-.64-1.79a16.83,16.83,0,0,1-.46-1.86c-.13-.62-.22-1.25-.29-1.88s-.09-1.27-.09-1.91,0-1.27.09-1.91.16-1.26.29-1.89a17.23,17.23,0,0,1,.46-1.85c.18-.61.4-1.2.64-1.79a18.23,18.23,0,0,1,.82-1.73,16.75,16.75,0,0,1,1-1.63,17.41,17.41,0,0,1,1.13-1.54q.62-.73,1.29-1.41a17.13,17.13,0,0,1,1.41-1.28,16.86,16.86,0,0,1,1.53-1.14c.53-.35,1.08-.68,1.64-1s1.14-.58,1.72-.82,1.19-.46,1.8-.64a17.23,17.23,0,0,1,1.85-.46,20.18,20.18,0,0,1,3.8-.38,17.28,17.28,0,0,1,1.9.1,16.87,16.87,0,0,1,1.89.28,16.66,16.66,0,0,1,1.85.46c.61.18,1.21.4,1.8.64a18.06,18.06,0,0,1,1.72.82c.57.3,1.11.63,1.64,1a18.53,18.53,0,0,1,1.54,1.14A18.93,18.93,0,0,1,399.18,57c.45.45.87.92,1.28,1.41s.78,1,1.14,1.54a19,19,0,0,1,1,1.63,18.15,18.15,0,0,1,.81,1.73c.25.59.46,1.18.65,1.79s.34,1.23.46,1.85.22,1.26.28,1.89S404.88,70.09,404.88,70.73Z"/><path class="cls-2" d="M429.46,122.62a36,36,0,0,1-16.07-7.32,2.16,2.16,0,0,0-.68-.42,2.09,2.09,0,0,0-.79-.15,2.13,2.13,0,0,0-.79.15,2.27,2.27,0,0,0-.68.42A34,34,0,0,1,402.9,120a33.34,33.34,0,0,1-8.51,2.58,2.6,2.6,0,0,0-.75.36,2.32,2.32,0,0,0-.58.59,2.57,2.57,0,0,0-.35.75,2.51,2.51,0,0,0-.07.82c2.18,19,14.31,27.42,18.13,29.61a2.22,2.22,0,0,0,1.15.32,2.24,2.24,0,0,0,1.15-.32c3.82-2.19,15.95-10.71,18.13-29.61a2.06,2.06,0,0,0-.31-1.65,2.05,2.05,0,0,0-.62-.59A2.11,2.11,0,0,0,429.46,122.62Zm-9.84,9.29-7.42,7.54a2.08,2.08,0,0,1-.7.48,2,2,0,0,1-1.67,0,2,2,0,0,1-.69-.48l-4.7-4.7a2,2,0,0,1-.61-.7,2.18,2.18,0,0,1-.26-.89,2.21,2.21,0,0,1,.13-.92,2.13,2.13,0,0,1,.5-.78,2.17,2.17,0,0,1,.78-.5,2.11,2.11,0,0,1,1.81.13,2.27,2.27,0,0,1,.71.6l3.16,3.17,6-6a2.08,2.08,0,0,1,.7-.48,2,2,0,0,1,.83-.17,2.09,2.09,0,0,1,1.53.65,2.06,2.06,0,0,1,.44.72,2.16,2.16,0,0,1,.13.83,2.09,2.09,0,0,1-.19.82A2.23,2.23,0,0,1,419.62,131.91Z"/><path class="cls-2" d="M559.25,308a27.45,27.45,0,0,0,13-5.9,8.67,8.67,0,0,1,2.55-1.52,8.53,8.53,0,0,1,2.91-.55,19.55,19.55,0,0,0-1.35-2.71,20.29,20.29,0,0,0-1.75-2.49,20.29,20.29,0,0,0-4.47-4.07,19,19,0,0,0-2.63-1.5,20.71,20.71,0,0,0-2.83-1.1,21.37,21.37,0,0,0-2.95-.68,21.84,21.84,0,0,0-3-.24H544.07a21.12,21.12,0,0,0-3.73.34,21.79,21.79,0,0,0-3.61,1,20.37,20.37,0,0,0-3.35,1.64,20,20,0,0,0-3,2.23,21.33,21.33,0,0,0-2.55,2.74,20.81,20.81,0,0,0-2,3.15,21.38,21.38,0,0,0-1.41,3.47,20.67,20.67,0,0,0-.75,3.66l-1.86,15.41a6.23,6.23,0,0,0,0,1.06,5.85,5.85,0,0,0,.51,2.06,5.62,5.62,0,0,0,1.23,1.73,5.41,5.41,0,0,0,.83.67,6.5,6.5,0,0,0,.94.5,6,6,0,0,0,1,.31,124,124,0,0,0,25.13,2.41c1.2,0,2.4,0,3.49-.11A51.43,51.43,0,0,1,552,317.59a9.1,9.1,0,0,1,0-1.65,8.89,8.89,0,0,1,.3-1.62,8.57,8.57,0,0,1,1.44-2.95,8.55,8.55,0,0,1,1.11-1.22,10,10,0,0,1,1.32-1,9.14,9.14,0,0,1,1.47-.73A9,9,0,0,1,559.25,308Z"/><g class="cls-9"><path class="cls-2" d="M570.72,262.63c0,.64,0,1.28-.09,1.91s-.16,1.26-.28,1.89-.28,1.24-.46,1.85-.41,1.21-.65,1.79a18.15,18.15,0,0,1-.81,1.73c-.31.56-.63,1.11-1,1.64s-.74,1-1.14,1.53-.83,1-1.28,1.42-.92.87-1.42,1.28a18.86,18.86,0,0,1-1.53,1.13c-.53.36-1.08.68-1.64,1s-1.14.57-1.72.81-1.19.46-1.8.64-1.22.34-1.85.47-1.25.22-1.89.28-1.27.09-1.9.09-1.28,0-1.91-.09-1.26-.16-1.89-.28-1.24-.28-1.85-.47-1.21-.4-1.8-.64-1.16-.51-1.72-.81-1.11-.63-1.64-1a18.86,18.86,0,0,1-1.53-1.13c-.49-.41-1-.83-1.42-1.28s-.87-.93-1.28-1.42a18.86,18.86,0,0,1-1.13-1.53c-.36-.53-.68-1.08-1-1.64a20.17,20.17,0,0,1-1.45-3.52c-.19-.61-.34-1.23-.47-1.85s-.22-1.25-.28-1.89-.09-1.27-.09-1.91,0-1.27.09-1.9.16-1.27.28-1.89.28-1.24.47-1.85.4-1.21.64-1.8.51-1.16.81-1.73.63-1.1,1-1.63a18.86,18.86,0,0,1,1.13-1.53c.41-.5.83-1,1.28-1.42s.93-.88,1.42-1.28,1-.78,1.53-1.14,1.08-.67,1.64-1,1.14-.57,1.72-.81,1.19-.46,1.8-.65,1.23-.34,1.85-.46,1.25-.22,1.89-.28,1.27-.09,1.91-.09,1.27,0,1.9.09,1.27.16,1.89.28,1.24.28,1.85.46,1.21.4,1.8.65,1.16.51,1.72.81,1.11.63,1.64,1,1,.74,1.53,1.14a17.27,17.27,0,0,1,1.42,1.28c.45.45.87.92,1.28,1.42s.78,1,1.14,1.53.67,1.08,1,1.63.57,1.14.81,1.73.46,1.19.65,1.8.33,1.22.46,1.85.22,1.25.28,1.89S570.72,262,570.72,262.63Z"/></g><path class="cls-2" d="M595.3,314.53a36.06,36.06,0,0,1-16.06-7.32,1.85,1.85,0,0,0-.68-.42,2.17,2.17,0,0,0-.79-.15,2.13,2.13,0,0,0-.79.15,2,2,0,0,0-.69.42,33.32,33.32,0,0,1-7.54,4.73,33.72,33.72,0,0,1-8.52,2.59,2.31,2.31,0,0,0-.74.36,2.66,2.66,0,0,0-.58.58,2.57,2.57,0,0,0-.35.75,2.28,2.28,0,0,0-.07.82c2.18,19,14.31,27.42,18.13,29.61a2.17,2.17,0,0,0,2.3,0c3.82-2.19,16-10.71,18.13-29.61a2.07,2.07,0,0,0,0-.86,2,2,0,0,0-.33-.79,2.18,2.18,0,0,0-.63-.58A2.11,2.11,0,0,0,595.3,314.53Zm-9.83,9.29L578,331.36a2.14,2.14,0,0,1-1.53.65,2.16,2.16,0,0,1-.83-.17,2.13,2.13,0,0,1-.7-.48l-4.69-4.7a2.18,2.18,0,0,1-.61-.71,2.2,2.2,0,0,1-.13-1.81,2.31,2.31,0,0,1,.5-.78,2.18,2.18,0,0,1,1.7-.63,2.13,2.13,0,0,1,.89.26,2,2,0,0,1,.7.61l3.17,3.17,6-6a2.16,2.16,0,0,1,.7-.49,2.11,2.11,0,0,1,1.66,0,2.16,2.16,0,0,1,.7.49,2.22,2.22,0,0,1,.44.72,2.21,2.21,0,0,1-.06,1.65A2.23,2.23,0,0,1,585.47,323.82Z"/><path class="cls-2" d="M351.7,441.85a27.45,27.45,0,0,0,13-5.9,8.34,8.34,0,0,1,2.55-1.52,8.26,8.26,0,0,1,2.91-.55,21.57,21.57,0,0,0-1.36-2.72,22.12,22.12,0,0,0-1.74-2.48,20.29,20.29,0,0,0-4.47-4.07,19.58,19.58,0,0,0-2.63-1.5,20.76,20.76,0,0,0-2.83-1.11,21.33,21.33,0,0,0-2.95-.67,22.09,22.09,0,0,0-3-.24H336.51a21.1,21.1,0,0,0-3.72.34,20.37,20.37,0,0,0-3.61,1,20.08,20.08,0,0,0-3.36,1.64,19.78,19.78,0,0,0-3,2.23,20.65,20.65,0,0,0-2.56,2.73,21.35,21.35,0,0,0-2,3.16,19.72,19.72,0,0,0-1.41,3.47,20.69,20.69,0,0,0-.76,3.66l-1.86,15.4a6.39,6.39,0,0,0,0,1.07,5.33,5.33,0,0,0,.16,1.05,6,6,0,0,0,.35,1,6.46,6.46,0,0,0,.53.92,6.7,6.7,0,0,0,.69.81,5.81,5.81,0,0,0,1.78,1.17,6.18,6.18,0,0,0,1,.31,124.08,124.08,0,0,0,25.13,2.4c1.2,0,2.4,0,3.5-.1a51.39,51.39,0,0,1-2.84-11.92,9,9,0,0,1,0-1.64,8.87,8.87,0,0,1,.29-1.62,9.34,9.34,0,0,1,.59-1.55,8.77,8.77,0,0,1,.86-1.4,8,8,0,0,1,1.11-1.22,8.41,8.41,0,0,1,1.31-1,8.85,8.85,0,0,1,1.48-.73A8.74,8.74,0,0,1,351.7,441.85Z"/><g class="cls-10"><path class="cls-2" d="M363.17,396.51a17.33,17.33,0,0,1-.1,1.91c-.06.63-.15,1.26-.27,1.88s-.28,1.25-.47,1.86a19.69,19.69,0,0,1-2.44,5.16,16.86,16.86,0,0,1-1.14,1.53,19.73,19.73,0,0,1-2.69,2.69,18.39,18.39,0,0,1-1.53,1.14,18.2,18.2,0,0,1-1.64,1c-.56.3-1.14.57-1.73.82s-1.18.46-1.79.64-1.23.34-1.85.47-1.26.21-1.89.28-1.27.09-1.91.09-1.27,0-1.9-.09-1.27-.16-1.89-.28-1.24-.29-1.85-.47-1.21-.4-1.8-.64-1.16-.52-1.73-.82a18,18,0,0,1-1.63-1,16.86,16.86,0,0,1-1.53-1.14,17.27,17.27,0,0,1-1.42-1.28,18.93,18.93,0,0,1-1.28-1.41q-.6-.74-1.14-1.53c-.35-.53-.68-1.08-1-1.64s-.57-1.14-.82-1.73-.45-1.18-.64-1.79-.34-1.23-.46-1.86a17,17,0,0,1-.28-1.88,20.21,20.21,0,0,1,0-3.81,16.87,16.87,0,0,1,.28-1.89c.12-.63.28-1.24.46-1.85s.4-1.21.64-1.8.52-1.16.82-1.73.63-1.1,1-1.63.74-1,1.14-1.53a18.46,18.46,0,0,1,2.7-2.7,19,19,0,0,1,1.53-1.14c.53-.35,1.07-.68,1.63-1s1.14-.57,1.73-.81,1.19-.46,1.8-.65,1.22-.34,1.85-.46a16.87,16.87,0,0,1,1.89-.28c.63-.06,1.27-.09,1.9-.09s1.28,0,1.91.09a17.59,17.59,0,0,1,1.89.28c.62.12,1.24.28,1.85.46s1.2.4,1.79.65a18.15,18.15,0,0,1,1.73.81c.56.3,1.11.63,1.64,1s1,.73,1.53,1.14a18.93,18.93,0,0,1,1.41,1.28,17.27,17.27,0,0,1,1.28,1.42,16.86,16.86,0,0,1,1.14,1.53,18,18,0,0,1,1,1.63c.3.57.58,1.14.82,1.73s.46,1.19.64,1.8.34,1.22.47,1.85.21,1.25.27,1.89A17.28,17.28,0,0,1,363.17,396.51Z"/></g><path class="cls-2" d="M387.75,448.41a36.06,36.06,0,0,1-16.06-7.32,2.12,2.12,0,0,0-.68-.43,2.18,2.18,0,0,0-.8-.14,2.13,2.13,0,0,0-1.47.57,33.68,33.68,0,0,1-16.06,7.32,2,2,0,0,0-.74.36,2.28,2.28,0,0,0-.58.58,2.34,2.34,0,0,0-.35.75,2.52,2.52,0,0,0-.08.82c2.19,19,14.32,27.42,18.14,29.61a2.21,2.21,0,0,0,2.29,0c3.83-2.19,15.95-10.71,18.14-29.61a2.07,2.07,0,0,0,0-.86,2.29,2.29,0,0,0-.33-.79,2.18,2.18,0,0,0-.63-.58A2,2,0,0,0,387.75,448.41Zm-9.83,9.29-7.43,7.53a2,2,0,0,1-.7.49,2.12,2.12,0,0,1-.83.17,2.21,2.21,0,0,1-.84-.17,2.07,2.07,0,0,1-.69-.49l-4.7-4.69a2.45,2.45,0,0,1-.61-.71,2.29,2.29,0,0,1-.26-.89A2.22,2.22,0,0,1,362,458a2.09,2.09,0,0,1,.5-.78,2.13,2.13,0,0,1,.78-.5,2.19,2.19,0,0,1,.92-.13,2.16,2.16,0,0,1,1.59.87l3.17,3.16,6-6a2.07,2.07,0,0,1,.69-.49,2.21,2.21,0,0,1,.84-.17,2.16,2.16,0,0,1,.83.17,2.11,2.11,0,0,1,.7.49,2,2,0,0,1,.43.72,2.1,2.1,0,0,1,.14.83,2.34,2.34,0,0,1-.19.82A2.41,2.41,0,0,1,377.92,457.7Z"/><path class="cls-11" d="M679.38,26.54a20,20,0,0,1-.1,2.05q-.1,1-.3,2c-.14.67-.3,1.33-.5,2s-.43,1.31-.69,1.94-.56,1.25-.88,1.86-.68,1.19-1,1.76-.79,1.12-1.23,1.65a19.85,19.85,0,0,1-1.38,1.53c-.48.48-1,.94-1.52,1.38s-1.08.84-1.65,1.22A18.24,18.24,0,0,1,668.32,45c-.6.32-1.22.62-1.85.88s-1.28.49-1.93.69a20.15,20.15,0,0,1-2,.5c-.67.13-1.34.23-2,.3a21.06,21.06,0,0,1-4.1,0c-.68-.07-1.36-.17-2-.3a20,20,0,0,1-2-.5c-.66-.2-1.3-.43-1.93-.69s-1.25-.56-1.86-.88-1.19-.68-1.76-1.06-1.12-.79-1.65-1.22-1-.9-1.52-1.38-.94-1-1.38-1.53-.84-1.08-1.22-1.65S640.34,37,640,36.42a19.66,19.66,0,0,1-.88-1.86,18.61,18.61,0,0,1-.69-1.94,20,20,0,0,1-.5-2,19.67,19.67,0,0,1-.31-2c-.06-.68-.1-1.36-.1-2.05s0-1.37.1-2.05a19.67,19.67,0,0,1,.31-2,21.52,21.52,0,0,1,1.19-3.93,19.66,19.66,0,0,1,.88-1.86c.32-.6.67-1.19,1.05-1.76s.79-1.12,1.22-1.65.9-1,1.38-1.52,1-1,1.52-1.39,1.08-.84,1.65-1.22,1.16-.73,1.76-1.06,1.22-.61,1.86-.88,1.27-.49,1.93-.69a20,20,0,0,1,2-.5c.67-.13,1.35-.23,2-.3a21.06,21.06,0,0,1,4.1,0c.69.07,1.36.17,2,.3a20.15,20.15,0,0,1,2,.5c.65.2,1.3.43,1.93.69s1.25.56,1.85.88a20.51,20.51,0,0,1,1.76,1.06c.57.38,1.12.79,1.65,1.22a20,20,0,0,1,1.52,1.39,18,18,0,0,1,1.38,1.52c.44.53.84,1.08,1.23,1.65s.73,1.16,1,1.76.62,1.23.88,1.86.49,1.28.69,1.94.36,1.32.5,2,.23,1.35.3,2A20.1,20.1,0,0,1,679.38,26.54Z"/><path class="cls-11" d="M675.2,53.08H641.73c-.55,0-1.1,0-1.64.08s-1.09.14-1.63.25-1.06.24-1.59.39-1,.35-1.54.56a14.48,14.48,0,0,0-1.49.71c-.48.25-1,.54-1.41.84a15.39,15.39,0,0,0-1.31,1c-.42.35-.83.72-1.22,1.11a14,14,0,0,0-1.1,1.21,15.68,15.68,0,0,0-1,1.33A14.17,14.17,0,0,0,627,62a14.33,14.33,0,0,0-.71,1.48c-.21.51-.39,1-.55,1.55s-.29,1.06-.4,1.59-.19,1.08-.25,1.63-.07,1.09-.08,1.64V81a2.84,2.84,0,0,0,.22,1.07,2.73,2.73,0,0,0,.6.9,2.87,2.87,0,0,0,.9.61,2.83,2.83,0,0,0,1.07.21h61.36a2.8,2.8,0,0,0,1.07-.21,2.76,2.76,0,0,0,.9-.61,2.61,2.61,0,0,0,.61-.9,2.83,2.83,0,0,0,.21-1.07V69.84c0-.55,0-1.09-.08-1.64s-.14-1.09-.24-1.63-.24-1.07-.4-1.59-.35-1-.56-1.55-.44-1-.7-1.48a16.38,16.38,0,0,0-.84-1.41c-.31-.46-.63-.9-1-1.33a19.07,19.07,0,0,0-2.32-2.32,15.54,15.54,0,0,0-1.32-1,14.17,14.17,0,0,0-1.41-.84,13.4,13.4,0,0,0-1.48-.71c-.51-.21-1-.4-1.55-.56s-1-.29-1.59-.39-1.08-.19-1.62-.25S675.75,53.08,675.2,53.08Z"/><path class="cls-11" d="M168.3,513.79c0,.68,0,1.37-.1,2.05a20.52,20.52,0,0,1-.31,2,20,20,0,0,1-.5,2,18.44,18.44,0,0,1-.69,1.93,17.57,17.57,0,0,1-.88,1.86,19.62,19.62,0,0,1-1,1.77c-.38.57-.79,1.12-1.22,1.65s-.9,1-1.38,1.53-1,.94-1.52,1.37a19.62,19.62,0,0,1-1.65,1.23c-.57.38-1.16.73-1.76,1.06s-1.22.61-1.86.87a18.49,18.49,0,0,1-1.93.7c-.66.2-1.32.36-2,.5s-1.35.23-2,.3a21.06,21.06,0,0,1-4.1,0c-.69-.07-1.36-.17-2-.3s-1.34-.3-2-.5a20.31,20.31,0,0,1-1.93-.7c-.63-.26-1.25-.55-1.85-.87a20.51,20.51,0,0,1-1.76-1.06,22.08,22.08,0,0,1-3.17-2.6,19.85,19.85,0,0,1-1.38-1.53c-.44-.53-.84-1.08-1.23-1.65s-.73-1.16-1-1.77a19.8,19.8,0,0,1-.88-1.86c-.26-.63-.49-1.27-.69-1.93s-.36-1.32-.5-2-.23-1.36-.3-2a21.17,21.17,0,0,1,0-4.11c.07-.68.17-1.35.3-2s.3-1.34.5-2,.43-1.31.69-1.94.56-1.25.88-1.86.68-1.19,1-1.76.79-1.12,1.23-1.65a18.15,18.15,0,0,1,1.38-1.53c.48-.48,1-.94,1.52-1.38s1.08-.84,1.65-1.22a16.42,16.42,0,0,1,1.76-1.06,18.4,18.4,0,0,1,1.85-.88c.64-.26,1.28-.49,1.93-.69a20.94,20.94,0,0,1,4-.8,20.82,20.82,0,0,1,8.12.8c.66.2,1.3.43,1.93.69a20.53,20.53,0,0,1,3.62,1.94c.57.38,1.12.79,1.65,1.22s1,.9,1.52,1.38.94,1,1.38,1.53.84,1.08,1.22,1.65a19.45,19.45,0,0,1,1,1.76,19.66,19.66,0,0,1,.88,1.86,18.61,18.61,0,0,1,.69,1.94,19.3,19.3,0,0,1,.5,2,20.33,20.33,0,0,1,.31,2C168.26,512.42,168.3,513.1,168.3,513.79Z"/><path class="cls-11" d="M164.11,540.33H130.64c-.55,0-1.09,0-1.64.08s-1.08.14-1.62.24-1.07.24-1.59.4-1,.35-1.55.56-1,.44-1.48.7a17.12,17.12,0,0,0-2.73,1.83c-.42.35-.83.72-1.21,1.1s-.76.8-1.11,1.22-.67.86-1,1.32-.58.93-.84,1.41-.49,1-.7,1.49a15.83,15.83,0,0,0-.56,1.55c-.16.52-.29,1-.4,1.59s-.18,1.08-.24,1.63-.08,1.09-.08,1.64v11.18a2.75,2.75,0,0,0,.21,1.06,2.56,2.56,0,0,0,.61.91,2.73,2.73,0,0,0,.9.6,2.63,2.63,0,0,0,1.07.22h61.36a2.55,2.55,0,0,0,1.06-.22,2.77,2.77,0,0,0,.91-.6,2.67,2.67,0,0,0,.6-.91,2.58,2.58,0,0,0,.22-1.06V557.09c0-.55,0-1.1-.08-1.64s-.14-1.09-.25-1.63-.24-1.07-.4-1.59a15.79,15.79,0,0,0-.55-1.55c-.21-.51-.45-1-.7-1.49s-.55-1-.85-1.41-.63-.89-1-1.32a15.73,15.73,0,0,0-1.1-1.22c-.39-.38-.79-.75-1.22-1.1a15.39,15.39,0,0,0-1.31-1c-.46-.31-.93-.59-1.41-.85a15.58,15.58,0,0,0-1.49-.7c-.5-.21-1-.4-1.54-.56s-1.06-.29-1.59-.4-1.08-.19-1.63-.24S164.66,540.33,164.11,540.33Z"/><path class="cls-11" d="M649.61,513.79a20.1,20.1,0,0,1-.1,2.05q-.1,1-.3,2c-.14.67-.3,1.33-.5,2s-.43,1.3-.69,1.93-.56,1.26-.88,1.86-.68,1.2-1,1.77-.79,1.12-1.23,1.65A19.88,19.88,0,0,1,642,530a19.62,19.62,0,0,1-1.65,1.23c-.57.38-1.15.73-1.76,1.06s-1.22.61-1.85.87a20.31,20.31,0,0,1-1.93.7c-.66.2-1.32.36-2,.5s-1.34.23-2,.3a21.06,21.06,0,0,1-4.1,0c-.68-.07-1.35-.17-2-.3s-1.33-.3-2-.5a18.49,18.49,0,0,1-1.93-.7c-.64-.26-1.25-.55-1.86-.87s-1.19-.68-1.76-1.06a19.62,19.62,0,0,1-1.65-1.23c-.53-.43-1-.89-1.52-1.37s-.94-1-1.38-1.53-.84-1.08-1.22-1.65a19.62,19.62,0,0,1-1-1.77,17.57,17.57,0,0,1-.88-1.86c-.26-.63-.49-1.27-.69-1.93a20,20,0,0,1-.5-2,17.92,17.92,0,0,1-.3-2,19.25,19.25,0,0,1,0-4.11,17.75,17.75,0,0,1,.3-2,19.3,19.3,0,0,1,.5-2c.2-.66.43-1.31.69-1.94a19.66,19.66,0,0,1,.88-1.86,19.45,19.45,0,0,1,1-1.76c.38-.57.79-1.12,1.22-1.65s.9-1,1.38-1.53,1-.94,1.52-1.38,1.08-.84,1.65-1.22a20.53,20.53,0,0,1,3.62-1.94c.63-.26,1.27-.49,1.93-.69a20,20,0,0,1,2-.5,21,21,0,0,1,4.08-.4,20,20,0,0,1,2,.1,20.94,20.94,0,0,1,4,.8c.65.2,1.29.43,1.93.69a18.4,18.4,0,0,1,1.85.88,17.47,17.47,0,0,1,1.76,1.06c.57.38,1.12.79,1.65,1.22s1,.9,1.52,1.38a18.15,18.15,0,0,1,1.38,1.53c.44.53.84,1.08,1.23,1.65s.73,1.15,1,1.76.61,1.23.88,1.86.49,1.28.69,1.94.36,1.32.5,2,.23,1.35.3,2A20.29,20.29,0,0,1,649.61,513.79Z"/><path class="cls-11" d="M645.43,540.33H612c-.55,0-1.1,0-1.64.08s-1.09.14-1.62.24-1.08.24-1.6.4-1,.35-1.54.56a15.58,15.58,0,0,0-1.49.7c-.48.26-1,.54-1.41.85a15.39,15.39,0,0,0-1.31,1c-.43.35-.83.72-1.22,1.1s-.75.8-1.1,1.22-.67.86-1,1.32-.59.93-.85,1.41-.49,1-.7,1.49a15.79,15.79,0,0,0-.55,1.55c-.16.52-.29,1-.4,1.59s-.19,1.08-.25,1.63-.08,1.09-.08,1.64v11.18a2.58,2.58,0,0,0,.22,1.06,2.71,2.71,0,0,0,1.51,1.51,2.58,2.58,0,0,0,1.06.22h61.36a2.63,2.63,0,0,0,1.07-.22,2.73,2.73,0,0,0,.9-.6,2.56,2.56,0,0,0,.61-.91,2.75,2.75,0,0,0,.21-1.06V557.09c0-.55,0-1.1-.08-1.64s-.13-1.09-.24-1.63-.25-1.07-.4-1.59a15.83,15.83,0,0,0-.56-1.55c-.21-.51-.44-1-.7-1.49s-.54-1-.84-1.41-.64-.89-1-1.32-.72-.83-1.11-1.22-.79-.75-1.21-1.1a17.12,17.12,0,0,0-2.73-1.83c-.48-.26-1-.49-1.48-.7s-1-.4-1.55-.56-1-.29-1.59-.4-1.08-.19-1.62-.24S646,540.33,645.43,540.33Z"/><path class="cls-11" d="M78.72,390.31a20.29,20.29,0,0,1-.1,2.06c-.07.68-.17,1.36-.3,2s-.3,1.34-.5,2-.43,1.31-.69,1.94-.56,1.26-.88,1.86-.68,1.19-1,1.76-.79,1.12-1.23,1.66a19.71,19.71,0,0,1-1.38,1.52c-.48.48-1,.94-1.52,1.38a21.72,21.72,0,0,1-3.41,2.28,17.57,17.57,0,0,1-1.86.88q-.94.39-1.92.69a20.15,20.15,0,0,1-2,.5,17.12,17.12,0,0,1-2,.3,19.16,19.16,0,0,1-4.1,0,17.43,17.43,0,0,1-2-.3,20,20,0,0,1-2-.5c-.66-.2-1.3-.43-1.93-.69a20.53,20.53,0,0,1-3.62-1.94,17.55,17.55,0,0,1-1.65-1.22c-.53-.44-1-.9-1.52-1.38s-.94-1-1.38-1.52-.84-1.09-1.22-1.66a19.45,19.45,0,0,1-1-1.76,18.56,18.56,0,0,1-.88-1.86,16.56,16.56,0,0,1-.69-1.94,19.3,19.3,0,0,1-.5-2,19.89,19.89,0,0,1-.31-2c-.06-.69-.1-1.37-.1-2.06s0-1.37.1-2.05a19.89,19.89,0,0,1,.31-2,19.48,19.48,0,0,1,.5-2,16.41,16.41,0,0,1,.69-1.93,17.57,17.57,0,0,1,.88-1.86,19.62,19.62,0,0,1,1-1.77c.38-.57.79-1.12,1.22-1.65s.9-1,1.38-1.52a21.29,21.29,0,0,1,3.17-2.61c.57-.38,1.16-.73,1.76-1.05A18.56,18.56,0,0,1,49.8,371c.63-.26,1.27-.5,1.93-.7s1.32-.36,2-.49a19.89,19.89,0,0,1,2-.31,21.06,21.06,0,0,1,4.1,0,19.48,19.48,0,0,1,2,.31c.67.13,1.34.3,2,.49s1.29.44,1.92.7a17.57,17.57,0,0,1,1.86.88,20,20,0,0,1,3.41,2.28A21.29,21.29,0,0,1,74,377c.44.53.84,1.08,1.23,1.65s.73,1.16,1,1.77.61,1.22.88,1.86.49,1.27.69,1.93.36,1.32.5,2,.23,1.35.3,2A20.1,20.1,0,0,1,78.72,390.31Z"/><path class="cls-11" d="M74.54,416.86H41.07a16.89,16.89,0,0,0-3.27.32c-.53.11-1.07.24-1.59.4s-1,.35-1.54.56a13.48,13.48,0,0,0-1.49.7q-.72.39-1.41.84c-.45.31-.89.64-1.31,1a16.06,16.06,0,0,0-1.22,1.11,17.29,17.29,0,0,0-2.08,2.54c-.3.46-.59.92-.85,1.41s-.49,1-.7,1.48-.39,1-.55,1.55-.29,1.06-.4,1.6-.19,1.08-.25,1.62-.08,1.1-.08,1.65v11.17a2.63,2.63,0,0,0,.22,1.07,2.88,2.88,0,0,0,.6.91,2.73,2.73,0,0,0,.9.6,2.81,2.81,0,0,0,1.07.22H88.48a2.81,2.81,0,0,0,1.07-.22,2.73,2.73,0,0,0,.9-.6,2.91,2.91,0,0,0,.61-.91,2.8,2.8,0,0,0,.21-1.07V433.62c0-.55,0-1.1-.08-1.65s-.14-1.08-.24-1.62-.25-1.07-.4-1.6-.35-1-.56-1.55-.44-1-.7-1.48-.54-1-.84-1.41a16.22,16.22,0,0,0-1-1.32,14.08,14.08,0,0,0-1.1-1.22,15.91,15.91,0,0,0-1.21-1.11c-.43-.34-.86-.67-1.32-1s-.93-.58-1.41-.84a14.24,14.24,0,0,0-1.48-.7c-.51-.21-1-.4-1.55-.56s-1-.29-1.59-.4a16.68,16.68,0,0,0-3.26-.32Z"/><path class="cls-11" d="M54.39,217.87a20.1,20.1,0,0,1-.1,2c-.07.69-.17,1.36-.3,2s-.3,1.33-.5,2-.43,1.3-.69,1.94-.56,1.25-.88,1.86-.68,1.19-1.06,1.76-.79,1.12-1.22,1.65a21.29,21.29,0,0,1-2.9,2.9,19.62,19.62,0,0,1-1.65,1.23c-.57.38-1.16.73-1.76,1.06s-1.22.61-1.85.88-1.28.49-1.94.69a19.3,19.3,0,0,1-2,.5c-.67.13-1.35.23-2,.3a21.06,21.06,0,0,1-4.1,0c-.68-.07-1.36-.17-2-.3a19.3,19.3,0,0,1-2-.5c-.66-.2-1.3-.43-1.94-.69s-1.25-.56-1.85-.88-1.19-.68-1.76-1.06a19.62,19.62,0,0,1-1.65-1.23,18,18,0,0,1-1.52-1.38,19.91,19.91,0,0,1-1.38-1.52c-.43-.53-.84-1.08-1.22-1.65s-.74-1.16-1.06-1.76-.61-1.23-.88-1.86-.49-1.28-.69-1.94-.36-1.32-.5-2-.23-1.35-.3-2-.1-1.37-.1-2,0-1.37.1-2.06.17-1.36.3-2,.3-1.34.5-2,.43-1.31.69-1.94.56-1.25.88-1.86.68-1.19,1.06-1.76.79-1.12,1.22-1.66.9-1,1.38-1.52,1-.94,1.52-1.38a21.72,21.72,0,0,1,3.41-2.28c.6-.32,1.22-.62,1.85-.88s1.28-.49,1.94-.69a19.3,19.3,0,0,1,2-.5,17.43,17.43,0,0,1,2-.3,19.16,19.16,0,0,1,4.1,0,17.43,17.43,0,0,1,2,.3,19.3,19.3,0,0,1,2,.5c.66.2,1.3.43,1.94.69s1.25.56,1.85.88,1.19.68,1.76,1.06a19.5,19.5,0,0,1,1.65,1.22c.53.44,1,.9,1.52,1.38s1,1,1.38,1.52.84,1.09,1.22,1.66.74,1.16,1.06,1.76.62,1.22.88,1.86.49,1.28.69,1.94.36,1.32.5,2,.23,1.35.3,2A20.29,20.29,0,0,1,54.39,217.87Z"/><path class="cls-11" d="M50.2,244.41H16.73c-.54,0-1.09,0-1.63.08a14.89,14.89,0,0,0-1.63.24c-.53.11-1.06.24-1.59.4s-1,.35-1.54.56-1,.44-1.49.7a15.35,15.35,0,0,0-1.4.85,15.68,15.68,0,0,0-1.33,1c-.42.35-.82.71-1.21,1.1s-.76.8-1.11,1.22-.67.87-1,1.32-.59.93-.85,1.41-.49,1-.7,1.49-.39,1-.55,1.54A17.55,17.55,0,0,0,0,261.17v11.17a2.8,2.8,0,0,0,.21,1.07,3,3,0,0,0,.61.91,2.76,2.76,0,0,0,.9.61,2.83,2.83,0,0,0,1.07.21H64.15a2.8,2.8,0,0,0,1.07-.21,2.76,2.76,0,0,0,.9-.61,2.77,2.77,0,0,0,.82-2V261.17c0-.55,0-1.1-.08-1.64s-.14-1.09-.25-1.63a12.9,12.9,0,0,0-.4-1.6c-.16-.52-.34-1-.55-1.54s-.45-1-.7-1.49-.54-1-.85-1.41-.63-.9-1-1.32-.72-.83-1.11-1.22-.79-.75-1.21-1.1-.87-.68-1.32-1-.93-.59-1.41-.85-1-.49-1.48-.7-1-.4-1.55-.56-1.06-.29-1.59-.4a14.89,14.89,0,0,0-1.63-.24C51.3,244.44,50.75,244.41,50.2,244.41Z"/><path class="cls-11" d="M99.18,39.91A20.11,20.11,0,0,1,99.07,42a17.43,17.43,0,0,1-.3,2,19.44,19.44,0,0,1-.49,2c-.2.65-.43,1.3-.69,1.93s-.56,1.26-.88,1.86S96,51,95.65,51.55s-.79,1.12-1.22,1.65-.89,1-1.38,1.52a18,18,0,0,1-1.52,1.38,19.62,19.62,0,0,1-1.65,1.23c-.57.38-1.16.73-1.76,1.05a18.4,18.4,0,0,1-1.85.88,19.53,19.53,0,0,1-1.94.7c-.65.2-1.32.36-2,.5s-1.35.23-2,.3-1.36.1-2,.1-1.37,0-2.05-.1-1.36-.17-2-.3-1.34-.3-2-.5a19.53,19.53,0,0,1-1.94-.7,18.4,18.4,0,0,1-1.85-.88A20,20,0,0,1,65,56.1a18,18,0,0,1-1.52-1.38,19.71,19.71,0,0,1-1.38-1.52c-.43-.53-.84-1.08-1.22-1.65a17.62,17.62,0,0,1-1.06-1.77c-.32-.6-.61-1.22-.88-1.86s-.49-1.28-.69-1.93-.36-1.32-.5-2-.23-1.35-.3-2-.1-1.37-.1-2.05,0-1.37.1-2.06.17-1.36.3-2,.3-1.34.5-2,.43-1.3.69-1.93.56-1.26.88-1.86a17.47,17.47,0,0,1,1.06-1.76c.38-.57.79-1.13,1.22-1.66a18,18,0,0,1,1.38-1.52A19.91,19.91,0,0,1,65,23.71c.53-.44,1.08-.84,1.65-1.23a19.45,19.45,0,0,1,1.76-1.05,18.4,18.4,0,0,1,1.85-.88,21.52,21.52,0,0,1,3.93-1.19,19.89,19.89,0,0,1,2-.31c.68-.06,1.36-.1,2.05-.1s1.37,0,2,.1a19.89,19.89,0,0,1,2,.31,21.52,21.52,0,0,1,3.93,1.19,18.4,18.4,0,0,1,1.85.88c.6.32,1.19.67,1.76,1.05s1.12.79,1.65,1.23a21.29,21.29,0,0,1,2.9,2.9c.43.53.84,1.09,1.22,1.66s.73,1.15,1.06,1.76.61,1.22.88,1.86.49,1.28.69,1.93a19.44,19.44,0,0,1,.49,2,17.43,17.43,0,0,1,.3,2A20.31,20.31,0,0,1,99.18,39.91Z"/><path class="cls-11" d="M95,66.45H61.52a16.68,16.68,0,0,0-3.26.32c-.54.11-1.07.24-1.59.4s-1,.35-1.55.56-1,.44-1.48.7-1,.54-1.41.85-.89.63-1.32,1-.82.72-1.21,1.11-.76.8-1.11,1.22a16,16,0,0,0-1,1.32,15.94,15.94,0,0,0-1.55,2.9c-.21.5-.39,1-.55,1.54s-.3,1.06-.41,1.6-.18,1.08-.24,1.63-.08,1.09-.08,1.64V94.38A2.8,2.8,0,0,0,45,95.45,2.79,2.79,0,0,0,46.51,97a2.63,2.63,0,0,0,1.07.22h61.36A2.58,2.58,0,0,0,110,97a2.67,2.67,0,0,0,.91-.6,2.91,2.91,0,0,0,.61-.91,2.8,2.8,0,0,0,.21-1.07V83.21a17.11,17.11,0,0,0-.73-4.87c-.16-.52-.34-1-.55-1.54s-.45-1-.7-1.49a15.51,15.51,0,0,0-.85-1.41,14.09,14.09,0,0,0-1-1.32c-.35-.42-.71-.83-1.1-1.22s-.79-.75-1.21-1.11-.87-.67-1.32-1-.93-.59-1.41-.85-1-.49-1.49-.7-1-.4-1.54-.56-1.06-.29-1.59-.4A16.89,16.89,0,0,0,95,66.45Z"/><path class="cls-11" d="M738.33,368.12a20.1,20.1,0,0,1-.1,2.05q-.11,1-.3,2c-.14.67-.3,1.34-.5,2s-.43,1.3-.69,1.94-.56,1.25-.88,1.86-.68,1.19-1.06,1.76a17.55,17.55,0,0,1-1.22,1.65,18,18,0,0,1-1.38,1.52,20,20,0,0,1-1.52,1.39c-.53.43-1.08.84-1.64,1.22s-1.16.73-1.77,1.06-1.22.61-1.85.88-1.28.49-1.94.69a19.3,19.3,0,0,1-2,.5c-.67.13-1.35.23-2,.3a21.06,21.06,0,0,1-4.1,0c-.68-.07-1.36-.17-2-.3a20,20,0,0,1-2-.5c-.66-.2-1.3-.43-1.93-.69s-1.25-.56-1.86-.88-1.19-.68-1.76-1.06-1.12-.79-1.65-1.22-1-.9-1.52-1.39-.94-1-1.38-1.52-.84-1.08-1.22-1.65-.73-1.16-1.06-1.76-.61-1.23-.87-1.86a19.53,19.53,0,0,1-.7-1.94c-.19-.65-.36-1.32-.5-2s-.23-1.35-.3-2-.09-1.37-.09-2.05,0-1.37.09-2.05.17-1.37.3-2,.31-1.33.5-2a18.66,18.66,0,0,1,.7-1.94q.39-.94.87-1.86c.33-.6.68-1.19,1.06-1.76s.79-1.12,1.22-1.65.9-1,1.38-1.53,1-.94,1.52-1.38,1.08-.84,1.65-1.22,1.16-.74,1.76-1.06,1.22-.62,1.86-.88,1.27-.49,1.93-.69a20,20,0,0,1,2-.5c.67-.13,1.35-.23,2-.3a21.06,21.06,0,0,1,4.1,0c.68.07,1.36.17,2,.3a19.3,19.3,0,0,1,2,.5c.66.2,1.31.43,1.94.69s1.25.56,1.85.88,1.19.68,1.77,1.06,1.11.79,1.64,1.22,1,.9,1.52,1.38a19.85,19.85,0,0,1,1.38,1.53,17.55,17.55,0,0,1,1.22,1.65c.38.57.74,1.16,1.06,1.76s.62,1.23.88,1.86.49,1.28.69,1.94.36,1.32.5,2,.23,1.35.3,2A20,20,0,0,1,738.33,368.12Z"/><path class="cls-11" d="M734.15,394.66H700.68c-.55,0-1.1,0-1.64.08s-1.09.14-1.63.24-1.06.25-1.59.41-1,.34-1.54.55-1,.45-1.49.7a15.35,15.35,0,0,0-1.4.85,16.11,16.11,0,0,0-1.32,1c-.43.35-.83.72-1.22,1.1a15.73,15.73,0,0,0-1.1,1.22c-.35.43-.68.87-1,1.32a14.54,14.54,0,0,0-.84,1.41c-.26.49-.5,1-.71,1.49s-.39,1-.55,1.55-.29,1.05-.4,1.59a16.89,16.89,0,0,0-.32,3.27V422.6a2.78,2.78,0,0,0,.21,1.06,2.67,2.67,0,0,0,.6.91,2.76,2.76,0,0,0,.9.61,2.83,2.83,0,0,0,1.07.21h61.36a2.8,2.8,0,0,0,1.07-.21,2.76,2.76,0,0,0,.9-.61,2.7,2.7,0,0,0,.61-.91,2.78,2.78,0,0,0,.21-1.06V411.42c0-.55,0-1.1-.08-1.64a14.91,14.91,0,0,0-.25-1.63,14.18,14.18,0,0,0-.39-1.59c-.16-.53-.35-1-.56-1.55s-.44-1-.7-1.49-.54-.95-.85-1.41-.62-.89-1-1.32-.72-.83-1.11-1.22-.79-.75-1.21-1.1-.87-.67-1.32-1a15.51,15.51,0,0,0-1.41-.85c-.48-.25-1-.49-1.48-.7s-1-.39-1.55-.55-1-.3-1.59-.41-1.08-.18-1.62-.24S734.7,394.66,734.15,394.66Z"/><path class="cls-11" d="M753.57,183.19a20.1,20.1,0,0,1-.1,2.05c-.07.68-.17,1.36-.3,2a19.48,19.48,0,0,1-.5,2c-.2.66-.43,1.3-.69,1.93s-.56,1.26-.88,1.86a17.62,17.62,0,0,1-1.06,1.77c-.38.57-.79,1.12-1.22,1.65a21.29,21.29,0,0,1-2.9,2.9,20,20,0,0,1-3.41,2.28,18.4,18.4,0,0,1-1.85.88,21.52,21.52,0,0,1-3.93,1.19,20.33,20.33,0,0,1-8.16,0,21.52,21.52,0,0,1-3.93-1.19,18.4,18.4,0,0,1-1.85-.88c-.6-.32-1.19-.67-1.76-1a19.62,19.62,0,0,1-1.65-1.23,18,18,0,0,1-1.52-1.38,19.91,19.91,0,0,1-1.38-1.52c-.43-.53-.84-1.08-1.22-1.65s-.73-1.16-1.06-1.77-.61-1.22-.88-1.86-.49-1.27-.69-1.93a19.44,19.44,0,0,1-.49-2,19.89,19.89,0,0,1-.31-2c-.06-.68-.1-1.37-.1-2.05s0-1.37.1-2.06a19.89,19.89,0,0,1,.31-2,19.26,19.26,0,0,1,.49-2c.2-.66.43-1.31.69-1.94s.56-1.26.88-1.86.68-1.19,1.06-1.76.79-1.12,1.22-1.66.9-1,1.38-1.52,1-.94,1.52-1.38a17.55,17.55,0,0,1,1.65-1.22,18.66,18.66,0,0,1,1.76-1.06,18.4,18.4,0,0,1,1.85-.88c.64-.26,1.28-.49,1.94-.69a19.3,19.3,0,0,1,2-.5,17.43,17.43,0,0,1,2-.3,19.16,19.16,0,0,1,4.1,0,17.43,17.43,0,0,1,2,.3,19.3,19.3,0,0,1,2,.5c.66.2,1.3.43,1.94.69a18.4,18.4,0,0,1,1.85.88,21.72,21.72,0,0,1,3.41,2.28c.53.44,1,.9,1.52,1.38a19.71,19.71,0,0,1,1.38,1.52c.43.54.84,1.09,1.22,1.66a17.47,17.47,0,0,1,1.06,1.76c.32.6.61,1.23.88,1.86s.49,1.28.69,1.94a19.3,19.3,0,0,1,.5,2c.13.67.23,1.35.3,2A20.29,20.29,0,0,1,753.57,183.19Z"/><path class="cls-11" d="M749.39,209.73H715.92a14.89,14.89,0,0,0-1.64.08c-.55.05-1.09.14-1.63.24s-1.06.24-1.59.4-1,.35-1.54.56-1,.44-1.49.7-.95.54-1.41.84-.89.64-1.32,1a15.6,15.6,0,0,0-1.21,1.1,15.93,15.93,0,0,0-1.1,1.22,15.54,15.54,0,0,0-1,1.32c-.31.46-.59.93-.85,1.41s-.49,1-.7,1.48-.39,1-.55,1.55a16.79,16.79,0,0,0-.64,3.22,15.2,15.2,0,0,0-.09,1.65v11.17a2.8,2.8,0,0,0,.21,1.07,3,3,0,0,0,.61.91,2.73,2.73,0,0,0,.9.6,2.66,2.66,0,0,0,1.07.22h61.36a2.66,2.66,0,0,0,1.07-.22,2.73,2.73,0,0,0,.9-.6,2.77,2.77,0,0,0,.82-2V226.49c0-.55,0-1.1-.08-1.65s-.14-1.08-.24-1.62-.25-1.07-.41-1.6-.34-1-.55-1.55-.44-1-.7-1.48-.54-1-.85-1.41-.63-.89-1-1.32a16.06,16.06,0,0,0-1.11-1.22,15.6,15.6,0,0,0-1.21-1.1q-.64-.53-1.32-1t-1.41-.84c-.48-.26-1-.49-1.48-.7s-1-.4-1.55-.56-1-.29-1.59-.4-1.08-.19-1.63-.24A14.83,14.83,0,0,0,749.39,209.73Z"/></svg>