<?xml version="1.0" encoding="UTF-8" standalone="no"?>
<svg
   viewBox="0 0 111.5 110.09"
   version="1.1"
   id="svg42"
   sodipodi:docname="initiator.svg"
   inkscape:version="1.1 (c68e22c387, 2021-05-23)"
   xmlns:inkscape="http://www.inkscape.org/namespaces/inkscape"
   xmlns:sodipodi="http://sodipodi.sourceforge.net/DTD/sodipodi-0.dtd"
   xmlns="http://www.w3.org/2000/svg"
   xmlns:svg="http://www.w3.org/2000/svg">
  <sodipodi:namedview
     id="namedview44"
     pagecolor="#ffffff"
     bordercolor="#666666"
     borderopacity="1.0"
     inkscape:pageshadow="2"
     inkscape:pageopacity="0.0"
     inkscape:pagecheckerboard="0"
     showgrid="false"
     inkscape:zoom="7.9298758"
     inkscape:cx="55.80163"
     inkscape:cy="54.981945"
     inkscape:window-width="1920"
     inkscape:window-height="1094"
     inkscape:window-x="-11"
     inkscape:window-y="-11"
     inkscape:window-maximized="1"
     inkscape:current-layer="svg42" />
  <defs
     id="defs4">
    <style
       id="style2">.cls-1{fill:#d1ecea;}.cls-2{fill:none;stroke:#231f20;stroke-linecap:round;stroke-linejoin:round;stroke-width:1.5px;}</style>
  </defs>
  <path
     className="cls-1"
     d="m 73.19,10.09 c -11.4,0 -21.34,10 -26.7,24.85 A 36.23,36.23 0 0 1 29.9,54.08 c -10,5.61 -16.48,14.77 -16.48,25.12 0,17.06 17.66,30.89 39.45,30.89 h 20.32 c 17.06,0 30.89,-22.38 30.89,-50 0,-27.62 -13.83,-50 -30.89,-50 z"
     id="path6"
     style="fill:#e0a458;fill-opacity:0.27000001" />
  <path
     className="cls-2"
     d="m 65.33,13.41 c -5.32,0.11 -8.12,-1 -9.59,-2.19 A 3.87,3.87 0 0 1 54.38,7.33 c 1,-4.66 5,-6 7.87,-6.44 a 14.18,14.18 0 0 1 3.08,-0.1 c 0,0 14.47,-0.58 13.4,8.72 0,0 -2.89,-0.39 -4.12,0.22 -2.2,1.11 -3.99,3.55 -9.28,3.68 z"
     id="path8" />
  <path
     className="cls-2"
     d="m 73.89,10.14 a 5.36,5.36 0 0 1 2.68,4.77 v 12.82 a 14.85,14.85 0 0 1 -7.91,10.17 6.34,6.34 0 0 1 -6,0 14.84,14.84 0 0 1 -7.92,-10.17 V 14.91 A 5.28,5.28 0 0 1 56,11.39"
     id="path10" />
  <path
     className="cls-2"
     d="m 76.58,20.62 c 0,0 3.83,-1.79 4.19,0.54 0,0 -0.25,5.32 -4.19,6.57"
     id="path12" />
  <path
     className="cls-2"
     d="m 54.76,20.62 c 0,0 -3.84,-1.79 -4.2,0.54 0,0 0.25,5.32 4.2,6.57"
     id="path14" />
  <path
     className="cls-2"
     d="m 69.3,44.71 a 7.86,7.86 0 0 0 3.1,-8.52 7.9,7.9 0 0 1 3.65,9.46 6.34,6.34 0 0 0 -6.75,-0.94 z"
     id="path16" />
  <path
     className="cls-2"
     d="M 62,44.71 A 7.84,7.84 0 0 1 58.91,36.19 7.9,7.9 0 0 0 55.26,45.65 6.32,6.32 0 0 1 62,44.71 Z"
     id="path18" />
  <path
     className="cls-2"
     d="m 41.45,46.72 a 77.21,77.21 0 0 1 13.69,-5.8"
     id="path20" />
  <path
     className="cls-2"
     d="M 40.79,37.84 A 11.17,11.17 0 0 1 40.28,49.23 V 65.3 c 0,0 3.11,15.7 -5.28,15.17 0,0 -11.8,0.23 -5.18,-14.41 0,0 4.14,-8.54 2.46,-14.5 0,0 -4.48,-2.19 -4.74,-6.25 a 5.29,5.29 0 0 1 0.91,-3.17 c 0,0 3.05,-5.2 2.91,-5.87 -0.26,-1.33 -0.33,-3.48 2.22,-3.12 l 3,1.68 c 0,0 -0.15,1.17 -1.78,1.37 a 0.58,0.58 0 0 0 -0.37,1 l 0.69,0.75 a 2.32,2.32 0 0 0 2,0.74 c 2.09,-0.25 6,-0.52 6.62,-4.78"
     id="path22" />
  <path
     className="cls-2"
     d="m 22,16.15 10.76,2.42 0.65,-1.21 11.69,2.77 A 2.3,2.3 0 0 1 46.73,21.54 12.58,12.58 0 0 1 45.2,33 2.31,2.31 0 0 1 42.92,33.88 L 31.27,31.51 30,30.37 20,28.82"
     id="path24" />
  <path
     className="cls-2"
     d="m 32.73,18.57 c 0,0 1.94,7.1 -2.7,11.8"
     id="path26" />
  <ellipse
     className="cls-2"
     cx="-19.392977"
     cy="14.743403"
     rx="15.7"
     ry="10.44"
     transform="rotate(-80.56)"
     id="ellipse28" />
  <ellipse
     className="cls-2"
     cx="-19.392977"
     cy="14.743403"
     rx="9.5"
     ry="6.3200002"
     transform="rotate(-80.56)"
     id="ellipse30" />
  <path
     className="cls-2"
     d="m 37.12,38.65 c 0,0 2.53,7 -2.56,7.59 l -3,-0.38"
     id="path32" />
  <path
     className="cls-2"
     d="m 69.3,44.71 a 6.54,6.54 0 0 1 -7.27,0"
     id="path34" />
  <polyline
     className="cls-2"
     points="44.82 99.44 44.82 68.61 40.58 74.79"
     id="polyline36" />
  <path
     className="cls-2"
     d="m 76.2,40.92 c 0,0 8.32,0.88 14.78,4.77 a 13.16,13.16 0 0 1 3.87,3.56 L 110,70.16 a 4.16,4.16 0 0 1 0.1,4.7 c -2.71,4.11 -8.68,12.27 -15.24,15.5 a 2.87,2.87 0 0 1 0,0.41 5.43,5.43 0 0 1 -5.42,5.43 5.52,5.52 0 0 1 -5.44,-5.43 5.43,5.43 0 0 1 3.61,-5.11 6.41,6.41 0 0 0 3.15,-2.26 c 2.92,-4.11 6.94,-9.89 7,-10.58 0.13,-1.08 -9.6,-11.35 -13.79,-11.35 v 38"
     id="path38" />
</svg>
