<?xml version="1.0" encoding="UTF-8" standalone="no"?>
<svg
   viewBox="0 0 103.54 121.4"
   version="1.1"
   id="svg30"
   sodipodi:docname="installer.svg"
   inkscape:version="1.1 (c68e22c387, 2021-05-23)"
   xmlns:inkscape="http://www.inkscape.org/namespaces/inkscape"
   xmlns:sodipodi="http://sodipodi.sourceforge.net/DTD/sodipodi-0.dtd"
   xmlns="http://www.w3.org/2000/svg"
   xmlns:svg="http://www.w3.org/2000/svg">
  <sodipodi:namedview
     id="namedview32"
     pagecolor="#ffffff"
     bordercolor="#666666"
     borderopacity="1.0"
     inkscape:pageshadow="2"
     inkscape:pageopacity="0.0"
     inkscape:pagecheckerboard="0"
     showgrid="false"
     inkscape:zoom="7.1911037"
     inkscape:cx="51.800115"
     inkscape:cy="60.63047"
     inkscape:window-width="1920"
     inkscape:window-height="1094"
     inkscape:window-x="-11"
     inkscape:window-y="-11"
     inkscape:window-maximized="1"
     inkscape:current-layer="svg30" />
  <defs
     id="defs4">
    <style
       id="style2">.cls-1{fill:#d1ecea;}.cls-2,.cls-3{fill:none;stroke:#231f20;stroke-linecap:round;stroke-width:1.5px;}.cls-2{stroke-linejoin:round;}.cls-3{stroke-miterlimit:10;}</style>
  </defs>
  <path
     class="cls-1"
     d="m 72.65,17.4 c -11.39,0 -21.34,14 -26.7,28.85 A 36.19,36.19 0 0 1 29.36,65.39 C 19.38,71 12.88,80.16 12.88,90.51 c 0,17.06 17.67,30.89 39.46,30.89 h 20.31 c 17.06,0 30.89,-22.39 30.89,-50 0,-27.61 -13.83,-54 -30.89,-54 z"
     id="path6"
     style="fill:#ff1654;fill-opacity:0.27000001" />
  <path
     class="cls-2"
     d="m 47.44,13.17 c 0,0 -0.51,11.42 1.64,16.13 a 3,3 0 0 0 2.79,1.7 h 3.57 a 6.37,6.37 0 0 0 4,-1.4 c 1.46,-1.19 4.87,-4.94 5.23,-7.06"
     id="path8" />
  <path
     class="cls-2"
     d="m 43.38,12.3 c 0,0 11.1,2.8 19.46,2 a 4.3,4.3 0 0 1 2.91,0.86 c 1.36,1 3.54,2.44 5.34,2.64"
     id="path10" />
  <path
     class="cls-2"
     d="M 47.26,13.13 48,9.2 A 10.42,10.42 0 0 1 61.56,1.3 l 2.78,0.93 a 9.11,9.11 0 0 1 6.16,9.38 L 70,17.56"
     id="path12" />
  <path
     class="cls-2"
     d="m 60.15,14.44 1.31,5.93 v 0 c 0,0 3.68,-1.47 3.21,2.2 l 1.81,1.51 A 12.91,12.91 0 0 0 69,17.18"
     id="path14" />
  <path
     class="cls-2"
     d="m 64.67,22.57 c 0,0 1.39,5.81 4.33,7.73 l 11,6.14 a 6,6 0 0 1 2.91,3.89 c 1.21,5.37 3.83,17.57 3.83,22.09 0,0 3.72,7.31 -0.59,9 l 0.76,25.33 c 0,0 6.11,8.51 0.12,12.34 l -3,1.48 a 1.83,1.83 0 0 1 -2.28,-0.54 v 0 a 1.83,1.83 0 0 1 0.32,-2.52 l 1.98,-1.51 -1.29,-6.13 -2,3.8 a 1.22,1.22 0 0 1 -1.38,0.82 v 0 a 1.22,1.22 0 0 1 -1,-1.18 c 0,-2 0.22,-5.15 1.23,-6.3 l -1.7,-25.87"
     id="path16" />
  <path
     class="cls-3"
     d="m 86.75,62.42 -10.1,0.47 c 0,0 -1.47,0 -1.38,2.51 0,0 -0.43,5.71 1.3,5.71 l 9.59,0.3"
     id="path18" />
  <path
     class="cls-3"
     d="M 16.65,40.76 C 17.9,36.11 14.8,34.11 12.94,33.35 a 1,1 0 0 0 -1.37,0.93 5,5 0 0 0 0.54,2.34 2.49,2.49 0 0 1 -0.92,3.38 15.63,15.63 0 0 1 -3.48,1.41"
     id="path20" />
  <line
     class="cls-2"
     x1="11.11"
     y1="20.540001"
     x2="5.9699998"
     y2="10.36"
     id="line22" />
  <path
     class="cls-2"
     d="M 39.24,106.38 38.18,59.69 c 0,0 -6.3,9.67 -12.68,10 C 20.75,70 13.38,58.12 13.38,58.12 10.63,53.57 7.71,41.37 7.71,41.37 L 2.84,42.66 0.75,38.09 5.39,35.35 c 0.52,-4.3 6.7,-1.94 6.7,-1.94 L 8.57,25 l 0.19,-3.36 5,-2.42 2.67,1.48 6.44,12.55 0.26,7 -4,2.33 -2.42,-1.82 -1,1.55 C 15.55,46 21.13,53 23.5,55.72 A 1.71,1.71 0 0 0 26,55.8 c 3.14,-3.19 7.61,-11.62 9.5,-15.32 A 4.44,4.44 0 0 1 38.35,38.2 L 52.72,34.51 A 1.69,1.69 0 0 0 54,32.86 V 31"
     id="path24" />
  <line
     class="cls-2"
     x1="75.559998"
     y1="69.970001"
     x2="73.720001"
     y2="106.38"
     id="line26" />
</svg>
