<?xml version="1.0" encoding="utf-8"?>
<!-- Generator: Adobe Illustrator 25.0.0, SVG Export Plug-In . SVG Version: 6.00 Build 0)  -->
<svg version="1.1" id="Layer_1" xmlns="http://www.w3.org/2000/svg" xmlns:xlink="http://www.w3.org/1999/xlink" x="0px" y="0px"
	 viewBox="0 0 664.1 689.6" style="enable-background:new 0 0 664.1 689.6;" xml:space="preserve">
<style type="text/css">
	.st0{fill:#2A2D34;}
	.st1{clip-path:url(#SVGID_2_);}
	.st2{fill:#FFFFFF;}
	.st3{clip-path:url(#SVGID_4_);}
	.st4{clip-path:url(#SVGID_6_);}
	.st5{fill:url(#SVGID_7_);}
	.st6{fill:#E0A458;}
	.st7{clip-path:url(#SVGID_9_);}
	.st8{clip-path:url(#SVGID_11_);}
	.st9{clip-path:url(#SVGID_13_);}
	.st10{fill:none;stroke:#000000;stroke-width:3;stroke-linecap:round;}
	.st11{fill:#21CCB2;}
	.st12{clip-path:url(#SVGID_15_);}
	.st13{fill-rule:evenodd;clip-rule:evenodd;}
	.st14{fill:none;stroke:#000000;stroke-width:3;stroke-linecap:round;stroke-miterlimit:18.0029;}
</style>
<path class="st0" d="M431.7,240.2c0-12-9.6-22-22-22c-5.6,0-11.2,2.4-15.6,6.4c-6.4-4.4-14.4-6.4-22.4-6.4h-8c-24.4,0-44,19.6-44,44
	v10.4c-7.6,4.4-10.4,14-6,21.6c2.8,4.8,8,8,14,8h0.8c2.4,11.2,9.2,20.8,19.2,26.4v17.6h-12v-8c0-8.8-7.2-16-16-16H207.9
	c-8.8,0-16,7.2-16,16V410c0,8.8,7.2,16,16,16h26.8l-6.8,27.2c-0.4,2,0.8,4.4,2.8,4.8c0.4,0,0.8,0,0.8,0h67.9c1.6,0,3.2-0.8,3.6-2.4
	l11.6-29.6h5.2c0.8,0,1.6,0,2.4-0.4c0,0.4,0.4,0.8,0.4,1.2c0.4,0.8,0.4,1.2,0.8,2c0,0.4,0.4,0.8,0.4,0.8c0.4,0.4,0.4,1.2,0.8,1.6
	c0.4,0.8,0.8,1.6,1.6,2.4c0,0,0,0,0,0.4c-6.4,4.4-10.4,12-10.4,20c0,2.4,1.6,4,4,4h40c2.4,0,4-1.6,4-4c0-13.2-10.8-24-24-24
	c-2,0-4,0.4-6,0.8c-0.4-0.4-0.4-0.8-0.8-1.2l-0.4-0.4c-0.4-0.4-0.8-1.2-1.2-2c0-0.4-0.4-0.4-0.4-0.8c0,0,0-0.4-0.4-0.4
	c0,0,0-0.4-0.4-0.4c-0.4-0.4-0.4-1.2-0.8-2c0,0,0-0.4-0.4-0.8v-0.4c4-3.2,6-7.6,6-12.8v-55.5h0.8l1.6,6c3.6,13.2,15.6,22,29.2,22
	c13.6,0,25.6-9.2,29.2-22l1.6-6h6.4c11.2,0,20,8.8,20,20v24h-15.2c-2.4,0-4,1.6-4,4c0,0.4,0,1.2,0.4,1.6c4,9.2,2.4,20-4.4,28
	c-0.4,0.4-0.8,1.6-0.8,2.4v24h8v-22.4c6.4-8.4,8.8-19.2,6.4-29.6h9.6V458h8v-83.9c0-15.6-12.4-28-28-28h-16v-17.6
	c10-5.6,16.8-15.2,19.2-26.4h0.8c8.8,0,16-7.2,16-16c0-5.6-3.2-11.2-8-14v-10c0-0.4,0-0.4,0-0.8
	C425.3,258.6,431.7,250.2,431.7,240.2z M268.3,450h-31.2l14-55.9h24.4L268.3,450z M291.9,450h-15.6l0.8-8h14.8V450z M299.8,443.2
	V438c0-2.4-1.6-4-4-4h-12.8l2.8-8h20.8L299.8,443.2z M323.4,417.2c-1.2,0.4-2.4,0.8-3.6,0.8h-39.6l3.6-27.6c0.4-2-1.2-4-3.6-4.4
	h-0.4h-32c-2,0-3.6,1.2-4,3.2l-7.2,28.8h-28.8c-4.4,0-8-3.6-8-8v-71.9c0-4.4,3.6-8,8-8h111.9c4.4,0,8,3.6,8,8V410
	C327.8,413.2,326.2,416,323.4,417.2z M339.8,438c7.2,0,13.6,4.8,15.6,12h-30.8C326.2,442.8,332.6,438,339.8,438z M327.8,294.1
	c-4.4,0-8-3.6-8-8s3.6-8,8-8V294.1z M390.6,354.1l-1.2,3.6c-2.8,9.6-11.6,16.4-21.6,16.4c-10,0-18.8-6.8-21.6-16.4l-1.2-3.6h6.8
	c2.4,0,4-1.6,4-4v-18c7.6,2.4,16.4,2.4,24,0v18c0,2.4,1.6,4,4,4H390.6z M399.8,294.1c0,12-6.8,23.2-17.6,28.8
	c-8.8,4.4-19.6,4.4-28.4,0c-11.2-5.6-18-16.8-18-28.8v-18c17.6-4.8,38-18.8,48.8-26.8c0.4-0.4,1.2-0.8,1.6-1.2l13.6,26.8V294.1z
	 M406.1,270.2l-14.8-29.6c-0.8-2-3.2-2.8-5.2-1.6c-0.4,0-0.4,0.4-0.8,0.4c0,0-2,1.6-5.2,4c-8.8,6.4-31.6,22.4-49.2,26.4
	c-1.2,0.4-2,0.4-3.2,0.4v-8c0-20,16-36,36-36h8c7.6,0,14.8,2.4,21.2,6.8c8.4,6,13.6,15.2,14.8,25.6c0,1.2,0,2.4,0,3.6v8H406.1z
	 M415.7,286.1c0,4.4-3.6,8-8,8v-16C412.1,278.1,415.7,281.7,415.7,286.1z M414.9,253.4c-2-9.2-6.8-17.6-14-24c2.4-2,5.6-3.2,8.8-3.2
	c7.6,0,14,6.4,14,14C423.7,245.8,420.1,251,414.9,253.4z M349.8,274.2c-3.2,0-6,2.8-6,6c0,3.2,2.8,6,6,6s6-2.8,6-6
	C355.8,276.9,353,274.2,349.8,274.2z M379.8,280.1c0,3.2,2.8,6,6,6s6-2.8,6-6c0-3.2-2.8-6-6-6S379.8,276.9,379.8,280.1z
	 M367.8,302.1c-2.4,0-4-1.6-4-4h-8c0,6.8,5.2,12,12,12c6.8,0,12-5.2,12-12h-8C371.8,300.5,370.2,302.1,367.8,302.1z M207.9,338.1h16
	v8h-16V338.1z M231.9,338.1h16v8h-16V338.1z M255.9,338.1h16v8h-16V338.1z M279.9,338.1h16v8h-16V338.1z M303.8,338.1h16v8h-16
	V338.1z"/>
<path class="st0" d="M383.1,419c0-1.2,1-2.2,2.2-2.2h12.5c1.2,0,2.2,1,2.2,2.2v7.4h46.7V419c0-1.2,1-2.2,2.2-2.2h12.5
	c1.2,0,2.2,1,2.2,2.2v7.4h14.8v-19c0-5.8-4.7-10.5-10.4-10.5h-18.3v-10c0-5.8-4.7-10.5-10.4-10.5h-31.7c-5.8,0-10.4,4.7-10.4,10.5
	v10h-18.3c-5.7,0-10.4,4.7-10.4,10.5v19h14.8V419z M401.4,387c0-3.3,2.7-6,6-6h31.7c3.3,0,6,2.7,6,6v10h-43.8V387z"/>
<path class="st0" d="M395.5,421.2h-8.1v7.3c0,0,0,0,0,0s0,0,0,0v8.1h8.1v-8.1c0,0,0,0,0-0.1s0,0,0-0.1V421.2z"/>
<path class="st0" d="M378.7,474.3h89.2c5.7,0,10.4-4.7,10.4-10.5v-33h-14.8v8.1c0,1.2-1,2.2-2.2,2.2h-12.5c-1.2,0-2.2-1-2.2-2.2
	v-8.1h-46.7v8.1c0,1.2-1,2.2-2.2,2.2h-12.5c-1.2,0-2.2-1-2.2-2.2v-8.1h-14.8v33C368.3,469.6,373,474.3,378.7,474.3z"/>
<path class="st0" d="M459.1,421.2H451v7.3c0,0,0,0,0,0s0,0,0,0v8.1h8.1v-8.1c0,0,0,0,0,0s0,0,0,0V421.2z"/>
<g>
	<defs>
		<rect id="SVGID_1_" x="400.2" y="412" width="46.5" height="46.5"/>
	</defs>
	<clipPath id="SVGID_2_">
		<use xlink:href="#SVGID_1_"  style="overflow:visible;"/>
	</clipPath>
	<g class="st1">
		<path class="st2" d="M446.6,435.2c0,0.8,0,1.5-0.1,2.3c-0.1,0.8-0.2,1.5-0.3,2.2c-0.1,0.7-0.3,1.5-0.6,2.2
			c-0.2,0.7-0.5,1.4-0.8,2.1c-0.3,0.7-0.6,1.4-1,2.1c-0.4,0.7-0.8,1.3-1.2,2s-0.9,1.2-1.4,1.8c-0.5,0.6-1,1.2-1.5,1.7
			c-0.5,0.5-1.1,1-1.7,1.5c-0.6,0.5-1.2,0.9-1.8,1.4c-0.6,0.4-1.3,0.8-2,1.2c-0.7,0.4-1.4,0.7-2.1,1c-0.7,0.3-1.4,0.5-2.1,0.8
			c-0.7,0.2-1.5,0.4-2.2,0.6s-1.5,0.3-2.3,0.3s-1.5,0.1-2.3,0.1c-0.8,0-1.5,0-2.3-0.1s-1.5-0.2-2.3-0.3s-1.5-0.3-2.2-0.6
			c-0.7-0.2-1.4-0.5-2.1-0.8c-0.7-0.3-1.4-0.6-2.1-1c-0.7-0.4-1.3-0.7-2-1.2c-0.6-0.4-1.2-0.9-1.8-1.4c-0.6-0.5-1.1-1-1.7-1.5
			c-0.5-0.5-1-1.1-1.5-1.7c-0.5-0.6-0.9-1.2-1.4-1.8s-0.8-1.3-1.2-2c-0.4-0.7-0.7-1.4-1-2.1c-0.3-0.7-0.5-1.4-0.8-2.1
			c-0.2-0.7-0.4-1.5-0.6-2.2c-0.1-0.7-0.3-1.5-0.3-2.2c-0.1-0.8-0.1-1.5-0.1-2.3s0-1.5,0.1-2.3c0.1-0.8,0.2-1.5,0.3-2.3
			c0.1-0.7,0.3-1.5,0.6-2.2c0.2-0.7,0.5-1.4,0.8-2.1c0.3-0.7,0.6-1.4,1-2.1c0.4-0.7,0.8-1.3,1.2-2s0.9-1.2,1.4-1.8
			c0.5-0.6,1-1.2,1.5-1.7c0.5-0.5,1.1-1,1.7-1.5c0.6-0.5,1.2-0.9,1.8-1.4c0.6-0.4,1.3-0.8,2-1.2c0.7-0.4,1.4-0.7,2.1-1
			c0.7-0.3,1.4-0.5,2.1-0.8c0.7-0.2,1.5-0.4,2.2-0.6s1.5-0.3,2.3-0.3s1.5-0.1,2.3-0.1c0.8,0,1.5,0,2.3,0.1s1.5,0.2,2.3,0.3
			s1.5,0.3,2.2,0.6c0.7,0.2,1.4,0.5,2.1,0.8c0.7,0.3,1.4,0.6,2.1,1c0.7,0.4,1.3,0.8,2,1.2c0.6,0.4,1.2,0.9,1.8,1.4
			c0.6,0.5,1.1,1,1.7,1.5c0.5,0.5,1,1.1,1.5,1.7c0.5,0.6,0.9,1.2,1.4,1.8s0.8,1.3,1.2,2c0.4,0.7,0.7,1.4,1,2.1
			c0.3,0.7,0.5,1.4,0.8,2.1c0.2,0.7,0.4,1.5,0.6,2.2c0.1,0.7,0.3,1.5,0.3,2.3C446.6,433.7,446.6,434.5,446.6,435.2z"/>
	</g>
</g>
<g>
	<defs>
		<rect id="SVGID_3_" x="400.2" y="412" width="46.5" height="46.5"/>
	</defs>
	<clipPath id="SVGID_4_">
		<use xlink:href="#SVGID_3_"  style="overflow:visible;"/>
	</clipPath>
	<g class="st3">
		<g>
			<defs>
				<path id="SVGID_5_" d="M423.4,412c-12.8,0-23.2,10.4-23.2,23.2c0,8.1,4.2,15.6,11.1,19.8c4.9-14.5,14.3-24.3,14.3-24.3
					c-13.6,8.6-17.6,21.8-17.6,21.8s-8.5-16,4.2-23.8c11.5-7.1,25.5-5.5,25.5-5.5s-5.5,3-5.1,13.6c0.4,10.6-4,14.1-4,14.1
					c-4.9,3.7-11.2,5.2-17.3,4.1c11,6.7,25.3,3.2,31.9-7.7s3.2-25.2-7.7-31.9C431.9,413.2,427.7,412,423.4,412z"/>
			</defs>
			<clipPath id="SVGID_6_">
				<use xlink:href="#SVGID_5_"  style="overflow:visible;"/>
			</clipPath>
			<g class="st4">
				
					<linearGradient id="SVGID_7_" gradientUnits="userSpaceOnUse" x1="-1219.5955" y1="797.5468" x2="-1058.0179" y2="704.2719" gradientTransform="matrix(0.3404 0 0 0.3404 811.1182 179.6388)">
					<stop  offset="0" style="stop-color:#4AB8A9"/>
					<stop  offset="0.125" style="stop-color:#4AB8A9"/>
					<stop  offset="0.156" style="stop-color:#4AB8A9"/>
					<stop  offset="0.188" style="stop-color:#49B7A8"/>
					<stop  offset="0.219" style="stop-color:#48B6A7"/>
					<stop  offset="0.25" style="stop-color:#47B6A7"/>
					<stop  offset="0.281" style="stop-color:#46B5A6"/>
					<stop  offset="0.297" style="stop-color:#45B4A5"/>
					<stop  offset="0.305" style="stop-color:#45B4A5"/>
					<stop  offset="0.313" style="stop-color:#44B3A4"/>
					<stop  offset="0.32" style="stop-color:#44B2A3"/>
					<stop  offset="0.328" style="stop-color:#43B2A3"/>
					<stop  offset="0.336" style="stop-color:#42B1A2"/>
					<stop  offset="0.344" style="stop-color:#42B1A1"/>
					<stop  offset="0.352" style="stop-color:#41B0A1"/>
					<stop  offset="0.359" style="stop-color:#41B0A0"/>
					<stop  offset="0.366" style="stop-color:#40AFA0"/>
					<stop  offset="0.367" style="stop-color:#40AF9F"/>
					<stop  offset="0.375" style="stop-color:#3FAE9F"/>
					<stop  offset="0.383" style="stop-color:#3FAE9E"/>
					<stop  offset="0.391" style="stop-color:#3EAD9E"/>
					<stop  offset="0.398" style="stop-color:#3EAD9D"/>
					<stop  offset="0.406" style="stop-color:#3DAC9C"/>
					<stop  offset="0.414" style="stop-color:#3DAC9C"/>
					<stop  offset="0.422" style="stop-color:#3CAB9B"/>
					<stop  offset="0.43" style="stop-color:#3BAA9B"/>
					<stop  offset="0.438" style="stop-color:#3BAA9A"/>
					<stop  offset="0.445" style="stop-color:#3AA999"/>
					<stop  offset="0.453" style="stop-color:#3AA999"/>
					<stop  offset="0.461" style="stop-color:#39A898"/>
					<stop  offset="0.469" style="stop-color:#39A797"/>
					<stop  offset="0.477" style="stop-color:#38A797"/>
					<stop  offset="0.484" style="stop-color:#37A696"/>
					<stop  offset="0.492" style="stop-color:#36A595"/>
					<stop  offset="0.5" style="stop-color:#35A494"/>
					<stop  offset="0.508" style="stop-color:#34A393"/>
					<stop  offset="0.516" style="stop-color:#33A392"/>
					<stop  offset="0.523" style="stop-color:#32A292"/>
					<stop  offset="0.531" style="stop-color:#31A191"/>
					<stop  offset="0.539" style="stop-color:#30A090"/>
					<stop  offset="0.547" style="stop-color:#2F9F8F"/>
					<stop  offset="0.555" style="stop-color:#2E9E8E"/>
					<stop  offset="0.563" style="stop-color:#2D9D8D"/>
					<stop  offset="0.57" style="stop-color:#2C9D8C"/>
					<stop  offset="0.578" style="stop-color:#2B9C8C"/>
					<stop  offset="0.586" style="stop-color:#2B9B8B"/>
					<stop  offset="0.594" style="stop-color:#2A9A8A"/>
					<stop  offset="0.602" style="stop-color:#299989"/>
					<stop  offset="0.609" style="stop-color:#289888"/>
					<stop  offset="0.617" style="stop-color:#279787"/>
					<stop  offset="0.625" style="stop-color:#269786"/>
					<stop  offset="0.633" style="stop-color:#259686"/>
					<stop  offset="0.634" style="stop-color:#249585"/>
					<stop  offset="0.641" style="stop-color:#239484"/>
					<stop  offset="0.648" style="stop-color:#239484"/>
					<stop  offset="0.656" style="stop-color:#229383"/>
					<stop  offset="0.66" style="stop-color:#219282"/>
					<stop  offset="0.664" style="stop-color:#209282"/>
					<stop  offset="0.668" style="stop-color:#209181"/>
					<stop  offset="0.672" style="stop-color:#1F9180"/>
					<stop  offset="0.676" style="stop-color:#1F9080"/>
					<stop  offset="0.68" style="stop-color:#1E8F7F"/>
					<stop  offset="0.684" style="stop-color:#1D8F7F"/>
					<stop  offset="0.688" style="stop-color:#1D8E7E"/>
					<stop  offset="0.691" style="stop-color:#1C8E7D"/>
					<stop  offset="0.695" style="stop-color:#1B8D7D"/>
					<stop  offset="0.699" style="stop-color:#1B8D7C"/>
					<stop  offset="0.703" style="stop-color:#1A8C7B"/>
					<stop  offset="0.707" style="stop-color:#198B7B"/>
					<stop  offset="0.711" style="stop-color:#198B7A"/>
					<stop  offset="0.715" style="stop-color:#188A7A"/>
					<stop  offset="0.719" style="stop-color:#188A79"/>
					<stop  offset="0.723" style="stop-color:#178978"/>
					<stop  offset="0.727" style="stop-color:#168878"/>
					<stop  offset="0.73" style="stop-color:#168877"/>
					<stop  offset="0.734" style="stop-color:#158777"/>
					<stop  offset="0.738" style="stop-color:#148776"/>
					<stop  offset="0.742" style="stop-color:#148675"/>
					<stop  offset="0.746" style="stop-color:#138675"/>
					<stop  offset="0.75" style="stop-color:#138574"/>
					<stop  offset="0.754" style="stop-color:#128473"/>
					<stop  offset="0.758" style="stop-color:#118473"/>
					<stop  offset="0.762" style="stop-color:#118372"/>
					<stop  offset="0.766" style="stop-color:#108372"/>
					<stop  offset="0.77" style="stop-color:#0F8271"/>
					<stop  offset="0.773" style="stop-color:#0F8270"/>
					<stop  offset="0.777" style="stop-color:#0E8170"/>
					<stop  offset="0.781" style="stop-color:#0E806F"/>
					<stop  offset="0.785" style="stop-color:#0D806F"/>
					<stop  offset="0.789" style="stop-color:#0C7F6E"/>
					<stop  offset="0.793" style="stop-color:#0C7F6D"/>
					<stop  offset="0.797" style="stop-color:#0B7E6D"/>
					<stop  offset="0.801" style="stop-color:#0A7E6C"/>
					<stop  offset="0.805" style="stop-color:#0A7D6B"/>
					<stop  offset="0.809" style="stop-color:#097C6B"/>
					<stop  offset="0.813" style="stop-color:#087C6A"/>
					<stop  offset="0.816" style="stop-color:#087B6A"/>
					<stop  offset="0.82" style="stop-color:#077B69"/>
					<stop  offset="0.824" style="stop-color:#077A68"/>
					<stop  offset="0.828" style="stop-color:#067A68"/>
					<stop  offset="0.832" style="stop-color:#057967"/>
					<stop  offset="0.836" style="stop-color:#057867"/>
					<stop  offset="0.84" style="stop-color:#047866"/>
					<stop  offset="0.844" style="stop-color:#037765"/>
					<stop  offset="0.848" style="stop-color:#037765"/>
					<stop  offset="0.852" style="stop-color:#027664"/>
					<stop  offset="0.855" style="stop-color:#027663"/>
					<stop  offset="0.859" style="stop-color:#017563"/>
					<stop  offset="0.875" style="stop-color:#007462"/>
					<stop  offset="1" style="stop-color:#007462"/>
				</linearGradient>
				<path class="st5" d="M400.2,458.5V412h46.5v46.5H400.2z"/>
			</g>
		</g>
	</g>
</g>
<path class="st6" d="M523.6,147.6c-11.7,0-22.8-4.6-31.1-12.9c-8.3-8.3-12.9-19.4-12.9-31.1s4.6-22.8,12.9-31.1
	c8.3-8.3,19.4-12.9,31.1-12.9s22.8,4.6,31.1,12.9c8.3,8.3,12.9,19.4,12.9,31.1s-4.6,22.8-12.9,31.1
	C546.4,143,535.3,147.6,523.6,147.6z M523.6,62.3c-11,0-21.4,4.3-29.2,12.1s-12.1,18.2-12.1,29.2s4.3,21.4,12.1,29.2
	s18.2,12.1,29.2,12.1s21.4-4.3,29.2-12.1c7.8-7.8,12.1-18.2,12.1-29.2s-4.3-21.4-12.1-29.2C545,66.6,534.6,62.3,523.6,62.3z"/>
<path d="M490.4,93.2c-0.7,0-1.2,0.5-1.2,1.2c0,0.7,0.5,1.2,1.2,1.2h6.6c0.7,0,1.2-0.5,1.2-1.2c0-0.7-0.5-1.2-1.2-1.2H490.4z"/>
<path d="M502.4,79.1c0.3,0,0.7-0.1,0.9-0.4c0.4-0.5,0.4-1.3-0.1-1.7l-4.2-3.6c-0.5-0.4-1.3-0.4-1.7,0.1c-0.4,0.5-0.4,1.3,0.1,1.7
	l4.2,3.6C501.9,79,502.1,79.1,502.4,79.1z"/>
<g>
	<defs>
		<rect id="SVGID_8_" x="515.6" y="66.8" width="4" height="7.8"/>
	</defs>
	<clipPath id="SVGID_9_">
		<use xlink:href="#SVGID_8_"  style="overflow:visible;"/>
	</clipPath>
	<g class="st7">
		<path d="M518.8,73.3v-5.2c0-0.7-0.5-1.2-1.2-1.2s-1.2,0.5-1.2,1.2v5.2c0,0.7,0.5,1.2,1.2,1.2S518.8,74,518.8,73.3z"/>
	</g>
</g>
<path d="M532.6,80.3c0.3,0,0.6-0.1,0.9-0.4l4.6-4.8c0.5-0.5,0.4-1.2,0-1.7c-0.5-0.5-1.2-0.4-1.7,0l-4.6,4.8c-0.5,0.5-0.4,1.2,0,1.7
	C532,80.1,532.3,80.3,532.6,80.3z"/>
<path d="M496,118.5h41.8c0,0,0,0,0,0c0,0,0,0,0.1,0h18.4c0,0,0,0,0.1,0c0.7,0,1.2-0.5,1.2-1.2c0-0.3-0.1-0.6-0.4-0.9l-13.4-25.7
	c-0.2-0.4-0.6-0.6-1.1-0.6h-31.9c-0.4,0-0.8,0.2-1,0.6l-14.9,26c-0.2,0.4-0.2,0.8,0,1.2C495.2,118.3,495.6,118.5,496,118.5z
	 M506.5,101.4h11.6l-1.3,6.5h-14.1L506.5,101.4z M520.6,101.4h12.2l1.6,6.5h-15.1L520.6,101.4z M530.8,93l1.4,6h-11.2l1.2-6.1
	c0-0.1,0-0.3,0-0.4h8.5C530.7,92.7,530.7,92.9,530.8,93z M550.1,107.9h-13.2l-1.6-6.5h11.4L550.1,107.9z M534.9,110.3l1.4,5.8h-18.7
	l1.1-5.8H534.9z M538.8,116.1l-1.4-5.8h13.9l3,5.8H538.8z M545.4,99h-10.7l-1.6-6.5h8.9L545.4,99z M511.6,92.6h8.3l-1.3,6.5h-10.7
	L511.6,92.6z M501.4,110.3C501.4,110.3,501.4,110.3,501.4,110.3l15,0l-1.1,5.8h-17.1L501.4,110.3z"/>
<path d="M556.5,120.8h-60.3c-0.7,0-1.2,0.5-1.2,1.2c0,0.7,0.5,1.2,1.2,1.2h23.9v10l-5,3.9c-0.4,0.3-0.6,0.9-0.4,1.3s0.6,0.8,1.1,0.8
	h20.6c0,0,0,0,0.1,0c0.7,0,1.2-0.5,1.2-1.2c0-0.5-0.3-0.9-0.7-1.1l-4.6-3.8v-10h24c0.7,0,1.2-0.5,1.2-1.2
	C557.7,121.3,557.1,120.8,556.5,120.8z M519.3,136.9l2.4-1.9h9.1l2.3,1.9H519.3z M530.1,132.6h-7.6v-9.4h7.6V132.6z"/>
<path d="M500.1,94.4c0,1.7,0.2,3.4,0.7,5c0.2,0.5,0.6,0.9,1.2,0.9c0.1,0,0.2,0,0.3-0.1c0.6-0.2,1-0.9,0.8-1.5
	c-0.4-1.4-0.6-2.8-0.6-4.3c0-8.4,6.8-15.3,15.2-15.3c5.7,0,10.8,3.1,13.4,8.2c0.3,0.6,1,0.8,1.6,0.5c0.6-0.3,0.8-1,0.5-1.6
	c-3-5.9-9-9.5-15.6-9.5C507.9,76.7,500.1,84.7,500.1,94.4z"/>
<path class="st6" d="M267.8,88c-11.7,0-22.8-4.6-31.1-12.9c-8.3-8.3-12.9-19.4-12.9-31.1c0-11.7,4.6-22.8,12.9-31.1
	C245,4.6,256,0,267.8,0s22.8,4.6,31.1,12.9c8.3,8.3,12.9,19.4,12.9,31.1c0,11.7-4.6,22.8-12.9,31.1C290.6,83.4,279.5,88,267.8,88z
	 M267.8,2.6c-11,0-21.4,4.3-29.2,12.1c-7.8,7.8-12.1,18.2-12.1,29.2c0,11,4.3,21.4,12.1,29.2c7.8,7.8,18.2,12.1,29.2,12.1
	S289.2,81,297,73.2S309.1,55,309.1,44c0-11-4.3-21.4-12.1-29.2S278.8,2.6,267.8,2.6z"/>
<g>
	<defs>
		<rect id="SVGID_10_" x="235.6" y="14.6" width="60.8" height="61.1"/>
	</defs>
	<clipPath id="SVGID_11_">
		<use xlink:href="#SVGID_10_"  style="overflow:visible;"/>
	</clipPath>
	<g class="st8">
		<path d="M291.3,52.9c-1.5,0-2.9,0.7-3.8,1.8l-15.7-8c0.2-0.6,0.3-1.2,0.3-1.9l14.6-2.5c0.5,0.9,1.5,1.6,2.7,1.6c1.7,0,3-1.3,3-3
			c0-1.7-1.3-3-3-3c-1.5,0-2.7,1.1-3,2.5l-14.6,2.5c-0.2-0.8-0.7-1.5-1.2-2.1l12.1-13.1c1,0.6,2.3,1,3.6,1c3.9,0,7.1-3.1,7.1-7.1
			c0-3.9-3.2-7-7.2-7c-3.9,0-7.1,3.1-7.1,7.1c0,1.9,0.7,3.5,1.9,4.8l-12.2,13.1c-0.8-0.5-1.8-0.7-2.9-0.7c-0.2,0-0.5,0-0.7,0.1
			l-5.3-13c0.6-0.5,1-1.3,1-2.2c0-1.7-1.3-3-3-3c-1.7,0-3,1.3-3,3c0,1.7,1.3,3,3,3c0.1,0,0.1,0,0.2,0l5.3,12.7
			c-1.2,0.5-2.1,1.5-2.7,2.5l-17-5.7c0-0.2,0.1-0.3,0.1-0.5c0-2.2-1.8-4.1-4.1-4.1c-2.2,0-4,1.8-4,4.1s1.8,4.1,4.1,4.1
			c1.3,0,2.6-0.7,3.3-1.7l17.1,5.8c-0.1,0.3-0.1,0.6-0.1,1c0,0.4,0.1,0.9,0.1,1.3l-16.2,6.6c-0.5-0.5-1.3-0.8-2.1-0.8
			c-1.7,0-3,1.3-3,3c0,1.7,1.3,3,3,3c1.7,0,3-1.3,3-3c0-0.1,0-0.2-0.1-0.4l16.2-6.5c0.4,0.6,0.9,1.2,1.4,1.6l-9.5,15.5
			c-0.3-0.1-0.6-0.1-0.9-0.1c-2.8,0-5,2.2-5,5c0,2.8,2.2,5,5,5c2.8,0,5-2.2,5-5c0-1.8-0.9-3.3-2.2-4.2l9.4-15.3
			c0.6,0.2,1.3,0.3,1.9,0.3c0.4,0,0.8-0.1,1.2-0.1l3.5,12.1c-0.9,0.7-1.6,1.9-1.6,3.2c0,2.2,1.8,4.1,4.1,4.1c2.2,0,4.1-1.8,4.1-4.1
			s-1.8-4.1-4.1-4.1c-0.2,0-0.4,0.1-0.5,0.1l-3.5-12c0.7-0.4,1.3-0.9,1.8-1.6l15.7,8c-0.1,0.5-0.2,1-0.2,1.5c0,2.8,2.2,5,5,5
			c2.8,0,5-2.2,5-5S294.1,52.9,291.3,52.9z M289.2,39.8c0.5,0,1,0.4,1,1c0,0.5-0.4,1-1,1c-0.5,0-1-0.4-1-1
			C288.3,40.3,288.7,39.8,289.2,39.8z M256.9,23.7c0-0.5,0.4-1,1-1c0.5,0,1,0.4,1,1s-0.4,1-1,1C257.3,24.7,256.9,24.2,256.9,23.7z
			 M239.7,37.8c-1.1,0-2-0.9-2-2s0.9-2,2-2s2,0.9,2,2S240.8,37.8,239.7,37.8z M241.7,56c-0.5,0-1-0.4-1-1c0-0.5,0.4-1,1-1
			c0.6,0,1,0.4,1,1S242.2,56,241.7,56z M251.8,73.2c-1.7,0-3-1.3-3-3s1.3-3,3-3c1.7,0,3,1.3,3,3C254.9,71.8,253.5,73.2,251.8,73.2z
			 M275.1,66.1c0,1.1-0.9,2-2,2s-2-0.9-2-2s0.9-2,2-2S275.1,65,275.1,66.1z M286.2,16.6c2.8,0,5,2.2,5,5c0,2.8-2.2,5.1-5,5.1
			c-2.8,0-5-2.2-5-5C281.2,18.9,283.4,16.6,286.2,16.6z M266,48.9c-2.2,0-4.1-1.8-4.1-4.1s1.8-4.1,4.1-4.1c2.2,0,4.1,1.8,4.1,4.1
			S268.2,48.9,266,48.9z M291.3,61.1c-1.7,0-3-1.3-3-3c0-1.7,1.3-3,3-3c1.7,0,3,1.3,3,3C294.3,59.7,292.9,61.1,291.3,61.1z"/>
	</g>
</g>
<path d="M264.9,43.8h2v2h-2V43.8z"/>
<path class="st6" d="M620.1,382c-11.7,0-22.8-4.6-31.1-12.9c-8.3-8.3-12.9-19.4-12.9-31.1s4.6-22.8,12.9-31.1
	c8.3-8.3,19.4-12.9,31.1-12.9c11.7,0,22.8,4.6,31.1,12.9c8.3,8.3,12.9,19.4,12.9,31.1s-4.6,22.8-12.9,31.1
	C642.9,377.5,631.8,382,620.1,382z M620.1,296.7c-11,0-21.4,4.3-29.2,12.1s-12.1,18.2-12.1,29.2s4.3,21.4,12.1,29.2
	s18.2,12.1,29.2,12.1c11,0,21.4-4.3,29.2-12.1s12.1-18.2,12.1-29.2s-4.3-21.4-12.1-29.2S631.1,296.7,620.1,296.7z"/>
<path d="M615.1,343.6h9.8v2.5h-9.8V343.6z"/>
<path d="M630.9,324H609c-0.5,0-1,0.1-1.4,0.3c-0.4,0.2-0.8,0.5-1.2,0.8c-0.3,0.3-0.6,0.7-0.8,1.2c-0.2,0.5-0.3,0.9-0.3,1.4v1.2h-3.7
	c-0.2,0-0.3,0-0.5,0.1s-0.3,0.1-0.4,0.3c-0.1,0.1-0.2,0.2-0.3,0.4c-0.1,0.1-0.1,0.3-0.1,0.5v4.9c0,0.2,0,0.3,0.1,0.5
	c0.1,0.2,0.2,0.3,0.3,0.4c0.1,0.1,0.2,0.2,0.4,0.3s0.3,0.1,0.5,0.1h3.3l-0.8,3.4c0,0.1,0,0.2,0,0.3v14.7c0,0.2,0,0.3,0.1,0.5
	c0.1,0.2,0.2,0.3,0.3,0.4c0.1,0.1,0.2,0.2,0.4,0.3s0.3,0.1,0.5,0.1h4.9c0.2,0,0.3,0,0.5-0.1s0.3-0.2,0.4-0.3
	c0.1-0.1,0.2-0.2,0.3-0.4c0.1-0.1,0.1-0.3,0.1-0.5V351h17.1v3.7c0,0.2,0,0.3,0.1,0.5c0.1,0.2,0.2,0.3,0.3,0.4
	c0.1,0.1,0.2,0.2,0.4,0.3s0.3,0.1,0.5,0.1h4.9c0.2,0,0.3,0,0.5-0.1s0.3-0.2,0.4-0.3c0.1-0.1,0.2-0.2,0.3-0.4
	c0.1-0.1,0.1-0.3,0.1-0.5v-14.7c0-0.1,0-0.2,0-0.3l-0.8-3.4h3.3c0.2,0,0.3,0,0.5-0.1c0.1-0.1,0.3-0.1,0.4-0.3
	c0.1-0.1,0.2-0.2,0.3-0.4c0.1-0.1,0.1-0.3,0.1-0.5v-4.9c0-0.2,0-0.3-0.1-0.5c-0.1-0.2-0.2-0.3-0.3-0.4c-0.1-0.1-0.2-0.2-0.4-0.3
	c-0.2-0.1-0.3-0.1-0.5-0.1h-3.7v-1.2c0-0.5-0.1-1-0.3-1.4c-0.2-0.4-0.4-0.8-0.8-1.2c-0.3-0.3-0.7-0.6-1.2-0.8
	C631.9,324.1,631.4,324,630.9,324z M605.3,333.8h-2.4v-2.5h2.4V333.8z M607.8,327.7c0-0.2,0-0.3,0.1-0.5s0.2-0.3,0.3-0.4
	s0.2-0.2,0.4-0.3s0.3-0.1,0.5-0.1h21.9c0.2,0,0.3,0,0.5,0.1s0.3,0.2,0.4,0.3s0.2,0.2,0.3,0.4c0.1,0.2,0.1,0.3,0.1,0.5v6.1h-24.4
	V327.7z M606.6,341.2h2.4c0.2,0,0.3,0,0.5,0.1s0.3,0.1,0.4,0.3c0.1,0.1,0.2,0.2,0.3,0.4c0.1,0.1,0.1,0.3,0.1,0.5v1.2h-3.7V341.2z
	 M609,353.5h-2.4V351h2.4V353.5z M633.4,353.5h-2.4V351h2.4V353.5z M633.4,348.5h-26.8v-2.5h4.9c0.2,0,0.3,0,0.5-0.1
	s0.3-0.1,0.4-0.3c0.1-0.1,0.2-0.2,0.3-0.4c0.1-0.1,0.1-0.3,0.1-0.5v-2.5c0-0.5-0.1-1-0.3-1.4c-0.2-0.4-0.4-0.8-0.8-1.2
	c-0.3-0.3-0.7-0.6-1.2-0.8c-0.4-0.2-0.9-0.3-1.4-0.3h-2.1l0.6-2.5h24.9l0.6,2.5h-2.1c-0.5,0-0.9,0.1-1.4,0.3
	c-0.4,0.2-0.8,0.5-1.2,0.8c-0.3,0.3-0.6,0.7-0.8,1.2c-0.2,0.5-0.3,0.9-0.3,1.4v2.5c0,0.2,0,0.3,0.1,0.5c0.1,0.2,0.2,0.3,0.3,0.4
	c0.1,0.1,0.2,0.2,0.4,0.3s0.3,0.1,0.5,0.1h4.9V348.5z M633.4,343.6h-3.7v-1.2c0-0.2,0-0.3,0.1-0.5c0.1-0.2,0.1-0.3,0.3-0.4
	c0.1-0.1,0.2-0.2,0.4-0.3s0.3-0.1,0.5-0.1h2.4V343.6z M637,331.4v2.5h-2.4v-2.5H637z"/>
<path d="M635.2,309.4c-0.1-0.1-0.2-0.1-0.3-0.1c-0.1,0-0.2,0-0.3,0c-0.1,0-0.2,0-0.3,0c-0.1,0-0.2,0.1-0.3,0.1
	c-0.1,0.1-0.2,0.1-0.2,0.2c-0.1,0.1-0.1,0.2-0.2,0.2c-0.1,0.1-0.1,0.2-0.1,0.3c0,0.1,0,0.2,0,0.3v4.9c0,0.4,0.2,0.7,0.5,1
	c4.4,3.4,11.7,10.8,11.7,22.4c0,0.8,0,1.5-0.1,2.3s-0.2,1.5-0.3,2.3c-0.1,0.8-0.3,1.5-0.5,2.3c-0.2,0.7-0.4,1.5-0.7,2.2
	c-0.3,0.7-0.6,1.4-0.9,2.1c-0.3,0.7-0.7,1.4-1.1,2c-0.4,0.7-0.8,1.3-1.3,1.9c-0.5,0.6-0.9,1.2-1.4,1.8c-0.5,0.6-1,1.1-1.6,1.7
	s-1.1,1-1.7,1.5c-0.6,0.5-1.2,0.9-1.9,1.3c-0.6,0.4-1.3,0.8-2,1.2c-0.7,0.4-1.4,0.7-2.1,1c-0.7,0.3-1.4,0.6-2.2,0.8
	c-0.7,0.2-1.5,0.4-2.2,0.6c-0.8,0.2-1.5,0.3-2.3,0.4c-0.8,0.1-1.5,0.2-2.3,0.2c-0.8,0-1.5,0-2.3,0s-1.5-0.1-2.3-0.2
	c-0.8-0.1-1.5-0.3-2.3-0.4c-0.7-0.2-1.5-0.4-2.2-0.6s-1.4-0.5-2.1-0.8s-1.4-0.7-2.1-1c-0.7-0.4-1.3-0.8-2-1.2s-1.2-0.9-1.8-1.4
	c-0.6-0.5-1.2-1-1.7-1.5c-0.5-0.5-1.1-1.1-1.6-1.7c-0.5-0.6-1-1.2-1.4-1.8s-0.9-1.3-1.2-1.9c-0.4-0.7-0.7-1.4-1.1-2.1
	c-0.3-0.7-0.6-1.4-0.9-2.1s-0.5-1.5-0.7-2.2c-0.2-0.7-0.4-1.5-0.5-2.3c-0.1-0.8-0.2-1.5-0.3-2.3c-0.1-0.8-0.1-1.5-0.1-2.3
	c0-0.8,0.1-1.5,0.1-2.3c0.1-0.8,0.2-1.5,0.3-2.3c0.1-0.8,0.3-1.5,0.5-2.3s0.5-1.5,0.7-2.2c0.3-0.7,0.6-1.4,0.9-2.1
	c0.3-0.7,0.7-1.4,1.1-2c0.4-0.7,0.8-1.3,1.3-1.9c0.5-0.6,0.9-1.2,1.5-1.8c0.5-0.6,1.1-1.1,1.6-1.7s1.1-1,1.8-1.5
	c0.6-0.5,1.2-0.9,1.9-1.3c0.6-0.4,1.3-0.8,2-1.2c0.7-0.4,1.4-0.7,2.1-1c0.1,0.4,0.2,0.8,0.4,1.2s0.5,0.7,0.8,1
	c0.3,0.3,0.7,0.5,1.1,0.7s0.8,0.2,1.3,0.2h2.4v2.5c0,0.2,0,0.3,0.1,0.5c0.1,0.2,0.2,0.3,0.3,0.4c0.1,0.1,0.2,0.2,0.4,0.3
	s0.3,0.1,0.5,0.1h4.9c0.2,0,0.3,0,0.5-0.1s0.3-0.1,0.4-0.3c0.1-0.1,0.2-0.2,0.3-0.4c0.1-0.1,0.1-0.3,0.1-0.5v-1.2h6.1
	c0.2,0,0.3,0,0.5-0.1s0.3-0.2,0.4-0.3c0.1-0.1,0.2-0.2,0.3-0.4c0.1-0.1,0.1-0.3,0.1-0.5v-4.9c0-0.2,0-0.3-0.1-0.5
	c-0.1-0.1-0.2-0.3-0.3-0.4c-0.1-0.1-0.2-0.2-0.4-0.3s-0.3-0.1-0.5-0.1h-6.1v-2.5h6.1c0.2,0,0.3,0,0.5-0.1s0.3-0.1,0.4-0.3
	c0.1-0.1,0.2-0.2,0.3-0.4c0.1-0.1,0.1-0.3,0.1-0.5v-4.9c0-0.2,0-0.3-0.1-0.5c-0.1-0.2-0.2-0.3-0.3-0.4s-0.2-0.2-0.4-0.3
	s-0.3-0.1-0.5-0.1h-6.1v-1.2c0-0.2,0-0.3-0.1-0.5c-0.1-0.1-0.2-0.3-0.3-0.4c-0.1-0.1-0.2-0.2-0.4-0.3s-0.3-0.1-0.5-0.1h-4.9
	c-0.2,0-0.3,0-0.5,0.1s-0.3,0.2-0.4,0.3c-0.1,0.1-0.2,0.2-0.3,0.4c-0.1,0.2-0.1,0.3-0.1,0.5v2.5h-2.4c-0.5,0-0.9,0.1-1.4,0.3
	c-0.4,0.2-0.8,0.5-1.2,0.8c-0.3,0.3-0.6,0.7-0.8,1.2c-0.2,0.4-0.3,0.9-0.3,1.4v0.3c-0.6,0.2-1.2,0.4-1.8,0.6s-1.2,0.5-1.7,0.7
	c-0.6,0.3-1.1,0.5-1.7,0.8c-0.6,0.3-1.1,0.6-1.7,0.9s-1.1,0.7-1.6,1s-1,0.7-1.5,1.1c-0.5,0.4-1,0.8-1.5,1.2s-0.9,0.8-1.4,1.3
	c-0.5,0.4-0.9,0.9-1.3,1.3c-0.4,0.5-0.8,0.9-1.3,1.4c-0.4,0.5-0.8,1-1.2,1.5c-0.4,0.5-0.7,1-1.1,1.6c-0.3,0.5-0.7,1.1-1,1.6
	c-0.3,0.5-0.6,1.1-0.9,1.7c-0.3,0.6-0.6,1.1-0.8,1.7c-0.3,0.6-0.5,1.2-0.7,1.8c-0.2,0.6-0.4,1.2-0.6,1.8s-0.3,1.2-0.5,1.8
	s-0.3,1.2-0.4,1.9c-0.1,0.6-0.2,1.2-0.3,1.9s-0.1,1.3-0.2,1.9c0,0.6-0.1,1.3-0.1,1.9c0,0.6,0,1.3,0,1.9c0,0.6,0.1,1.3,0.1,1.9
	c0.1,0.6,0.1,1.3,0.2,1.9s0.2,1.2,0.4,1.9c0.1,0.6,0.3,1.2,0.5,1.8s0.4,1.2,0.6,1.8c0.2,0.6,0.4,1.2,0.7,1.8
	c0.2,0.6,0.5,1.2,0.8,1.7s0.6,1.1,0.9,1.7s0.6,1.1,1,1.6c0.3,0.5,0.7,1.1,1.1,1.6s0.7,1,1.1,1.5c0.4,0.5,0.8,1,1.2,1.4
	s0.9,0.9,1.3,1.4s0.9,0.9,1.4,1.3s1,0.8,1.5,1.2c0.5,0.4,1,0.8,1.5,1.1c0.5,0.4,1,0.7,1.6,1c0.5,0.3,1.1,0.6,1.6,0.9
	c0.6,0.3,1.1,0.6,1.7,0.8s1.1,0.5,1.7,0.8c0.6,0.2,1.2,0.4,1.8,0.6c0.6,0.2,1.2,0.4,1.8,0.5c0.6,0.2,1.2,0.3,1.8,0.4
	c0.6,0.1,1.2,0.2,1.9,0.3c0.6,0.1,1.2,0.2,1.9,0.2c0.6,0.1,1.3,0.1,1.9,0.1s1.3,0,1.9,0s1.3-0.1,1.9-0.1c0.6-0.1,1.2-0.1,1.9-0.2
	c0.6-0.1,1.2-0.2,1.9-0.3c0.6-0.1,1.2-0.3,1.8-0.4s1.2-0.3,1.8-0.5c0.6-0.2,1.2-0.4,1.8-0.6c0.6-0.2,1.2-0.5,1.7-0.7
	c0.6-0.3,1.1-0.5,1.7-0.8c0.6-0.3,1.1-0.6,1.6-0.9c0.5-0.3,1.1-0.7,1.6-1s1-0.7,1.5-1.1c0.5-0.4,1-0.8,1.5-1.2s0.9-0.8,1.4-1.3
	c0.4-0.4,0.9-0.9,1.3-1.4c0.4-0.5,0.8-0.9,1.2-1.4c0.4-0.5,0.8-1,1.2-1.5c0.4-0.5,0.7-1,1.1-1.6c0.3-0.5,0.7-1.1,1-1.6
	c0.3-0.6,0.6-1.1,0.9-1.7s0.5-1.1,0.8-1.7c0.2-0.6,0.5-1.2,0.7-1.8s0.4-1.2,0.6-1.8c0.2-0.6,0.3-1.2,0.5-1.8
	c0.1-0.6,0.3-1.2,0.4-1.9c0.1-0.6,0.2-1.3,0.3-1.9s0.1-1.3,0.2-1.9s0.1-1.3,0.1-1.9c0-0.6,0-1.3-0.1-1.9c0-0.6-0.1-1.3-0.2-1.9
	s-0.2-1.3-0.3-1.9c-0.1-0.6-0.2-1.2-0.4-1.9s-0.3-1.2-0.5-1.8c-0.2-0.6-0.4-1.2-0.6-1.8c-0.2-0.6-0.4-1.2-0.7-1.8s-0.5-1.2-0.8-1.7
	c-0.3-0.6-0.6-1.1-0.9-1.7c-0.3-0.6-0.6-1.1-1-1.6c-0.3-0.5-0.7-1.1-1.1-1.6c-0.4-0.5-0.8-1-1.2-1.5c-0.4-0.5-0.8-1-1.2-1.4
	c-0.4-0.5-0.9-0.9-1.3-1.4c-0.5-0.4-0.9-0.9-1.4-1.3c-0.5-0.4-1-0.8-1.5-1.2c-0.5-0.4-1-0.8-1.5-1.1c-0.5-0.4-1.1-0.7-1.6-1
	C636.3,310,635.7,309.7,635.2,309.4z M623.6,304.3h4.9v2.5h-4.9V304.3z M623.6,314.2h4.9v2.5h-4.9V314.2z M618.8,301.9h2.4v17.2
	h-2.4V301.9z M612.7,306.8c0-0.2,0-0.3,0.1-0.5c0.1-0.1,0.2-0.3,0.3-0.4c0.1-0.1,0.2-0.2,0.4-0.3s0.3-0.1,0.5-0.1h2.4v9.8h-2.4
	c-0.2,0-0.3,0-0.5-0.1s-0.3-0.1-0.4-0.3c-0.1-0.1-0.2-0.2-0.3-0.4c-0.1-0.1-0.1-0.3-0.1-0.5V306.8z M620,369.4c-0.9,0-1.8,0-2.7-0.1
	s-1.8-0.2-2.7-0.4c-0.9-0.2-1.8-0.4-2.6-0.6s-1.7-0.5-2.6-0.8s-1.7-0.7-2.5-1s-1.6-0.8-2.4-1.3s-1.5-0.9-2.3-1.5s-1.4-1.1-2.1-1.7
	s-1.3-1.2-2-1.8s-1.2-1.3-1.8-2c-0.6-0.7-1.1-1.4-1.6-2.2s-1-1.5-1.4-2.3c-0.4-0.8-0.8-1.6-1.2-2.4c-0.4-0.8-0.7-1.7-1-2.5
	c-0.3-0.9-0.6-1.7-0.8-2.6c-0.2-0.9-0.4-1.8-0.6-2.6s-0.2-1.8-0.3-2.7s-0.1-1.8-0.1-2.7s0.1-1.8,0.2-2.7s0.2-1.8,0.4-2.7
	c0.2-0.9,0.4-1.8,0.6-2.6c0.2-0.9,0.5-1.7,0.8-2.6s0.7-1.7,1.1-2.5s0.8-1.6,1.3-2.4c0.5-0.8,1-1.5,1.5-2.2c0.5-0.7,1.1-1.4,1.7-2.1
	c0.6-0.7,1.2-1.3,1.8-2c0.6-0.6,1.3-1.2,2-1.8c0.7-0.6,1.4-1.1,2.2-1.6s1.5-1,2.3-1.4c0.8-0.4,1.6-0.8,2.4-1.2
	c0.8-0.4,1.7-0.7,2.5-1v2.4c-0.8,0.3-1.6,0.6-2.4,1s-1.5,0.8-2.3,1.2c-0.7,0.4-1.4,0.9-2.1,1.4s-1.4,1-2,1.6
	c-0.6,0.6-1.3,1.2-1.9,1.8c-0.6,0.6-1.1,1.3-1.7,1.9c-0.5,0.7-1,1.4-1.5,2.1c-0.5,0.7-0.9,1.5-1.3,2.2c-0.4,0.8-0.8,1.5-1.1,2.3
	c-0.3,0.8-0.6,1.6-0.9,2.4c-0.3,0.8-0.5,1.6-0.7,2.5c-0.2,0.8-0.3,1.7-0.4,2.5s-0.2,1.7-0.2,2.6c0,0.9,0,1.7,0,2.6
	c0,0.9,0.1,1.7,0.2,2.6s0.3,1.7,0.5,2.5c0.2,0.8,0.4,1.7,0.7,2.5s0.6,1.6,0.9,2.4c0.3,0.8,0.7,1.6,1.1,2.3c0.4,0.8,0.9,1.5,1.3,2.2
	c0.5,0.7,1,1.4,1.5,2.1c0.5,0.7,1.1,1.3,1.7,1.9c0.6,0.6,1.2,1.2,1.9,1.8c0.7,0.6,1.3,1.1,2,1.6c0.7,0.5,1.4,1,2.2,1.4
	s1.5,0.8,2.3,1.2c0.8,0.4,1.6,0.7,2.4,1c0.8,0.3,1.6,0.5,2.4,0.7c0.8,0.2,1.7,0.4,2.5,0.5c0.8,0.1,1.7,0.2,2.5,0.3
	c0.8,0.1,1.7,0.1,2.6,0.1s1.7-0.1,2.5-0.2c0.8-0.1,1.7-0.2,2.5-0.4c0.8-0.2,1.7-0.4,2.5-0.6c0.8-0.3,1.6-0.5,2.4-0.9
	s1.6-0.7,2.3-1.1c0.8-0.4,1.5-0.8,2.2-1.3c0.7-0.5,1.4-1,2.1-1.5c0.7-0.5,1.3-1.1,1.9-1.7c0.6-0.6,1.2-1.2,1.8-1.8
	c0.6-0.6,1.1-1.3,1.6-2c0.5-0.7,1-1.4,1.4-2.1c0.4-0.7,0.9-1.5,1.2-2.3c0.4-0.8,0.7-1.6,1-2.4c0.3-0.8,0.6-1.6,0.8-2.4
	c0.2-0.8,0.4-1.7,0.6-2.5s0.3-1.7,0.4-2.5c0.1-0.9,0.1-1.7,0.1-2.6c0-12.2-7.4-20.1-12.2-23.9v-2.2c1.4,0.9,2.7,1.8,4,2.9
	c1.3,1.1,2.4,2.3,3.5,3.5c1.1,1.3,2,2.6,2.9,4c0.8,1.4,1.6,2.9,2.2,4.5c0.6,1.5,1.1,3.1,1.4,4.8s0.6,3.3,0.6,4.9
	c0.1,1.7,0,3.3-0.1,5s-0.5,3.3-0.9,4.9c-0.4,1.6-1,3.2-1.7,4.7c-0.7,1.5-1.5,2.9-2.4,4.3c-0.9,1.4-2,2.7-3.1,3.9s-2.4,2.3-3.7,3.3
	c-1.3,1-2.7,1.9-4.2,2.7c-1.5,0.8-3,1.4-4.5,2s-3.2,0.9-4.8,1.2S621.6,369.4,620,369.4z"/>
<path class="st6" d="M44,382c-11.7,0-22.8-4.6-31.1-12.9C4.6,360.9,0,349.8,0,338.1s4.6-22.8,12.9-31.1c8.3-8.3,19.4-12.9,31.1-12.9
	c11.7,0,22.8,4.6,31.1,12.9c8.3,8.3,12.9,19.4,12.9,31.1s-4.6,22.8-12.9,31.1C66.8,377.5,55.7,382,44,382z M44,296.7
	c-11,0-21.4,4.3-29.2,12.1S2.6,327,2.6,338.1s4.3,21.4,12.1,29.2s18.2,12.1,29.2,12.1c11,0,21.4-4.3,29.2-12.1s12.1-18.2,12.1-29.2
	s-4.3-21.4-12.1-29.2S55,296.7,44,296.7z"/>
<path d="M27.6,328.8h1.7v1.3c0,2.1,1.7,3.8,3.8,3.8h0.9c2.1,0,3.8-1.7,3.8-3.8v-1.3h12.8v1.3c0,2.1,1.7,3.8,3.8,3.8h0.9
	c2.1,0,3.8-1.7,3.8-3.8v-1.3h1.7c0.7,0,1.2-0.6,1.2-1.2v-9.7c0-0.5-0.3-0.9-0.7-1.1l-3.6-1.7l-2.4-7.2c-0.5-1.6-2-2.7-3.6-2.7h-15
	c-1.7,0-3.1,1.1-3.6,2.7l-2.4,7.2l-3.6,1.7c-0.4,0.2-0.7,0.6-0.7,1.1v9.7C26.4,328.2,26.9,328.8,27.6,328.8z M35.4,330.1
	c0,0.7-0.6,1.3-1.3,1.3h-0.9c-0.7,0-1.3-0.6-1.3-1.3v-1.3h3.5V330.1z M56.6,330.1c0,0.7-0.6,1.3-1.3,1.3h-0.9
	c-0.7,0-1.3-0.6-1.3-1.3v-1.3h3.5V330.1z M35.5,308.5c0.2-0.6,0.7-0.9,1.3-0.9h15c0.6,0,1.1,0.4,1.3,1l2.1,6.1H33.4L35.5,308.5z
	 M28.9,318.6l3.1-1.5h24.5l3.1,1.5v7.7H28.9V318.6z"/>
<path d="M35.2,322c0,0.2,0,0.5-0.1,0.7s-0.2,0.4-0.4,0.6s-0.4,0.3-0.6,0.4c-0.2,0.1-0.4,0.1-0.7,0.1c-0.2,0-0.5,0-0.7-0.1
	c-0.2-0.1-0.4-0.2-0.6-0.4s-0.3-0.4-0.4-0.6s-0.1-0.4-0.1-0.7c0-0.2,0-0.5,0.1-0.7s0.2-0.4,0.4-0.6s0.4-0.3,0.6-0.4s0.4-0.1,0.7-0.1
	c0.2,0,0.5,0,0.7,0.1c0.2,0.1,0.4,0.2,0.6,0.4s0.3,0.4,0.4,0.6S35.2,321.8,35.2,322z"/>
<path d="M56.6,322c0,0.2,0,0.5-0.1,0.7s-0.2,0.4-0.4,0.6s-0.4,0.3-0.6,0.4c-0.2,0.1-0.4,0.1-0.7,0.1c-0.2,0-0.5,0-0.7-0.1
	c-0.2-0.1-0.4-0.2-0.6-0.4s-0.3-0.4-0.4-0.6s-0.1-0.4-0.1-0.7c0-0.2,0-0.5,0.1-0.7s0.2-0.4,0.4-0.6s0.4-0.3,0.6-0.4s0.4-0.1,0.7-0.1
	c0.2,0,0.5,0,0.7,0.1s0.4,0.2,0.6,0.4s0.3,0.4,0.4,0.6S56.6,321.8,56.6,322z"/>
<path d="M21.5,326.2c0,0.2,0,0.4-0.1,0.6c-0.1,0.2-0.2,0.4-0.4,0.5s-0.3,0.3-0.5,0.4c-0.2,0.1-0.4,0.1-0.6,0.1c-0.2,0-0.4,0-0.6-0.1
	c-0.2-0.1-0.4-0.2-0.5-0.4s-0.3-0.3-0.4-0.5c-0.1-0.2-0.1-0.4-0.1-0.6c0-0.2,0-0.4,0.1-0.6c0.1-0.2,0.2-0.4,0.4-0.5s0.3-0.3,0.5-0.4
	c0.2-0.1,0.4-0.1,0.6-0.1c0.2,0,0.4,0,0.6,0.1c0.2,0.1,0.4,0.2,0.5,0.4s0.3,0.3,0.4,0.5C21.5,325.8,21.5,326,21.5,326.2z"/>
<path d="M18,331.6c0,0.2,0,0.4-0.1,0.6c-0.1,0.2-0.2,0.4-0.4,0.5s-0.3,0.3-0.5,0.4c-0.2,0.1-0.4,0.1-0.6,0.1c-0.2,0-0.4,0-0.6-0.1
	c-0.2-0.1-0.4-0.2-0.5-0.4c-0.2-0.2-0.3-0.3-0.4-0.5c-0.1-0.2-0.1-0.4-0.1-0.6c0-0.2,0-0.4,0.1-0.6c0.1-0.2,0.2-0.4,0.4-0.5
	c0.2-0.2,0.3-0.3,0.5-0.4c0.2-0.1,0.4-0.1,0.6-0.1c0.2,0,0.4,0,0.6,0.1c0.2,0.1,0.4,0.2,0.5,0.4s0.3,0.3,0.4,0.5
	C18,331.2,18,331.4,18,331.6z"/>
<path d="M19.9,337.7c0,0.2,0,0.4-0.1,0.6c-0.1,0.2-0.2,0.4-0.4,0.5c-0.2,0.2-0.3,0.3-0.5,0.4s-0.4,0.1-0.6,0.1c-0.2,0-0.4,0-0.6-0.1
	c-0.2-0.1-0.4-0.2-0.5-0.4c-0.2-0.2-0.3-0.3-0.4-0.5s-0.1-0.4-0.1-0.6c0-0.2,0-0.4,0.1-0.6s0.2-0.4,0.4-0.5s0.3-0.3,0.5-0.4
	c0.2-0.1,0.4-0.1,0.6-0.1c0.2,0,0.4,0,0.6,0.1s0.4,0.2,0.5,0.4s0.3,0.3,0.4,0.5C19.8,337.2,19.9,337.5,19.9,337.7z"/>
<path d="M70.3,326.2c0,0.2,0,0.4-0.1,0.6c-0.1,0.2-0.2,0.4-0.4,0.5s-0.3,0.3-0.5,0.4c-0.2,0.1-0.4,0.1-0.6,0.1c-0.2,0-0.4,0-0.6-0.1
	c-0.2-0.1-0.4-0.2-0.5-0.4s-0.3-0.3-0.4-0.5c-0.1-0.2-0.1-0.4-0.1-0.6c0-0.2,0-0.4,0.1-0.6c0.1-0.2,0.2-0.4,0.4-0.5s0.3-0.3,0.5-0.4
	c0.2-0.1,0.4-0.1,0.6-0.1c0.2,0,0.4,0,0.6,0.1c0.2,0.1,0.4,0.2,0.5,0.4s0.3,0.3,0.4,0.5C70.2,325.8,70.3,326,70.3,326.2z"/>
<path d="M73.8,331.6c0,0.2,0,0.4-0.1,0.6c-0.1,0.2-0.2,0.4-0.4,0.5s-0.3,0.3-0.5,0.4c-0.2,0.1-0.4,0.1-0.6,0.1c-0.2,0-0.4,0-0.6-0.1
	c-0.2-0.1-0.4-0.2-0.5-0.4s-0.3-0.3-0.4-0.5c-0.1-0.2-0.1-0.4-0.1-0.6c0-0.2,0-0.4,0.1-0.6c0.1-0.2,0.2-0.4,0.4-0.5s0.3-0.3,0.5-0.4
	c0.2-0.1,0.4-0.1,0.6-0.1c0.2,0,0.4,0,0.6,0.1c0.2,0.1,0.4,0.2,0.5,0.4s0.3,0.3,0.4,0.5C73.7,331.2,73.8,331.4,73.8,331.6z"/>
<path d="M71.9,337.7c0,0.2,0,0.4-0.1,0.6c-0.1,0.2-0.2,0.4-0.4,0.5c-0.2,0.2-0.3,0.3-0.5,0.4s-0.4,0.1-0.6,0.1c-0.2,0-0.4,0-0.6-0.1
	s-0.4-0.2-0.5-0.4c-0.2-0.2-0.3-0.3-0.4-0.5c-0.1-0.2-0.1-0.4-0.1-0.6c0-0.2,0-0.4,0.1-0.6c0.1-0.2,0.2-0.4,0.4-0.5s0.3-0.3,0.5-0.4
	s0.4-0.1,0.6-0.1c0.2,0,0.4,0,0.6,0.1s0.4,0.2,0.5,0.4s0.3,0.3,0.4,0.5C71.9,337.2,71.9,337.5,71.9,337.7z"/>
<path d="M27.6,349.4c3.2,0,5.8-2.6,5.8-5.8s-2.6-5.8-5.8-5.8s-5.8,2.6-5.8,5.8S24.4,349.4,27.6,349.4z M27.6,340.2
	c1.8,0,3.3,1.5,3.3,3.3s-1.5,3.3-3.3,3.3s-3.3-1.5-3.3-3.3S25.8,340.2,27.6,340.2z"/>
<path d="M55.1,343.5c0,3.2,2.6,5.8,5.8,5.8c3.2,0,5.8-2.6,5.8-5.8s-2.6-5.8-5.8-5.8C57.7,337.7,55.1,340.3,55.1,343.5z M64.2,343.5
	c0,1.8-1.5,3.3-3.3,3.3c-1.8,0-3.3-1.5-3.3-3.3s1.5-3.3,3.3-3.3C62.7,340.2,64.2,341.7,64.2,343.5z"/>
<path d="M44.2,339.2c-3.8,0-6.9,3.1-6.9,6.9c0,3.8,3.1,6.9,6.9,6.9c3.8,0,6.9-3.1,6.9-6.9C51.1,342.3,48,339.2,44.2,339.2z
	 M44.2,350.5c-2.4,0-4.4-2-4.4-4.4s2-4.4,4.4-4.4s4.4,2,4.4,4.4S46.7,350.5,44.2,350.5z"/>
<path d="M60.9,351.7h-0.1c-4.5,0-8.3,2.7-10,6.6c-1.9-1.2-4.2-1.8-6.6-1.8s-4.6,0.7-6.6,1.8c-1.7-3.9-5.5-6.6-10-6.6h-0.1
	c-6,0-10.9,4.9-10.9,10.9v3c0,0.7,0.6,1.2,1.2,1.2c0.7,0,1.2-0.6,1.2-1.2v-3c0-4.6,3.8-8.4,8.4-8.4h0.1c3.7,0,6.8,2.4,7.9,5.6
	c-2.6,2.4-4.2,5.8-4.2,9.6c0,0.7,0.6,1.2,1.2,1.2c0.7,0,1.2-0.6,1.2-1.2c0-2.4,0.9-4.7,2.3-6.5c0.7-0.8,1.4-1.5,2.3-2.1
	c1.7-1.1,3.7-1.8,5.8-1.8s4.2,0.7,5.8,1.8c0.9,0.6,1.7,1.3,2.3,2.2c1.4,1.8,2.2,4,2.2,6.4c0,0.7,0.6,1.2,1.2,1.2
	c0.7,0,1.2-0.6,1.2-1.2c0-3.8-1.6-7.2-4.2-9.6c1.2-3.3,4.3-5.6,7.9-5.6h0.1c4.6,0,8.4,3.8,8.4,8.4v3c0,0.7,0.6,1.2,1.2,1.2
	c0.7,0,1.2-0.6,1.2-1.2v-3C71.9,356.6,67,351.7,60.9,351.7z"/>
<path class="st6" d="M599.7,254.2c-11.7,0-22.8-4.6-31.1-12.9c-8.3-8.3-12.9-19.4-12.9-31.1s4.6-22.8,12.9-31.1
	c8.3-8.3,19.4-12.9,31.1-12.9s22.8,4.6,31.1,12.9c8.3,8.3,12.9,19.4,12.9,31.1s-4.6,22.8-12.9,31.1
	C622.4,249.6,611.4,254.2,599.7,254.2z M599.7,168.8c-11,0-21.4,4.3-29.2,12.1s-12.1,18.2-12.1,29.2s4.3,21.4,12.1,29.2
	s18.2,12.1,29.2,12.1s21.4-4.3,29.2-12.1s12.1-18.2,12.1-29.2s-4.3-21.4-12.1-29.2S610.7,168.8,599.7,168.8z"/>
<path d="M620.3,203.2c-1.9,0-3.7,0.4-5.4,1.1l-4.7-9c-0.2-0.4-0.5-0.6-1-0.6h-3.6c-0.1,0-0.3,0-0.4,0.1s-0.2,0.1-0.4,0.2
	c-0.1,0.1-0.2,0.2-0.2,0.4c-0.1,0.1-0.1,0.3-0.1,0.4c0,0.1,0,0.3,0.1,0.4c0.1,0.1,0.1,0.3,0.2,0.4c0.1,0.1,0.2,0.2,0.4,0.2
	c0.1,0.1,0.3,0.1,0.4,0.1h2.9l1.5,2.8l-17.4,0.9L591,196l4.2,0.3h0.1c0.1,0,0.3,0,0.4-0.1c0.1-0.1,0.3-0.1,0.4-0.2
	c0.1-0.1,0.2-0.2,0.2-0.4s0.1-0.3,0.1-0.4c0-0.1,0-0.3-0.1-0.4s-0.1-0.3-0.2-0.4c-0.1-0.1-0.2-0.2-0.3-0.2s-0.3-0.1-0.4-0.1
	l-9.6-0.6c-0.1,0-0.3,0-0.4,0.1s-0.3,0.1-0.4,0.2s-0.2,0.2-0.3,0.3c-0.1,0.1-0.1,0.3-0.1,0.4c0,0.1,0,0.3,0.1,0.4
	c0,0.1,0.1,0.3,0.2,0.4c0.1,0.1,0.2,0.2,0.3,0.3c0.1,0.1,0.3,0.1,0.4,0.1l3.1,0.2l1.9,5.8l-3.1,3.9c-0.4-0.3-0.8-0.5-1.2-0.7
	c-0.4-0.2-0.9-0.4-1.3-0.6c-0.4-0.2-0.9-0.3-1.4-0.5c-0.5-0.1-0.9-0.2-1.4-0.3c-0.5-0.1-1-0.1-1.4-0.2c-0.5,0-1,0-1.4,0
	c-0.5,0-1,0.1-1.4,0.2c-0.5,0.1-0.9,0.2-1.4,0.3c-0.5,0.1-0.9,0.3-1.4,0.5c-0.4,0.2-0.9,0.4-1.3,0.6c-0.4,0.2-0.8,0.5-1.2,0.7
	c-0.4,0.3-0.8,0.6-1.2,0.9c-0.4,0.3-0.7,0.6-1.1,1c-0.3,0.3-0.7,0.7-1,1.1c-0.3,0.4-0.6,0.8-0.8,1.2c-0.3,0.4-0.5,0.8-0.7,1.3
	c-0.2,0.4-0.4,0.9-0.6,1.3c-0.2,0.5-0.3,0.9-0.4,1.4c-0.1,0.5-0.2,0.9-0.3,1.4c-0.1,0.5-0.1,1-0.1,1.4c0,0.5,0,1,0,1.5
	c0,0.5,0.1,1,0.2,1.4c0.1,0.5,0.2,0.9,0.3,1.4s0.3,0.9,0.5,1.4c0.2,0.5,0.4,0.9,0.6,1.3c0.2,0.4,0.5,0.8,0.7,1.2
	c0.3,0.4,0.6,0.8,0.9,1.2s0.6,0.7,1,1.1c0.4,0.3,0.7,0.7,1.1,0.9s0.8,0.6,1.2,0.8s0.8,0.5,1.3,0.7c0.4,0.2,0.9,0.4,1.3,0.6
	c0.5,0.2,0.9,0.3,1.4,0.4c0.5,0.1,0.9,0.2,1.4,0.3c0.5,0.1,1,0.1,1.4,0.1c0.5,0,1,0,1.4,0c0.5,0,1-0.1,1.4-0.2
	c0.5-0.1,0.9-0.2,1.4-0.4s0.9-0.3,1.4-0.5c0.4-0.2,0.9-0.4,1.3-0.6c0.4-0.2,0.8-0.5,1.2-0.8c0.4-0.3,0.8-0.6,1.1-0.9s0.7-0.7,1-1
	c0.3-0.4,0.6-0.7,0.9-1.1c0.3-0.4,0.6-0.8,0.8-1.2s0.5-0.8,0.7-1.3c0.2-0.4,0.4-0.9,0.5-1.4s0.3-0.9,0.4-1.4l4.3,0.6h0.2
	c0.1,0,0.2,0,0.3-0.1h0l0.1,0h0.1l0.1-0.1h0.1c0.1-0.1,0.1-0.2,0.1-0.2l12.9-17.5l1.4,2.7c-0.5,0.3-0.9,0.6-1.3,1s-0.8,0.7-1.2,1.1
	c-0.4,0.4-0.7,0.8-1,1.2s-0.6,0.9-0.9,1.4c-0.3,0.5-0.5,1-0.7,1.5c-0.2,0.5-0.4,1-0.5,1.5s-0.3,1.1-0.4,1.6s-0.1,1.1-0.2,1.6
	c0,0.5,0,1.1,0,1.6c0,0.5,0.1,1.1,0.2,1.6c0.1,0.5,0.2,1.1,0.4,1.6s0.4,1,0.6,1.5c0.2,0.5,0.5,1,0.8,1.4c0.3,0.5,0.6,0.9,0.9,1.3
	c0.3,0.4,0.7,0.8,1.1,1.2c0.4,0.4,0.8,0.7,1.2,1.1c0.4,0.3,0.9,0.6,1.3,0.9c0.5,0.3,0.9,0.5,1.4,0.8c0.5,0.2,1,0.4,1.5,0.6
	c0.5,0.2,1,0.3,1.6,0.4c0.5,0.1,1.1,0.2,1.6,0.2c0.5,0,1.1,0,1.6,0s1.1-0.1,1.6-0.2c0.5-0.1,1.1-0.2,1.6-0.4s1-0.3,1.5-0.6
	c0.5-0.2,1-0.5,1.5-0.7c0.5-0.3,0.9-0.6,1.4-0.9c0.4-0.3,0.8-0.7,1.2-1.1s0.8-0.8,1.1-1.2s0.7-0.9,1-1.3s0.6-0.9,0.8-1.4
	c0.2-0.5,0.4-1,0.6-1.5c0.2-0.5,0.3-1,0.4-1.6c0.1-0.5,0.2-1.1,0.2-1.6c0-0.5,0.1-1.1,0-1.6s-0.1-1.1-0.1-1.6
	c-0.1-0.5-0.2-1.1-0.3-1.6s-0.3-1-0.5-1.6c-0.2-0.5-0.4-1-0.7-1.5c-0.3-0.5-0.6-0.9-0.9-1.4c-0.3-0.4-0.7-0.9-1-1.3
	s-0.8-0.8-1.2-1.1c-0.4-0.4-0.8-0.7-1.3-1c-0.5-0.3-0.9-0.6-1.4-0.8c-0.5-0.2-1-0.5-1.5-0.7c-0.5-0.2-1-0.3-1.6-0.5
	c-0.5-0.1-1.1-0.2-1.6-0.3C621.3,203.2,620.8,203.2,620.3,203.2L620.3,203.2z M580,228.6c-0.8,0-1.5,0-2.3-0.2
	c-0.8-0.1-1.5-0.3-2.2-0.6s-1.4-0.6-2-1.1c-0.6-0.4-1.2-0.9-1.8-1.4c-0.5-0.5-1-1.1-1.5-1.8c-0.4-0.6-0.8-1.3-1.1-2
	c-0.3-0.7-0.5-1.4-0.7-2.2s-0.2-1.5-0.2-2.3s0.1-1.5,0.2-2.3s0.4-1.5,0.7-2.2c0.3-0.7,0.7-1.4,1.1-2s0.9-1.2,1.5-1.8
	c0.6-0.5,1.1-1,1.8-1.4c0.6-0.4,1.3-0.8,2-1.1c0.7-0.3,1.5-0.5,2.2-0.6c0.8-0.1,1.5-0.2,2.3-0.2c2.3,0,4.3,0.6,6.2,1.9l-7.1,9
	c-0.3,0.3-0.3,0.7-0.1,1.1c0.2,0.4,0.5,0.6,0.9,0.7l11.3,1.6c-0.1,0.6-0.3,1.2-0.6,1.8c-0.3,0.6-0.6,1.2-0.9,1.7
	c-0.3,0.5-0.7,1.1-1.2,1.5c-0.4,0.5-0.9,0.9-1.4,1.3c-0.5,0.4-1,0.8-1.6,1.1c-0.6,0.3-1.1,0.6-1.8,0.8c-0.6,0.2-1.2,0.4-1.9,0.5
	C581.3,228.5,580.6,228.6,580,228.6z M591.5,217c0,0.2,0,0.3,0,0.5l-9.5-1.3l5.9-7.5c1.1,1.1,2,2.4,2.6,3.8
	C591.2,213.9,591.5,215.4,591.5,217z M589.3,206.9l2.2-2.8l4.7,14.1l-2.6-0.4c0-0.3,0-0.5,0-0.8c0-1.9-0.4-3.8-1.2-5.5
	S590.7,208.2,589.3,206.9z M598.2,217.1l-4.8-14.3l16-0.8L598.2,217.1z M620.3,228.6c-0.6,0-1.2-0.1-1.8-0.2
	c-0.6-0.1-1.2-0.2-1.8-0.4c-0.6-0.2-1.1-0.4-1.7-0.7c-0.5-0.3-1.1-0.6-1.6-1c-0.5-0.4-0.9-0.8-1.4-1.2c-0.4-0.4-0.8-0.9-1.2-1.4
	s-0.7-1-0.9-1.6c-0.3-0.6-0.5-1.1-0.7-1.7c-0.2-0.6-0.3-1.2-0.4-1.8c-0.1-0.6-0.1-1.2-0.1-1.8c0-0.6,0.1-1.2,0.2-1.8
	c0.1-0.6,0.3-1.2,0.5-1.8c0.2-0.6,0.5-1.1,0.8-1.7c0.3-0.5,0.6-1.1,1-1.5c0.4-0.5,0.8-0.9,1.2-1.4c0.4-0.4,0.9-0.8,1.4-1.1l5.3,10.2
	c0.2,0.4,0.5,0.6,1,0.6c0.2,0,0.4,0,0.5-0.1c0.1-0.1,0.2-0.2,0.3-0.3s0.2-0.2,0.2-0.4c0-0.1,0.1-0.3,0-0.4c0-0.1-0.1-0.3-0.1-0.4
	l-5.3-10.2c0.4-0.2,0.8-0.3,1.2-0.4c0.4-0.1,0.8-0.2,1.2-0.3c0.4-0.1,0.8-0.1,1.3-0.1c0.4,0,0.8,0,1.3,0c0.4,0,0.8,0.1,1.3,0.1
	c0.4,0.1,0.8,0.2,1.2,0.3c0.4,0.1,0.8,0.2,1.2,0.4s0.8,0.3,1.2,0.5c0.4,0.2,0.7,0.4,1.1,0.7c0.3,0.2,0.7,0.5,1,0.8
	c0.3,0.3,0.6,0.6,0.9,0.9s0.6,0.6,0.8,1c0.2,0.3,0.5,0.7,0.7,1.1c0.2,0.4,0.4,0.8,0.6,1.1s0.3,0.8,0.4,1.2c0.1,0.4,0.2,0.8,0.3,1.2
	s0.1,0.8,0.2,1.3c0,0.4,0,0.9,0,1.3c0,0.4,0,0.9-0.1,1.3c-0.1,0.4-0.1,0.8-0.2,1.3c-0.1,0.4-0.2,0.8-0.4,1.2s-0.3,0.8-0.5,1.2
	c-0.2,0.4-0.4,0.8-0.6,1.1c-0.2,0.4-0.5,0.7-0.8,1s-0.6,0.6-0.9,0.9c-0.3,0.3-0.6,0.6-1,0.8s-0.7,0.5-1,0.7
	c-0.4,0.2-0.7,0.4-1.1,0.6c-0.4,0.2-0.8,0.3-1.2,0.5s-0.8,0.3-1.2,0.3c-0.4,0.1-0.8,0.2-1.3,0.2
	C621.1,228.5,620.7,228.6,620.3,228.6L620.3,228.6z"/>
<path class="st6" d="M57.8,254.2c-11.7,0-22.8-4.6-31.1-12.9c-8.3-8.3-12.9-19.4-12.9-31.1s4.6-22.8,12.9-31.1
	c8.3-8.3,19.4-12.9,31.1-12.9c11.7,0,22.8,4.6,31.1,12.9c8.3,8.3,12.9,19.4,12.9,31.1s-4.6,22.8-12.9,31.1
	C80.6,249.6,69.6,254.2,57.8,254.2z M57.8,168.8c-11,0-21.4,4.3-29.2,12.1s-12.1,18.2-12.1,29.2s4.3,21.4,12.1,29.2
	s18.2,12.1,29.2,12.1c11,0,21.4-4.3,29.2-12.1s12.1-18.2,12.1-29.2s-4.3-21.4-12.1-29.2S68.9,168.8,57.8,168.8z"/>
<path d="M78.9,211.6h-8.9c-0.7,0-1.3-0.6-1.3-1.3s0.6-1.3,1.3-1.3h8.9c0.7,0,1.3,0.6,1.3,1.3S79.6,211.6,78.9,211.6z"/>
<path d="M78.9,218h-8.9c-0.7,0-1.3-0.6-1.3-1.3s0.6-1.3,1.3-1.3h8.9c0.7,0,1.3,0.6,1.3,1.3S79.6,218,78.9,218z"/>
<path d="M78.9,224.4h-8.9c-0.7,0-1.3-0.6-1.3-1.3s0.6-1.3,1.3-1.3h8.9c0.7,0,1.3,0.6,1.3,1.3S79.6,224.4,78.9,224.4z"/>
<path d="M78.9,204.7h-8.9c-0.7,0-1.3-0.6-1.3-1.3v-8.3c0-0.7,0.6-1.3,1.3-1.3h8.9c0.7,0,1.3,0.6,1.3,1.3v8.3
	C80.2,204.1,79.6,204.7,78.9,204.7z M71.2,202.1h6.4v-5.7h-6.4V202.1z"/>
<path d="M50.8,196.4c7,0,12.8,5.7,12.8,12.7c0,7-5.7,12.7-12.8,12.7c-7,0-12.8-5.7-12.8-12.7C38.1,202.1,43.8,196.4,50.8,196.4
	 M50.8,193.8c-8.4,0-15.3,6.8-15.3,15.3c0,8.4,6.8,15.3,15.3,15.3c8.5,0,15.3-6.8,15.3-15.3C66.1,200.7,59.3,193.8,50.8,193.8z"/>
<path d="M59.7,208.4c-1.2-0.9-2.5-1.3-4.1-1.3c-0.5,0-0.9,0-1.4,0.1c-0.3-0.6-0.7-1.1-1.3-1.4c0.3-0.3,0.6-0.6,1-0.6
	c0.6-0.1,1.4-0.1,2.1-0.1c0.3,0,0.6,0,0.9,0c0.5,0,1.8,0,2.3-1.2c0.2-0.4,0.2-0.9-0.1-1.4c-0.7-1.5-3.1-3.5-5.1-4.2
	c-1.1-0.4-2.2-0.6-3.3-0.6c-2.8,0-4.6,1.5-4.9,3.8c-0.3,2.2,0.6,4,1.7,5.4c-0.3,0.5-0.5,1.1-0.6,1.8c-0.4-0.1-0.8-0.3-1.1-0.6
	c-0.4-0.5-0.8-1.2-1.1-1.8c-0.6-1.2-1.2-2.4-2.6-2.2c-0.4,0-0.9,0.3-1.2,0.8c-1,1.3-1.5,4.4-1.1,6.5c0.7,3.5,2.7,5.8,5.2,5.8
	c0.6,0,1.1-0.1,1.7-0.4c2-0.9,3.1-2.5,3.8-4.1c0.1,0,0.1,0,0.2,0c0.6,0,1.2-0.1,1.7-0.4c0.1,0.4,0.2,0.8,0,1.2
	c-0.2,0.6-0.6,1.2-1,1.8c-0.7,1-1.5,2.2-0.6,3.4c0.3,0.4,0.9,0.7,1.7,0.7c1.7,0,4.3-1,5.8-2.3c2-1.7,3.1-3.7,3-5.5
	C61.3,210.3,60.7,209.2,59.7,208.4z M45.8,214.6c-0.3,0.1-0.5,0.2-0.7,0.2c-1.2,0-2.3-1.6-2.7-3.8c-0.2-1.1-0.1-2.5,0.2-3.4
	c0.3,0.7,0.8,1.5,1.4,2.3c0.8,1,2.1,1.5,3.8,1.5c0.1,0.2,0.3,0.4,0.5,0.5C47.7,212.9,47,214.1,45.8,214.6z M50.8,210.3
	c-0.7,0-1.3-0.6-1.3-1.3c0-0.7,0.6-1.3,1.3-1.3c0.7,0,1.3,0.6,1.3,1.3C52,209.7,51.5,210.3,50.8,210.3z M50.2,205.2
	c-0.2,0-0.4,0.1-0.6,0.1c-0.8-0.9-1.4-2.2-1.2-3.5c0.1-1.1,0.9-1.6,2.4-1.6c0.7,0,1.6,0.2,2.4,0.5c1.1,0.4,2.2,1.2,2.9,1.9
	c-0.3,0-0.7,0-1.1,0c-0.6,0-1.1,0-1.6,0.1C51.9,203,50.9,204,50.2,205.2z M56.7,215.2c-0.8,0.7-2.1,1.3-3.1,1.6
	c0.4-0.6,0.9-1.4,1.2-2.4c0.5-1.4,0.1-2.8-0.6-4c0.1-0.2,0.2-0.4,0.2-0.7c0.3-0.1,0.7-0.1,1-0.1c1,0,1.9,0.3,2.6,0.8
	c0.5,0.3,0.7,0.7,0.7,1.2C58.8,212.7,58.1,214.1,56.7,215.2z"/>
<path d="M81.4,186.2H34.2c-2.8,0-5.1,2.3-5.1,5.1v35.6c0,2.8,2.3,5.1,5.1,5.1h2.6v2.5c0,0.7,0.6,1.3,1.3,1.3h7
	c0.7,0,1.3-0.6,1.3-1.3V232h22.9v2.5c0,0.7,0.6,1.3,1.3,1.3h7c0.7,0,1.3-0.6,1.3-1.3V232h2.6c2.8,0,5.1-2.3,5.1-5.1v-35.6
	C86.5,188.5,84.2,186.2,81.4,186.2z M43.8,233.3h-4.5V232h4.5V233.3z M76.3,233.3h-4.5V232h4.5V233.3z M84,226.9
	c0,1.4-1.1,2.5-2.6,2.5H34.2c-1.4,0-2.6-1.1-2.6-2.5v-35.6c0-1.4,1.1-2.5,2.6-2.5h47.2c1.4,0,2.6,1.1,2.6,2.5V226.9z"/>
<path class="st6" d="M132,145.9c-11.7,0-22.8-4.6-31.1-12.9c-8.3-8.3-12.9-19.4-12.9-31.1s4.6-22.8,12.9-31.1
	C109.2,62.5,120.3,58,132,58c11.7,0,22.8,4.6,31.1,12.9c8.3,8.3,12.9,19.4,12.9,31.1s-4.6,22.8-12.9,31.1
	C154.8,141.4,143.7,145.9,132,145.9z M132,60.6c-11,0-21.4,4.3-29.2,12.1s-12.1,18.2-12.1,29.2s4.3,21.4,12.1,29.2
	s18.2,12.1,29.2,12.1c11,0,21.4-4.3,29.2-12.1s12.1-18.2,12.1-29.2s-4.3-21.4-12.1-29.2S143,60.6,132,60.6z"/>
<path d="M159.1,88.2h-7.2v-1.4l1.6-1.6c0.4,0.3,1,0.4,1.5,0.4c0.8,0,1.5-0.3,2-0.8c1-1,1.2-4,1.3-4.6c0-0.2-0.1-0.4-0.2-0.5
	s-0.3-0.2-0.5-0.2c-0.6,0-3.6,0.3-4.6,1.3c-0.5,0.5-0.8,1.2-0.8,2c0,0.5,0.2,1,0.4,1.5l-0.7,0.7v-5.3c1.2-0.3,2.2-1.4,2.2-2.7
	c0-1.4-1.9-3.7-2.3-4.1c-0.2-0.3-0.7-0.3-1,0c-0.4,0.5-2.3,2.8-2.3,4.1c0,1.3,0.9,2.4,2.2,2.7V85l-0.7-0.7c0.3-0.4,0.4-0.9,0.4-1.5
	c0-0.7-0.3-1.4-0.8-2c-1-1-4-1.2-4.6-1.3c-0.2,0-0.4,0.1-0.5,0.2s-0.2,0.3-0.2,0.5c0,0.6,0.3,3.6,1.3,4.6c0.5,0.5,1.2,0.8,2,0.8
	c0.5,0,1.1-0.2,1.5-0.4l1.6,1.6v1.4h-17.8v-1.4l1.6-1.6c0.4,0.3,1,0.4,1.5,0.4c0.8,0,1.5-0.3,2-0.8c1-1,1.2-4,1.3-4.6
	c0-0.2-0.1-0.4-0.2-0.5s-0.3-0.2-0.5-0.2c-0.6,0-3.6,0.3-4.6,1.3c-0.9,0.9-1.1,2.4-0.4,3.5l-0.7,0.7v-5.3c1.2-0.3,2.2-1.4,2.2-2.7
	c0-1.4-1.9-3.7-2.3-4.1c-0.2-0.3-0.7-0.3-1,0c-0.4,0.5-2.3,2.8-2.3,4.1c0,1.3,0.9,2.4,2.2,2.7V85l-0.7-0.7c0.7-1.1,0.6-2.5-0.4-3.5
	c-1-1-4-1.2-4.6-1.3c-0.2,0-0.4,0.1-0.5,0.2c-0.1,0.1-0.2,0.3-0.2,0.5c0,0.6,0.3,3.6,1.3,4.6c0.5,0.5,1.2,0.8,2,0.8
	c0.5,0,1.1-0.2,1.5-0.4l1.6,1.6v1.4h-17.8v-1.4l1.6-1.6c0.4,0.3,1,0.4,1.5,0.4c0.8,0,1.5-0.3,2-0.8c1-1,1.2-4,1.3-4.6
	c0-0.2-0.1-0.4-0.2-0.5s-0.3-0.2-0.5-0.2c-0.6,0-3.6,0.3-4.6,1.3c-0.5,0.5-0.8,1.2-0.8,2c0,0.5,0.2,1,0.4,1.5l-0.7,0.7v-5.3
	c1.2-0.3,2.2-1.4,2.2-2.7c0-1.4-1.9-3.7-2.3-4.1c-0.1-0.1-0.3-0.2-0.5-0.2s-0.4,0.1-0.5,0.2c-0.4,0.5-2.3,2.8-2.3,4.1
	c0,1.3,0.9,2.4,2.2,2.7V85l-0.7-0.7c0.3-0.4,0.4-0.9,0.4-1.5c0-0.7-0.3-1.4-0.8-2c-1-1-4-1.2-4.6-1.3c-0.2,0-0.4,0.1-0.5,0.2
	c-0.1,0.1-0.2,0.3-0.2,0.5c0,0.6,0.3,3.6,1.3,4.6c0.5,0.5,1.2,0.8,2,0.8c0.5,0,1.1-0.2,1.5-0.4l1.6,1.6v1.4h-7.2
	c-0.3,0-0.6,0.3-0.6,0.6v39.9c0,0.3,0.3,0.6,0.6,0.6h53.8c0.3,0,0.6-0.3,0.6-0.6V88.8C159.7,88.5,159.4,88.2,159.1,88.2z
	 M153.8,81.8c0.4-0.4,1.8-0.7,3.1-0.8c-0.2,1.2-0.5,2.6-0.9,3c-0.6,0.6-1.6,0.6-2.2,0c-0.3-0.3-0.5-0.7-0.5-1.1
	S153.5,82.1,153.8,81.8z M146.4,84c-0.4-0.4-0.7-1.8-0.9-3c1.2,0.2,2.7,0.5,3.1,0.8c0.3,0.3,0.5,0.7,0.5,1.1s-0.2,0.8-0.5,1.1
	C148,84.5,147,84.5,146.4,84z M149.7,77c0-0.5,0.8-1.8,1.6-2.7c0.7,1,1.6,2.2,1.6,2.7c0,0.9-0.7,1.5-1.6,1.5
	C150.4,78.6,149.7,77.9,149.7,77z M134.8,81.8c0.4-0.4,1.8-0.7,3.1-0.8c-0.2,1.2-0.5,2.6-0.9,3c-0.6,0.6-1.6,0.6-2.2,0
	C134.2,83.4,134.2,82.4,134.8,81.8z M127.4,84c-0.4-0.4-0.7-1.8-0.8-3c1.2,0.2,2.7,0.5,3.1,0.8c0.6,0.6,0.6,1.6,0,2.2
	C129,84.5,128,84.5,127.4,84z M130.7,77c0-0.5,0.8-1.8,1.6-2.7c0.7,1,1.6,2.2,1.6,2.7c0,0.9-0.7,1.5-1.6,1.5S130.7,77.9,130.7,77z
	 M115.8,81.8c0.4-0.4,1.8-0.7,3.1-0.8c-0.2,1.2-0.5,2.6-0.9,3c-0.6,0.6-1.6,0.6-2.2,0c-0.3-0.3-0.5-0.7-0.5-1.1
	S115.5,82.1,115.8,81.8z M108.4,84c-0.4-0.4-0.7-1.8-0.9-3c1.2,0.2,2.7,0.5,3.1,0.8c0.3,0.3,0.5,0.7,0.5,1.1s-0.2,0.8-0.5,1.1
	C110,84.5,109,84.5,108.4,84z M111.6,77c0-0.5,0.8-1.8,1.6-2.7c0.7,1,1.6,2.2,1.6,2.7c0,0.9-0.7,1.5-1.6,1.5S111.6,77.9,111.6,77z
	 M158.5,128.1H106V89.5h52.5V128.1z"/>
<path d="M130.1,93h-20.3c-0.3,0-0.6,0.3-0.6,0.6v7.8c0,0.3,0.3,0.6,0.6,0.6h20.3c0.3,0,0.6-0.3,0.6-0.6v-7.8
	C130.8,93.3,130.5,93,130.1,93z M129.5,100.8h-19.1v-6.5h19.1V100.8z"/>
<path d="M133.7,93.6v7.8c0,0.3,0.3,0.6,0.6,0.6h20.3c0.3,0,0.6-0.3,0.6-0.6v-7.8c0-0.3-0.3-0.6-0.6-0.6h-20.3
	C133.9,93,133.7,93.3,133.7,93.6z M134.9,94.3H154v6.5h-19.1V94.3z"/>
<path d="M130.1,104.6h-20.3c-0.3,0-0.6,0.3-0.6,0.6v7.8c0,0.3,0.3,0.6,0.6,0.6h20.3c0.3,0,0.6-0.3,0.6-0.6v-7.8
	C130.8,104.8,130.5,104.6,130.1,104.6z M129.5,112.3h-19.1v-6.5h19.1V112.3z"/>
<path d="M154.6,104.6h-20.3c-0.3,0-0.6,0.3-0.6,0.6v7.8c0,0.3,0.3,0.6,0.6,0.6h20.3c0.3,0,0.6-0.3,0.6-0.6v-7.8
	C155.2,104.8,155,104.6,154.6,104.6z M154,112.3h-19.1v-6.5H154V112.3z"/>
<path d="M130.1,116.1h-20.3c-0.3,0-0.6,0.3-0.6,0.6v7.8c0,0.3,0.3,0.6,0.6,0.6h20.3c0.3,0,0.6-0.3,0.6-0.6v-7.8
	C130.8,116.4,130.5,116.1,130.1,116.1z M129.5,123.9h-19.1v-6.5h19.1V123.9z"/>
<path d="M154.6,116.1h-20.3c-0.3,0-0.6,0.3-0.6,0.6v7.8c0,0.3,0.3,0.6,0.6,0.6h20.3c0.3,0,0.6-0.3,0.6-0.6v-7.8
	C155.2,116.4,155,116.1,154.6,116.1z M154,123.9h-19.1v-6.5H154V123.9z"/>
<path class="st6" d="M396.4,94.8c-11.7,0-22.8-4.6-31.1-12.9c-8.3-8.3-12.9-19.4-12.9-31.1S357,28,365.3,19.7
	c8.3-8.3,19.4-12.9,31.1-12.9c11.7,0,22.8,4.6,31.1,12.9c8.3,8.3,12.9,19.4,12.9,31.1s-4.6,22.8-12.9,31.1
	C419.2,90.2,408.2,94.8,396.4,94.8z M396.4,9.5c-11,0-21.4,4.3-29.2,12.1s-12.1,18.2-12.1,29.2s4.3,21.4,12.1,29.2
	c7.8,7.8,18.2,12.1,29.2,12.1s21.4-4.3,29.2-12.1c7.8-7.8,12.1-18.2,12.1-29.2s-4.3-21.4-12.1-29.2C417.8,13.8,407.5,9.5,396.4,9.5z
	"/>
<g>
	<defs>
		<rect id="SVGID_12_" x="368.3" y="22.4" width="56.2" height="57"/>
	</defs>
	<clipPath id="SVGID_13_">
		<use xlink:href="#SVGID_12_"  style="overflow:visible;"/>
	</clipPath>
	<g class="st9">
		<path d="M373.4,76.9V37.3l-3.8,2.2c-0.4,0.2-0.9,0.1-1.2-0.3s-0.1-0.9,0.3-1.2L396,22.7c0.3-0.1,0.6-0.1,0.8,0L424.1,38
			c0.4,0.2,0.6,0.7,0.3,1.2s-0.8,0.6-1.2,0.3l-3.8-2.2v39.6h4.3c0.5,0,0.9,0.4,0.9,0.8s-0.4,0.9-0.9,0.9h-54.5
			c-0.5,0-0.9-0.4-0.9-0.9s0.4-0.8,0.9-0.8H373.4z M375.1,76.9h42.6V36.3l-21.3-11.9l-21.3,11.9V76.9z M382.4,41.4l13.6-7.6
			c0.3-0.1,0.6-0.1,0.8,0l13.6,7.6c0.3,0.1,0.4,0.4,0.4,0.7v27.2c0,0.5-0.4,0.8-0.9,0.8h-27.3c-0.5,0-0.9-0.4-0.9-0.8V42.1
			C382,41.8,382.1,41.5,382.4,41.4z M383.7,68.4h25.6V42.6l-12.8-7.2l-12.8,7.2V68.4z"/>
	</g>
</g>
<path class="st10" d="M275.4,102.2l15.7,92.4"/>
<path class="st10" d="M493.2,149l-41.3,59"/>
<path class="st10" d="M113.7,237.9l78.1,36.5"/>
<path class="st10" d="M170.5,149.9l58.2,69.7"/>
<path class="st10" d="M104.5,336.3l72.1,14.3"/>
<path class="st10" d="M474.4,281.8l77.3-50.4"/>
<path class="st10" d="M374.6,192.8l10.5-90.2"/>
<path class="st10" d="M488.6,355.6l74.2-10.9"/>
<path class="st11" d="M567.6,689.6c-11.7,0-22.8-4.6-31.1-12.9c-8.3-8.3-12.9-19.4-12.9-31.1c0-11.7,4.6-22.8,12.9-31.1
	c8.3-8.3,19.4-12.9,31.1-12.9s22.8,4.6,31.1,12.9c8.3,8.3,12.9,19.4,12.9,31.1c0,11.7-4.6,22.8-12.9,31.1
	C590.4,685,579.3,689.6,567.6,689.6z M567.6,604.3c-11,0-21.4,4.3-29.2,12.1s-12.1,18.2-12.1,29.2c0,11,4.3,21.4,12.1,29.2
	s18.2,12.1,29.2,12.1s21.4-4.3,29.2-12.1s12.1-18.2,12.1-29.2c0-11-4.3-21.4-12.1-29.2S578.6,604.3,567.6,604.3z"/>
<path d="M597.6,650.4c0-0.4-0.4-0.6-0.7-0.6h-2.1v-7.8c0-1.1-0.9-2.1-2.1-2.1c-1.1,0-2.1,0.9-2.1,2.1v7.8h-4.3v-7.8
	c0-1.1-0.9-2.1-2.1-2.1c-1.1,0-2.1,0.9-2.1,2.1v7.8h-2.4c-0.4,0-0.7,0.3-0.7,0.6c-0.1,0.5-0.9,11,3.8,13.9v4.5
	c0,0.4,0.3,0.7,0.7,0.7h4.2c-0.3,3.2-3,5.7-6.3,5.7h-20.1c-3.5,0-6.3-2.8-6.3-6.3v-4.3h2.1c0.2,0,0.4-0.1,0.5-0.2
	c0.1-0.1,0.2-0.4,0.2-0.5l-1.9-30.8l0.6,0.6c0.4,0.4,0.9,0.7,1.4,1l10.5,4.9c0.1,0.1,0.3,0.1,0.4,0.1c0.4,0,0.6-0.1,0.9-0.4
	c0.1-0.2,0.2-0.4,0.2-0.6c0-0.4-0.1-0.6-0.4-0.8l-13.2-9.6h-0.1c-0.1-0.3-0.2-0.6-0.4-0.8l0.6-3.3c0.1-0.6,0.1-1.1,0-1.7l-2.2-11.4
	c-0.1-0.5-0.5-0.9-1-0.9c-0.3,0-0.6,0.1-0.7,0.3c-0.2,0.2-0.3,0.4-0.3,0.7v15.9c-0.3,0.3-0.4,0.6-0.6,0.9l-3.3,1.2
	c-0.6,0.2-1,0.5-1.5,0.8l-8.8,7.6c-0.4,0.4-0.4,0.8-0.2,1.3c0.2,0.4,0.5,0.5,0.9,0.5c0.2,0,0.4-0.1,0.5-0.1l13-7.4l-1.9,31.9
	c0,0.2,0.1,0.4,0.2,0.5c0.1,0.1,0.4,0.2,0.5,0.2h2.6v4.3c0,4.2,3.5,7.7,7.8,7.7h20.1c4.1,0,7.4-3.1,7.7-7.1h3.6
	c0.4,0,0.7-0.3,0.7-0.7v-4.3C598.5,662,597.6,650.9,597.6,650.4z M558.5,633.4c-0.4-0.1-0.7-0.4-0.9-0.7l-1.8-1.8
	c0-0.1-0.1-0.1-0.1-0.2c0.2-0.2,0.4-0.5,0.5-0.8l9.4,6.8L558.5,633.4z M552.8,628.8c0-0.6,0.5-1.1,1.1-1.1c0.2,0,0.4,0.1,0.6,0.2
	c0.1,0.1,0.1,0.1,0.2,0.2c0.1,0.2,0.2,0.4,0.2,0.6c0,0.6-0.5,1.1-1.1,1.1C553.2,629.9,552.8,629.4,552.8,628.8z M555,622.6
	c0.1,0.4,0.1,0.8,0,1.2l-0.5,2.6c-0.2-0.1-0.4-0.1-0.6-0.1c-0.1,0-0.2,0-0.4,0.1v-11.3L555,622.6z M547.7,631.1
	c0.3-0.3,0.6-0.5,1-0.6l2.7-1c0.1,0.4,0.3,0.6,0.5,0.9l-10,5.7L547.7,631.1z M551.7,663.2l1.9-31.9c0.1,0,0.1,0,0.2,0
	c0.1,0,0.3,0,0.4-0.1l0.1,0.1l2,31.8H551.7z M591.9,641.9c0-0.4,0.3-0.7,0.7-0.7c0.4,0,0.7,0.3,0.7,0.7v7.8h-1.4V641.9z
	 M583.4,641.9c0-0.4,0.3-0.7,0.7-0.7c0.4,0,0.7,0.3,0.7,0.7v7.8h-1.4V641.9z M591.9,668.1h-7.8v-3.5h7.8V668.1z M592.9,663.3
	c-0.1-0.1-0.1-0.1-0.2-0.1h-9.1c-3.1-1.8-3.5-8.8-3.3-12h16C596.4,654.5,596.1,661.5,592.9,663.3z"/>
<path d="M589.3,655.5l-1.4,0.8l1.1-3.3c0.1-0.4-0.1-0.8-0.4-0.9c-0.4-0.1-0.8,0.1-0.9,0.4l-1.7,5c-0.1,0.3,0,0.6,0.2,0.8
	c0.2,0.2,0.6,0.2,0.8,0.1l1.5-0.8l-1.1,4.1c-0.1,0.4,0.1,0.8,0.5,0.9c0.1,0,0.1,0,0.2,0c0.3,0,0.6-0.2,0.7-0.5l1.6-5.7
	c0.1-0.3,0-0.6-0.2-0.8C589.9,655.4,589.6,655.4,589.3,655.5z"/>
<path class="st11" d="M127.7,689.6c-11.7,0-22.8-4.6-31.1-12.9c-8.3-8.3-12.9-19.4-12.9-31.1c0-11.7,4.6-22.8,12.9-31.1
	c8.3-8.3,19.4-12.9,31.1-12.9s22.8,4.6,31.1,12.9c8.3,8.3,12.9,19.4,12.9,31.1c0,11.7-4.6,22.8-12.9,31.1
	C150.5,685,139.5,689.6,127.7,689.6z M127.7,604.3c-11,0-21.4,4.3-29.2,12.1s-12.1,18.2-12.1,29.2c0,11,4.3,21.4,12.1,29.2
	s18.2,12.1,29.2,12.1s21.4-4.3,29.2-12.1s12.1-18.2,12.1-29.2c0-11-4.3-21.4-12.1-29.2S138.8,604.3,127.7,604.3z"/>
<path d="M98.5,664.1h-3.7c-0.5,0-0.9-0.4-0.9-0.9v-15.9c0-0.5,0.4-0.9,0.9-0.9h3.7c0.5,0,0.9,0.4,0.9,0.9v15.9
	C99.5,663.6,99,664.1,98.5,664.1z M95.8,662.2h1.8v-14.1h-1.8V662.2z"/>
<g>
	<defs>
		<rect id="SVGID_14_" x="97.6" y="640.6" width="68.9" height="33"/>
	</defs>
	<clipPath id="SVGID_15_">
		<use xlink:href="#SVGID_14_"  style="overflow:visible;"/>
	</clipPath>
	<g class="st12">
		<path d="M131.3,673.4c-1,0-1.9-0.1-2.8-0.4c-13.5-3.7-30.2-10.6-30.3-10.6c-0.5-0.2-0.7-0.7-0.5-1.2c0.2-0.5,0.7-0.7,1.2-0.5
			c0.2,0.1,16.8,6.9,30.1,10.6c12.1,3.3,32.3-21.4,34.9-24.6c-0.1-0.4-0.3-0.7-0.7-0.9c-0.8-0.6-2.2-0.4-2.6-0.3
			c-0.3,0.1-0.7,0-0.9-0.3c-0.2-0.3-0.3-0.7-0.1-1c0.2-0.4,0.4-1.2,0.1-1.5c-0.1-0.1-0.6-0.6-3.4,0.3c-3.5,1.2-5.1,3.3-6.3,5
			c-1,1.3-1.9,2.6-3.4,2.9c-0.5,0.1-1-0.2-1.1-0.7c-0.1-0.5,0.2-1,0.7-1.1c0.8-0.1,1.3-0.9,2.3-2.1c1.3-1.8,3.1-4.3,7.3-5.7
			c2.7-0.9,4.4-0.8,5.4,0.2c0.5,0.6,0.6,1.4,0.6,2c0.8,0,1.8,0.1,2.7,0.7c0.8,0.6,1.4,1.4,1.6,2.6c0,0.2,0,0.5-0.2,0.7
			C164.7,648.6,145.3,673.4,131.3,673.4z"/>
	</g>
</g>
<path d="M148.9,658c-0.2,0-0.4-0.1-0.6-0.2c-0.4-0.3-0.4-0.9-0.1-1.3l11.4-12.4c0.3-0.4,0.9-0.4,1.3-0.1c0.4,0.3,0.4,0.9,0.1,1.3
	l-11.4,12.4C149.4,657.9,149.1,658,148.9,658z"/>
<path d="M141.7,619.2c0,0-0.1,0-0.1,0c-0.5-0.1-0.9-0.5-0.8-1l0.4-3.3c0.1-0.5,0.5-0.9,1-0.8c0.5,0.1,0.9,0.5,0.8,1l-0.4,3.3
	C142.5,618.8,142.1,619.2,141.7,619.2z"/>
<path d="M125.8,619.3c-0.5,0-0.9-0.4-0.9-0.8l-0.3-3.5c0-0.5,0.3-0.9,0.8-1c0.5,0,1,0.3,1,0.8l0.3,3.5
	C126.8,618.8,126.4,619.3,125.8,619.3C125.9,619.3,125.9,619.3,125.8,619.3z"/>
<path d="M134,616.8c-0.5,0-0.9-0.4-0.9-0.9v-3.2c0-0.5,0.4-0.9,0.9-0.9c0.5,0,0.9,0.4,0.9,0.9v3.2
	C134.9,616.4,134.5,616.8,134,616.8z"/>
<path d="M122.1,660.7c-0.4,0-0.7-0.2-0.9-0.6c-0.2-0.5,0.1-1,0.6-1.2c0.6-0.2,14.7-5,20.7-4c1.5,0.3,2.6,0,3.3-0.8
	c0.5-0.6,0.6-1.6,0.2-2.5c-0.6-1.5-2.1-2.5-4.1-2.8c-2.4-0.3-5.5,0.2-8.5,0.7c-5.1,0.9-10.3,1.7-12.5-1.9c-2.7-4.6-16.8,0.3-22,2.6
	c-0.5,0.2-1,0-1.2-0.5c-0.2-0.5,0-1,0.5-1.2c2.1-0.9,20.3-8.7,24.4-1.9c1.5,2.5,5.9,1.8,10.6,1c3.1-0.5,6.3-1.1,9-0.7
	c2.7,0.4,4.8,1.9,5.6,4c0.6,1.6,0.4,3.2-0.5,4.3c-0.6,0.7-2.1,1.9-5,1.4c-5.6-1-19.6,3.8-19.8,3.9
	C122.3,660.7,122.2,660.7,122.1,660.7z"/>
<path d="M133.7,642.3c-6.5,0-11.9-5.3-11.9-11.8s5.3-11.8,11.9-11.8c6.5,0,11.9,5.3,11.9,11.8S140.2,642.3,133.7,642.3z
	 M133.7,620.6c-5.5,0-10,4.5-10,10c0,5.5,4.5,10,10,10c5.5,0,10-4.5,10-10C143.7,625,139.2,620.6,133.7,620.6z"/>
<path d="M134.3,636.8c-0.9,0-1.9-0.2-2.8-0.7c-1.2-0.7-2.5-2.2-2.5-5.5c0-2.3,0.7-4,2.1-5.2c2.3-1.9,5.6-1.3,5.7-1.3
	c0.5,0.1,0.8,0.6,0.7,1.1c-0.1,0.5-0.6,0.8-1.1,0.7c-0.1,0-2.6-0.4-4.2,0.9c-0.9,0.8-1.4,2-1.4,3.8c0,2,0.6,3.3,1.6,3.9
	c1.5,0.8,3.5,0.3,3.9,0.1c0.4-0.2,1-0.1,1.3,0.3s0.1,1-0.4,1.2C136.8,636.4,135.6,636.8,134.3,636.8z"/>
<path d="M136.1,629.9H128c-0.5,0-0.9-0.4-0.9-0.9s0.4-0.9,0.9-0.9h8.1c0.5,0,0.9,0.4,0.9,0.9S136.6,629.9,136.1,629.9z"/>
<path d="M136.1,632.6H128c-0.5,0-0.9-0.4-0.9-0.9s0.4-0.9,0.9-0.9h8.1c0.5,0,0.9,0.4,0.9,0.9S136.6,632.6,136.1,632.6z"/>
<path class="st11" d="M274.3,689.6c-11.7,0-22.8-4.6-31.1-12.9c-8.3-8.3-12.9-19.4-12.9-31.1c0-11.7,4.6-22.8,12.9-31.1
	c8.3-8.3,19.4-12.9,31.1-12.9s22.8,4.6,31.1,12.9c8.3,8.3,12.9,19.4,12.9,31.1c0,11.7-4.6,22.8-12.9,31.1
	C297.1,685,286.1,689.6,274.3,689.6z M274.3,604.3c-11,0-21.4,4.3-29.2,12.1S233,634.6,233,645.6c0,11,4.3,21.4,12.1,29.2
	s18.2,12.1,29.2,12.1s21.4-4.3,29.2-12.1s12.1-18.2,12.1-29.2c0-11-4.3-21.4-12.1-29.2S285.4,604.3,274.3,604.3z"/>
<path class="st13" d="M289.6,629.7c0,0.5-0.4,0.8-0.8,0.8H263c-0.5,0-0.8-0.4-0.8-0.8c0-0.5,0.4-0.8,0.8-0.8h25.8
	C289.3,628.8,289.6,629.2,289.6,629.7z M298.8,665.8v-44.6c0-2.8-2.2-5-5-5h-10.8v5.4c0,0.5-0.4,0.8-0.8,0.8l-12.7,0c0,0,0,0,0,0
	c-0.2,0-0.4-0.1-0.6-0.2c-0.2-0.2-0.2-0.4-0.2-0.6v-5.4h-10.8c-2.8,0-5,2.2-5,5v18.5c3.7,0.1,7.1-1.5,11.5-3.5l0.8-0.4
	c0.2-0.1,0.5-0.1,0.7,0l0.8,0.4c5.7,2.6,9.9,4.5,15.1,2.8c0.3-0.1,0.5,0,0.8,0.1c0.2,0.2,0.4,0.4,0.4,0.7v6.6l3.9-3.1
	c0.4-0.3,0.9-0.2,1.2,0.1s0.2,0.9-0.1,1.2l-4.9,4v8.5c0,5.2-2,10-5.4,13.7h16.3C296.6,670.7,298.8,668.5,298.8,665.8z M265.6,675.3
	c-8.9-1.4-15.7-9.2-15.7-18.2v-16.2c5.3,1.3,9.7-0.7,15.2-3.2l0.5-0.2l0.5,0.2c5.5,2.5,9.9,4.5,15.2,3.2v6.8l-13.5,11l-7-6
	c-0.4-0.3-0.9-0.3-1.2,0.1s-0.3,0.9,0.1,1.2l7.5,6.5c0.2,0.1,0.4,0.2,0.6,0.2c0.2,0,0.4-0.1,0.5-0.2l13-10.5v7.2
	C281.3,666.1,274.5,673.9,265.6,675.3z M270.4,616.1h11.1v4.5l-11.1,0V616.1z M293.8,614.4h-35.9c-3.7,0-6.7,3-6.7,6.7v18.3
	c-0.6-0.1-1.2-0.3-1.9-0.5c-0.3-0.1-0.5,0-0.8,0.1s-0.3,0.4-0.3,0.7v17.3c0,9.9,7.4,18.5,17.2,19.9c0,0,0.1,0,0.1,0c0,0,0.1,0,0.1,0
	c3.8-0.6,7.3-2.2,10.1-4.6h18.1c3.7,0,6.7-3,6.7-6.7v-44.6C300.5,617.4,297.5,614.4,293.8,614.4z"/>
<path class="st11" d="M421,689.6c-11.7,0-22.8-4.6-31.1-12.9c-8.3-8.3-12.9-19.4-12.9-31.1c0-11.7,4.6-22.8,12.9-31.1
	c8.3-8.3,19.4-12.9,31.1-12.9c11.7,0,22.8,4.6,31.1,12.9c8.3,8.3,12.9,19.4,12.9,31.1c0,11.7-4.6,22.8-12.9,31.1
	C443.8,685,432.7,689.6,421,689.6z M421,604.3c-11,0-21.4,4.3-29.2,12.1s-12.1,18.2-12.1,29.2c0,11,4.3,21.4,12.1,29.2
	S409.9,687,421,687c11,0,21.4-4.3,29.2-12.1s12.1-18.2,12.1-29.2c0-11-4.3-21.4-12.1-29.2S432,604.3,421,604.3z"/>
<path d="M447.5,667.5h-2.6v-4.4c0-0.3-0.1-0.5-0.3-0.7c-0.2-0.2-0.4-0.3-0.7-0.3h-0.5v-22.7h0.5c0.3,0,0.5-0.1,0.7-0.3
	s0.3-0.4,0.3-0.7V634h1.1c0.3,0,0.5-0.1,0.7-0.3c0.2-0.2,0.3-0.4,0.3-0.7v-4.7c0-0.3-0.1-0.5-0.3-0.7c-0.2-0.2-0.4-0.3-0.7-0.3H445
	v-3.9c0-0.2-0.1-0.4-0.2-0.6s-0.3-0.3-0.5-0.4l-23.1-7.9h-0.1c-0.1,0-0.3,0-0.4,0h-0.1l-23.1,7.9c-0.2,0.1-0.4,0.2-0.5,0.4
	s-0.2,0.4-0.2,0.6v3.9H396c-0.3,0-0.5,0.1-0.7,0.3c-0.2,0.2-0.3,0.4-0.3,0.7v4.7c0,0.3,0.1,0.5,0.3,0.7s0.4,0.3,0.7,0.3h1.1v4.4
	c0,0.3,0.1,0.5,0.3,0.7c0.2,0.2,0.4,0.3,0.7,0.3h0.5v22.7h-0.5c-0.3,0-0.5,0.1-0.7,0.3c-0.2,0.2-0.3,0.4-0.3,0.7v4.4h-2.6
	c-0.3,0-0.5,0.1-0.7,0.3c-0.2,0.2-0.3,0.4-0.3,0.7v4.7c0,0.3,0.1,0.5,0.3,0.7c0.2,0.2,0.4,0.3,0.7,0.3h52.9c0.3,0,0.5-0.1,0.7-0.3
	c0.2-0.2,0.3-0.4,0.3-0.7v-4.7c0-0.3-0.1-0.5-0.3-0.7C448,667.6,447.7,667.5,447.5,667.5z M427.2,667.5v-4.4c0-0.3-0.1-0.5-0.3-0.7
	c-0.2-0.2-0.4-0.3-0.7-0.3h-0.5v-22.7h0.5c0.3,0,0.5-0.1,0.7-0.3c0.2-0.2,0.3-0.4,0.3-0.7V634h5.1v4.4c0,0.3,0.1,0.5,0.3,0.7
	c0.2,0.2,0.4,0.3,0.7,0.3h0.5v22.7h-0.5c-0.3,0-0.5,0.1-0.7,0.3c-0.2,0.2-0.3,0.4-0.3,0.7v4.4H427.2z M409.6,667.5v-4.4
	c0-0.3-0.1-0.5-0.3-0.7c-0.2-0.2-0.4-0.3-0.7-0.3h-0.5v-22.7h0.5c0.3,0,0.5-0.1,0.7-0.3c0.2-0.2,0.3-0.4,0.3-0.7V634h5.1v4.4
	c0,0.3,0.1,0.5,0.3,0.7c0.2,0.2,0.4,0.3,0.7,0.3h0.5v22.7h-0.5c-0.3,0-0.5,0.1-0.7,0.3c-0.2,0.2-0.3,0.4-0.3,0.7v4.4H409.6z
	 M423.8,662.1h-5.5v-22.7h5.5V662.1z M425.3,637.5h-8.6V634h8.6V637.5z M416.7,664.1h8.6v3.4h-8.6V664.1z M434.3,664.1h8.6v3.4h-8.6
	V664.1z M441.4,662.1h-5.5v-22.7h5.5V662.1z M442.9,637.5h-8.6V634h8.6V637.5z M398.9,624.2l22.1-7.6l22.1,7.6v3.2h-44.2V624.2z
	 M397,629.3h47.9v2.7H397V629.3z M407.7,634v3.4h-8.6V634H407.7z M400.7,639.4h5.5v22.7h-5.5V639.4z M399.1,664.1h8.6v3.4h-8.6
	V664.1z M446.5,672.2h-51v-2.7h51V672.2z"/>
<path class="st10" d="M180.9,517.3l-47.5,66.6"/>
<path class="st10" d="M287.2,519l-8.1,68.5"/>
<path class="st14" d="M413.8,519l10.1,68.3"/>
<path class="st10" d="M520.8,517.9l40.5,70.1"/>
</svg>
