<svg width="30" height="30" viewBox="0 0 30 30" xmlns="http://www.w3.org/2000/svg" class="footer-social__icon" aria-label="Kisokolab on GitHub"><path fill="#fff" d="M15.027.113c8.269 0 14.972 6.817 14.972 15.227 0 6.726-4.285 12.432-10.23 14.448-.76.15-1.029-.325-1.029-.73 0-.502.018-2.142.018-4.18 0-1.42-.479-2.347-1.016-2.82 3.334-.376 6.837-1.664 6.837-7.513 0-1.662-.581-3.021-1.541-4.087.155-.384.668-1.933-.147-4.03 0 0-1.256-.41-4.113 1.56a14.163 14.163 0 0 0-3.751-.512 14.125 14.125 0 0 0-3.748.513c-2.86-1.97-4.118-1.561-4.118-1.561-.813 2.097-.3 3.646-.145 4.03-.958 1.066-1.543 2.425-1.543 4.087 0 5.835 3.496 7.14 6.822 7.526-.428.38-.816 1.052-.95 2.036-.855.39-3.022 1.062-4.358-1.266 0 0-.791-1.462-2.295-1.569 0 0-1.46-.02-.102.926 0 0 .981.468 1.662 2.228 0 0 .879 2.718 5.044 1.797.007 1.272.02 2.472.02 2.835 0 .402-.274.873-1.022.732C4.344 27.777.054 22.07.054 15.34.055 6.93 6.76.113 15.028.113zM5.725 21.976c-.033.076-.15.099-.256.047-.109-.05-.17-.153-.135-.229.033-.078.15-.1.258-.048.11.05.171.155.133.23zm.607.688c-.072.068-.211.036-.306-.07-.098-.106-.116-.248-.044-.316.074-.068.21-.036.307.07.098.107.117.248.043.316zm.59.877c-.091.065-.241.004-.334-.131-.092-.135-.092-.298.002-.363.093-.065.24-.006.335.128.091.137.091.3-.003.366zm.81.848c-.083.092-.258.067-.386-.058-.13-.123-.167-.297-.085-.39.083-.092.26-.066.388.059.13.122.17.298.082.389zm1.115.492c-.037.119-.205.173-.375.123-.169-.053-.28-.192-.246-.313.036-.12.205-.177.376-.122.169.052.28.19.245.312zm1.225.091c.004.126-.14.23-.318.232-.179.004-.323-.098-.325-.221 0-.127.14-.23.32-.233.177-.004.323.097.323.222zm1.14-.197c.021.122-.102.248-.28.281-.173.033-.334-.043-.356-.164-.021-.126.104-.252.278-.284.177-.032.335.042.358.167z"/></svg>