<svg width="30" height="30" viewBox="0 0 30 30" xmlns="http://www.w3.org/2000/svg" class="footer-social__icon" aria-label="Kisokolab on LinkedIn"><path fill="#fff" fill-rule="evenodd" d="M15 0C6.716 0 0 6.716 0 15c0 8.284 6.716 15 15 15 8.284 0 15-6.716 15-15 0-8.284-6.716-15-15-15zM7.201 12.424h3.4v10.213H7.2V12.424zm3.623-3.16C10.802 8.263 10.086 7.5 8.923 7.5S7 8.263 7 9.264c0 .98.738 1.766 1.879 1.766H8.9c1.185 0 1.923-.785 1.923-1.766zm8.122 2.92c2.237 0 3.914 1.46 3.914 4.597v5.856h-3.4v-5.464c0-1.373-.491-2.31-1.722-2.31-.94 0-1.498.632-1.744 1.242-.09.219-.112.523-.112.828v5.705h-3.4s.045-9.256 0-10.214h3.4v1.447c.451-.696 1.26-1.687 3.064-1.687z"/></svg>